<?xml version="1.0" encoding="utf-8" standalone="no"?>
<!DOCTYPE svg PUBLIC "-//W3C//DTD SVG 1.1//EN"
  "http://www.w3.org/Graphics/SVG/1.1/DTD/svg11.dtd">
<svg xmlns:xlink="http://www.w3.org/1999/xlink" width="460.8pt" height="345.6pt" viewBox="0 0 460.8 345.6" xmlns="http://www.w3.org/2000/svg" version="1.1">
 <metadata>
  <rdf:RDF xmlns:dc="http://purl.org/dc/elements/1.1/" xmlns:cc="http://creativecommons.org/ns#" xmlns:rdf="http://www.w3.org/1999/02/22-rdf-syntax-ns#">
   <cc:Work>
    <dc:type rdf:resource="http://purl.org/dc/dcmitype/StillImage"/>
    <dc:date>2025-05-17T23:18:01.138775</dc:date>
    <dc:format>image/svg+xml</dc:format>
    <dc:creator>
     <cc:Agent>
      <dc:title>Matplotlib v3.10.1, https://matplotlib.org/</dc:title>
     </cc:Agent>
    </dc:creator>
   </cc:Work>
  </rdf:RDF>
 </metadata>
 <defs>
  <style type="text/css">*{stroke-linejoin: round; stroke-linecap: butt}</style>
 </defs>
 <g id="figure_1">
  <g id="patch_1">
   <path d="M 0 345.6 
L 460.8 345.6 
L 460.8 0 
L 0 0 
z
" style="fill: #ffffff"/>
  </g>
  <g id="axes_1">
   <g id="patch_2">
    <path d="M 48.008 302.2 
L 447.262273 302.2 
L 447.262273 26.88 
L 48.008 26.88 
z
" style="fill: #ffffff"/>
   </g>
   <g id="matplotlib.axis_1">
    <g id="xtick_1">
     <g id="line2d_1">
      <defs>
       <path id="m53de9daa62" d="M 0 0 
L 0 3.5 
" style="stroke: #000000; stroke-width: 0.8"/>
      </defs>
      <g>
       <use xlink:href="#m53de9daa62" x="48.008" y="302.2" style="stroke: #000000; stroke-width: 0.8"/>
      </g>
     </g>
     <g id="text_1">
      <!-- 0 -->
      <g transform="translate(44.82675 316.798437) scale(0.1 -0.1)">
       <defs>
        <path id="DejaVuSans-30" d="M 2034 4250 
Q 1547 4250 1301 3770 
Q 1056 3291 1056 2328 
Q 1056 1369 1301 889 
Q 1547 409 2034 409 
Q 2525 409 2770 889 
Q 3016 1369 3016 2328 
Q 3016 3291 2770 3770 
Q 2525 4250 2034 4250 
z
M 2034 4750 
Q 2819 4750 3233 4129 
Q 3647 3509 3647 2328 
Q 3647 1150 3233 529 
Q 2819 -91 2034 -91 
Q 1250 -91 836 529 
Q 422 1150 422 2328 
Q 422 3509 836 4129 
Q 1250 4750 2034 4750 
z
" transform="scale(0.015625)"/>
       </defs>
       <use xlink:href="#DejaVuSans-30"/>
      </g>
     </g>
    </g>
    <g id="xtick_2">
     <g id="line2d_2">
      <g>
       <use xlink:href="#m53de9daa62" x="97.410675" y="302.2" style="stroke: #000000; stroke-width: 0.8"/>
      </g>
     </g>
     <g id="text_2">
      <!-- 10 -->
      <g transform="translate(91.048175 316.798437) scale(0.1 -0.1)">
       <defs>
        <path id="DejaVuSans-31" d="M 794 531 
L 1825 531 
L 1825 4091 
L 703 3866 
L 703 4441 
L 1819 4666 
L 2450 4666 
L 2450 531 
L 3481 531 
L 3481 0 
L 794 0 
L 794 531 
z
" transform="scale(0.015625)"/>
       </defs>
       <use xlink:href="#DejaVuSans-31"/>
       <use xlink:href="#DejaVuSans-30" transform="translate(63.623047 0)"/>
      </g>
     </g>
    </g>
    <g id="xtick_3">
     <g id="line2d_3">
      <g>
       <use xlink:href="#m53de9daa62" x="146.81335" y="302.2" style="stroke: #000000; stroke-width: 0.8"/>
      </g>
     </g>
     <g id="text_3">
      <!-- 20 -->
      <g transform="translate(140.45085 316.798437) scale(0.1 -0.1)">
       <defs>
        <path id="DejaVuSans-32" d="M 1228 531 
L 3431 531 
L 3431 0 
L 469 0 
L 469 531 
Q 828 903 1448 1529 
Q 2069 2156 2228 2338 
Q 2531 2678 2651 2914 
Q 2772 3150 2772 3378 
Q 2772 3750 2511 3984 
Q 2250 4219 1831 4219 
Q 1534 4219 1204 4116 
Q 875 4013 500 3803 
L 500 4441 
Q 881 4594 1212 4672 
Q 1544 4750 1819 4750 
Q 2544 4750 2975 4387 
Q 3406 4025 3406 3419 
Q 3406 3131 3298 2873 
Q 3191 2616 2906 2266 
Q 2828 2175 2409 1742 
Q 1991 1309 1228 531 
z
" transform="scale(0.015625)"/>
       </defs>
       <use xlink:href="#DejaVuSans-32"/>
       <use xlink:href="#DejaVuSans-30" transform="translate(63.623047 0)"/>
      </g>
     </g>
    </g>
    <g id="xtick_4">
     <g id="line2d_4">
      <g>
       <use xlink:href="#m53de9daa62" x="196.216025" y="302.2" style="stroke: #000000; stroke-width: 0.8"/>
      </g>
     </g>
     <g id="text_4">
      <!-- 30 -->
      <g transform="translate(189.853525 316.798437) scale(0.1 -0.1)">
       <defs>
        <path id="DejaVuSans-33" d="M 2597 2516 
Q 3050 2419 3304 2112 
Q 3559 1806 3559 1356 
Q 3559 666 3084 287 
Q 2609 -91 1734 -91 
Q 1441 -91 1130 -33 
Q 819 25 488 141 
L 488 750 
Q 750 597 1062 519 
Q 1375 441 1716 441 
Q 2309 441 2620 675 
Q 2931 909 2931 1356 
Q 2931 1769 2642 2001 
Q 2353 2234 1838 2234 
L 1294 2234 
L 1294 2753 
L 1863 2753 
Q 2328 2753 2575 2939 
Q 2822 3125 2822 3475 
Q 2822 3834 2567 4026 
Q 2313 4219 1838 4219 
Q 1578 4219 1281 4162 
Q 984 4106 628 3988 
L 628 4550 
Q 988 4650 1302 4700 
Q 1616 4750 1894 4750 
Q 2613 4750 3031 4423 
Q 3450 4097 3450 3541 
Q 3450 3153 3228 2886 
Q 3006 2619 2597 2516 
z
" transform="scale(0.015625)"/>
       </defs>
       <use xlink:href="#DejaVuSans-33"/>
       <use xlink:href="#DejaVuSans-30" transform="translate(63.623047 0)"/>
      </g>
     </g>
    </g>
    <g id="xtick_5">
     <g id="line2d_5">
      <g>
       <use xlink:href="#m53de9daa62" x="245.618701" y="302.2" style="stroke: #000000; stroke-width: 0.8"/>
      </g>
     </g>
     <g id="text_5">
      <!-- 40 -->
      <g transform="translate(239.256201 316.798437) scale(0.1 -0.1)">
       <defs>
        <path id="DejaVuSans-34" d="M 2419 4116 
L 825 1625 
L 2419 1625 
L 2419 4116 
z
M 2253 4666 
L 3047 4666 
L 3047 1625 
L 3713 1625 
L 3713 1100 
L 3047 1100 
L 3047 0 
L 2419 0 
L 2419 1100 
L 313 1100 
L 313 1709 
L 2253 4666 
z
" transform="scale(0.015625)"/>
       </defs>
       <use xlink:href="#DejaVuSans-34"/>
       <use xlink:href="#DejaVuSans-30" transform="translate(63.623047 0)"/>
      </g>
     </g>
    </g>
    <g id="xtick_6">
     <g id="line2d_6">
      <g>
       <use xlink:href="#m53de9daa62" x="295.021376" y="302.2" style="stroke: #000000; stroke-width: 0.8"/>
      </g>
     </g>
     <g id="text_6">
      <!-- 50 -->
      <g transform="translate(288.658876 316.798437) scale(0.1 -0.1)">
       <defs>
        <path id="DejaVuSans-35" d="M 691 4666 
L 3169 4666 
L 3169 4134 
L 1269 4134 
L 1269 2991 
Q 1406 3038 1543 3061 
Q 1681 3084 1819 3084 
Q 2600 3084 3056 2656 
Q 3513 2228 3513 1497 
Q 3513 744 3044 326 
Q 2575 -91 1722 -91 
Q 1428 -91 1123 -41 
Q 819 9 494 109 
L 494 744 
Q 775 591 1075 516 
Q 1375 441 1709 441 
Q 2250 441 2565 725 
Q 2881 1009 2881 1497 
Q 2881 1984 2565 2268 
Q 2250 2553 1709 2553 
Q 1456 2553 1204 2497 
Q 953 2441 691 2322 
L 691 4666 
z
" transform="scale(0.015625)"/>
       </defs>
       <use xlink:href="#DejaVuSans-35"/>
       <use xlink:href="#DejaVuSans-30" transform="translate(63.623047 0)"/>
      </g>
     </g>
    </g>
    <g id="xtick_7">
     <g id="line2d_7">
      <g>
       <use xlink:href="#m53de9daa62" x="344.424051" y="302.2" style="stroke: #000000; stroke-width: 0.8"/>
      </g>
     </g>
     <g id="text_7">
      <!-- 60 -->
      <g transform="translate(338.061551 316.798437) scale(0.1 -0.1)">
       <defs>
        <path id="DejaVuSans-36" d="M 2113 2584 
Q 1688 2584 1439 2293 
Q 1191 2003 1191 1497 
Q 1191 994 1439 701 
Q 1688 409 2113 409 
Q 2538 409 2786 701 
Q 3034 994 3034 1497 
Q 3034 2003 2786 2293 
Q 2538 2584 2113 2584 
z
M 3366 4563 
L 3366 3988 
Q 3128 4100 2886 4159 
Q 2644 4219 2406 4219 
Q 1781 4219 1451 3797 
Q 1122 3375 1075 2522 
Q 1259 2794 1537 2939 
Q 1816 3084 2150 3084 
Q 2853 3084 3261 2657 
Q 3669 2231 3669 1497 
Q 3669 778 3244 343 
Q 2819 -91 2113 -91 
Q 1303 -91 875 529 
Q 447 1150 447 2328 
Q 447 3434 972 4092 
Q 1497 4750 2381 4750 
Q 2619 4750 2861 4703 
Q 3103 4656 3366 4563 
z
" transform="scale(0.015625)"/>
       </defs>
       <use xlink:href="#DejaVuSans-36"/>
       <use xlink:href="#DejaVuSans-30" transform="translate(63.623047 0)"/>
      </g>
     </g>
    </g>
    <g id="xtick_8">
     <g id="line2d_8">
      <g>
       <use xlink:href="#m53de9daa62" x="393.826726" y="302.2" style="stroke: #000000; stroke-width: 0.8"/>
      </g>
     </g>
     <g id="text_8">
      <!-- 70 -->
      <g transform="translate(387.464226 316.798437) scale(0.1 -0.1)">
       <defs>
        <path id="DejaVuSans-37" d="M 525 4666 
L 3525 4666 
L 3525 4397 
L 1831 0 
L 1172 0 
L 2766 4134 
L 525 4134 
L 525 4666 
z
" transform="scale(0.015625)"/>
       </defs>
       <use xlink:href="#DejaVuSans-37"/>
       <use xlink:href="#DejaVuSans-30" transform="translate(63.623047 0)"/>
      </g>
     </g>
    </g>
    <g id="xtick_9">
     <g id="line2d_9">
      <g>
       <use xlink:href="#m53de9daa62" x="443.229401" y="302.2" style="stroke: #000000; stroke-width: 0.8"/>
      </g>
     </g>
     <g id="text_9">
      <!-- 80 -->
      <g transform="translate(436.866901 316.798437) scale(0.1 -0.1)">
       <defs>
        <path id="DejaVuSans-38" d="M 2034 2216 
Q 1584 2216 1326 1975 
Q 1069 1734 1069 1313 
Q 1069 891 1326 650 
Q 1584 409 2034 409 
Q 2484 409 2743 651 
Q 3003 894 3003 1313 
Q 3003 1734 2745 1975 
Q 2488 2216 2034 2216 
z
M 1403 2484 
Q 997 2584 770 2862 
Q 544 3141 544 3541 
Q 544 4100 942 4425 
Q 1341 4750 2034 4750 
Q 2731 4750 3128 4425 
Q 3525 4100 3525 3541 
Q 3525 3141 3298 2862 
Q 3072 2584 2669 2484 
Q 3125 2378 3379 2068 
Q 3634 1759 3634 1313 
Q 3634 634 3220 271 
Q 2806 -91 2034 -91 
Q 1263 -91 848 271 
Q 434 634 434 1313 
Q 434 1759 690 2068 
Q 947 2378 1403 2484 
z
M 1172 3481 
Q 1172 3119 1398 2916 
Q 1625 2713 2034 2713 
Q 2441 2713 2670 2916 
Q 2900 3119 2900 3481 
Q 2900 3844 2670 4047 
Q 2441 4250 2034 4250 
Q 1625 4250 1398 4047 
Q 1172 3844 1172 3481 
z
" transform="scale(0.015625)"/>
       </defs>
       <use xlink:href="#DejaVuSans-38"/>
       <use xlink:href="#DejaVuSans-30" transform="translate(63.623047 0)"/>
      </g>
     </g>
    </g>
    <g id="text_10">
     <!-- $\theta$ (°) -->
     <g transform="translate(236.585136 330.476562) scale(0.1 -0.1)">
      <defs>
       <path id="DejaVuSans-Oblique-3b8" d="M 2913 2219 
L 925 2219 
Q 791 1284 928 888 
Q 1100 400 1566 400 
Q 2034 400 2391 891 
Q 2703 1322 2913 2219 
z
M 3009 2750 
Q 3094 3638 2984 3950 
Q 2813 4444 2353 4444 
Q 1875 4444 1525 3956 
Q 1250 3563 1034 2750 
L 3009 2750 
z
M 2444 4913 
Q 3194 4913 3494 4250 
Q 3794 3591 3566 2422 
Q 3341 1256 2781 594 
Q 2225 -72 1475 -72 
Q 722 -72 425 594 
Q 128 1256 353 2422 
Q 581 3591 1134 4250 
Q 1691 4913 2444 4913 
z
" transform="scale(0.015625)"/>
       <path id="DejaVuSans-20" transform="scale(0.015625)"/>
       <path id="DejaVuSans-28" d="M 1984 4856 
Q 1566 4138 1362 3434 
Q 1159 2731 1159 2009 
Q 1159 1288 1364 580 
Q 1569 -128 1984 -844 
L 1484 -844 
Q 1016 -109 783 600 
Q 550 1309 550 2009 
Q 550 2706 781 3412 
Q 1013 4119 1484 4856 
L 1984 4856 
z
" transform="scale(0.015625)"/>
       <path id="DejaVuSans-b0" d="M 1600 4347 
Q 1350 4347 1178 4173 
Q 1006 4000 1006 3750 
Q 1006 3503 1178 3333 
Q 1350 3163 1600 3163 
Q 1850 3163 2022 3333 
Q 2194 3503 2194 3750 
Q 2194 3997 2020 4172 
Q 1847 4347 1600 4347 
z
M 1600 4750 
Q 1800 4750 1984 4673 
Q 2169 4597 2303 4453 
Q 2447 4313 2519 4134 
Q 2591 3956 2591 3750 
Q 2591 3338 2302 3052 
Q 2013 2766 1594 2766 
Q 1172 2766 890 3047 
Q 609 3328 609 3750 
Q 609 4169 896 4459 
Q 1184 4750 1600 4750 
z
" transform="scale(0.015625)"/>
       <path id="DejaVuSans-29" d="M 513 4856 
L 1013 4856 
Q 1481 4119 1714 3412 
Q 1947 2706 1947 2009 
Q 1947 1309 1714 600 
Q 1481 -109 1013 -844 
L 513 -844 
Q 928 -128 1133 580 
Q 1338 1288 1338 2009 
Q 1338 2731 1133 3434 
Q 928 4138 513 4856 
z
" transform="scale(0.015625)"/>
      </defs>
      <use xlink:href="#DejaVuSans-Oblique-3b8" transform="translate(0 0.234375)"/>
      <use xlink:href="#DejaVuSans-20" transform="translate(61.181641 0.234375)"/>
      <use xlink:href="#DejaVuSans-28" transform="translate(92.96875 0.234375)"/>
      <use xlink:href="#DejaVuSans-b0" transform="translate(131.982422 0.234375)"/>
      <use xlink:href="#DejaVuSans-29" transform="translate(181.982422 0.234375)"/>
     </g>
    </g>
   </g>
   <g id="matplotlib.axis_2">
    <g id="ytick_1">
     <g id="line2d_10">
      <defs>
       <path id="mc16617d138" d="M 0 0 
L -3.5 0 
" style="stroke: #000000; stroke-width: 0.8"/>
      </defs>
      <g>
       <use xlink:href="#mc16617d138" x="48.008" y="298.069955" style="stroke: #000000; stroke-width: 0.8"/>
      </g>
     </g>
     <g id="text_11">
      <!-- 1.5 -->
      <g transform="translate(25.104875 301.869174) scale(0.1 -0.1)">
       <defs>
        <path id="DejaVuSans-2e" d="M 684 794 
L 1344 794 
L 1344 0 
L 684 0 
L 684 794 
z
" transform="scale(0.015625)"/>
       </defs>
       <use xlink:href="#DejaVuSans-31"/>
       <use xlink:href="#DejaVuSans-2e" transform="translate(63.623047 0)"/>
       <use xlink:href="#DejaVuSans-35" transform="translate(95.410156 0)"/>
      </g>
     </g>
    </g>
    <g id="ytick_2">
     <g id="line2d_11">
      <g>
       <use xlink:href="#mc16617d138" x="48.008" y="258.169981" style="stroke: #000000; stroke-width: 0.8"/>
      </g>
     </g>
     <g id="text_12">
      <!-- 2.0 -->
      <g transform="translate(25.104875 261.969199) scale(0.1 -0.1)">
       <use xlink:href="#DejaVuSans-32"/>
       <use xlink:href="#DejaVuSans-2e" transform="translate(63.623047 0)"/>
       <use xlink:href="#DejaVuSans-30" transform="translate(95.410156 0)"/>
      </g>
     </g>
    </g>
    <g id="ytick_3">
     <g id="line2d_12">
      <g>
       <use xlink:href="#mc16617d138" x="48.008" y="218.270006" style="stroke: #000000; stroke-width: 0.8"/>
      </g>
     </g>
     <g id="text_13">
      <!-- 2.5 -->
      <g transform="translate(25.104875 222.069225) scale(0.1 -0.1)">
       <use xlink:href="#DejaVuSans-32"/>
       <use xlink:href="#DejaVuSans-2e" transform="translate(63.623047 0)"/>
       <use xlink:href="#DejaVuSans-35" transform="translate(95.410156 0)"/>
      </g>
     </g>
    </g>
    <g id="ytick_4">
     <g id="line2d_13">
      <g>
       <use xlink:href="#mc16617d138" x="48.008" y="178.370031" style="stroke: #000000; stroke-width: 0.8"/>
      </g>
     </g>
     <g id="text_14">
      <!-- 3.0 -->
      <g transform="translate(25.104875 182.16925) scale(0.1 -0.1)">
       <use xlink:href="#DejaVuSans-33"/>
       <use xlink:href="#DejaVuSans-2e" transform="translate(63.623047 0)"/>
       <use xlink:href="#DejaVuSans-30" transform="translate(95.410156 0)"/>
      </g>
     </g>
    </g>
    <g id="ytick_5">
     <g id="line2d_14">
      <g>
       <use xlink:href="#mc16617d138" x="48.008" y="138.470057" style="stroke: #000000; stroke-width: 0.8"/>
      </g>
     </g>
     <g id="text_15">
      <!-- 3.5 -->
      <g transform="translate(25.104875 142.269275) scale(0.1 -0.1)">
       <use xlink:href="#DejaVuSans-33"/>
       <use xlink:href="#DejaVuSans-2e" transform="translate(63.623047 0)"/>
       <use xlink:href="#DejaVuSans-35" transform="translate(95.410156 0)"/>
      </g>
     </g>
    </g>
    <g id="ytick_6">
     <g id="line2d_15">
      <g>
       <use xlink:href="#mc16617d138" x="48.008" y="98.570082" style="stroke: #000000; stroke-width: 0.8"/>
      </g>
     </g>
     <g id="text_16">
      <!-- 4.0 -->
      <g transform="translate(25.104875 102.369301) scale(0.1 -0.1)">
       <use xlink:href="#DejaVuSans-34"/>
       <use xlink:href="#DejaVuSans-2e" transform="translate(63.623047 0)"/>
       <use xlink:href="#DejaVuSans-30" transform="translate(95.410156 0)"/>
      </g>
     </g>
    </g>
    <g id="ytick_7">
     <g id="line2d_16">
      <g>
       <use xlink:href="#mc16617d138" x="48.008" y="58.670107" style="stroke: #000000; stroke-width: 0.8"/>
      </g>
     </g>
     <g id="text_17">
      <!-- 4.5 -->
      <g transform="translate(25.104875 62.469326) scale(0.1 -0.1)">
       <use xlink:href="#DejaVuSans-34"/>
       <use xlink:href="#DejaVuSans-2e" transform="translate(63.623047 0)"/>
       <use xlink:href="#DejaVuSans-35" transform="translate(95.410156 0)"/>
      </g>
     </g>
    </g>
    <g id="text_18">
     <!-- $v_0$ -->
     <g transform="translate(19.025188 169.89) rotate(-90) scale(0.1 -0.1)">
      <defs>
       <path id="DejaVuSans-Oblique-76" d="M 459 3500 
L 1069 3500 
L 1581 525 
L 3256 3500 
L 3866 3500 
L 1875 0 
L 1100 0 
L 459 3500 
z
" transform="scale(0.015625)"/>
      </defs>
      <use xlink:href="#DejaVuSans-Oblique-76" transform="translate(0 0.3125)"/>
      <use xlink:href="#DejaVuSans-30" transform="translate(59.179688 -16.09375) scale(0.7)"/>
     </g>
    </g>
   </g>
   <g id="line2d_17">
    <defs>
     <path id="m7476375775" d="M 0 1.5 
C 0.397805 1.5 0.77937 1.341951 1.06066 1.06066 
C 1.341951 0.77937 1.5 0.397805 1.5 0 
C 1.5 -0.397805 1.341951 -0.77937 1.06066 -1.06066 
C 0.77937 -1.341951 0.397805 -1.5 0 -1.5 
C -0.397805 -1.5 -0.77937 -1.341951 -1.06066 -1.06066 
C -1.341951 -0.77937 -1.5 -0.397805 -1.5 0 
C -1.5 0.397805 -1.341951 0.77937 -1.06066 1.06066 
C -0.77937 1.341951 -0.397805 1.5 0 1.5 
z
" style="stroke: #1f77b4"/>
    </defs>
    <g clip-path="url(#pfd97a6cd90)">
     <use xlink:href="#m7476375775" x="66.155921" y="87.036927" style="fill: #1f77b4; stroke: #1f77b4"/>
     <use xlink:href="#m7476375775" x="75.229882" y="147.106979" style="fill: #1f77b4; stroke: #1f77b4"/>
     <use xlink:href="#m7476375775" x="84.303843" y="182.61216" style="fill: #1f77b4; stroke: #1f77b4"/>
     <use xlink:href="#m7476375775" x="93.377804" y="206.561431" style="fill: #1f77b4; stroke: #1f77b4"/>
     <use xlink:href="#m7476375775" x="102.451764" y="223.975696" style="fill: #1f77b4; stroke: #1f77b4"/>
     <use xlink:href="#m7476375775" x="111.525725" y="237.257508" style="fill: #1f77b4; stroke: #1f77b4"/>
     <use xlink:href="#m7476375775" x="120.599686" y="247.71903" style="fill: #1f77b4; stroke: #1f77b4"/>
     <use xlink:href="#m7476375775" x="129.673647" y="256.144941" style="fill: #1f77b4; stroke: #1f77b4"/>
     <use xlink:href="#m7476375775" x="138.747607" y="263.036062" style="fill: #1f77b4; stroke: #1f77b4"/>
     <use xlink:href="#m7476375775" x="147.821568" y="268.728105" style="fill: #1f77b4; stroke: #1f77b4"/>
     <use xlink:href="#m7476375775" x="156.895529" y="273.454734" style="fill: #1f77b4; stroke: #1f77b4"/>
     <use xlink:href="#m7476375775" x="165.96949" y="277.383117" style="fill: #1f77b4; stroke: #1f77b4"/>
     <use xlink:href="#m7476375775" x="175.04345" y="280.635278" style="fill: #1f77b4; stroke: #1f77b4"/>
     <use xlink:href="#m7476375775" x="184.117411" y="283.301486" style="fill: #1f77b4; stroke: #1f77b4"/>
     <use xlink:href="#m7476375775" x="193.191372" y="285.448702" style="fill: #1f77b4; stroke: #1f77b4"/>
     <use xlink:href="#m7476375775" x="202.265333" y="287.126247" style="fill: #1f77b4; stroke: #1f77b4"/>
     <use xlink:href="#m7476375775" x="211.339293" y="288.369564" style="fill: #1f77b4; stroke: #1f77b4"/>
     <use xlink:href="#m7476375775" x="220.413254" y="289.202609" style="fill: #1f77b4; stroke: #1f77b4"/>
     <use xlink:href="#m7476375775" x="229.487215" y="289.639533" style="fill: #1f77b4; stroke: #1f77b4"/>
     <use xlink:href="#m7476375775" x="238.561176" y="289.685455" style="fill: #1f77b4; stroke: #1f77b4"/>
     <use xlink:href="#m7476375775" x="247.635136" y="289.336803" style="fill: #1f77b4; stroke: #1f77b4"/>
     <use xlink:href="#m7476375775" x="256.709097" y="288.581052" style="fill: #1f77b4; stroke: #1f77b4"/>
     <use xlink:href="#m7476375775" x="265.783058" y="287.395968" style="fill: #1f77b4; stroke: #1f77b4"/>
     <use xlink:href="#m7476375775" x="274.857019" y="285.748117" style="fill: #1f77b4; stroke: #1f77b4"/>
     <use xlink:href="#m7476375775" x="283.930979" y="283.590648" style="fill: #1f77b4; stroke: #1f77b4"/>
     <use xlink:href="#m7476375775" x="293.00494" y="280.859864" style="fill: #1f77b4; stroke: #1f77b4"/>
     <use xlink:href="#m7476375775" x="302.078901" y="277.470319" style="fill: #1f77b4; stroke: #1f77b4"/>
     <use xlink:href="#m7476375775" x="311.152862" y="273.307455" style="fill: #1f77b4; stroke: #1f77b4"/>
     <use xlink:href="#m7476375775" x="320.226822" y="268.216734" style="fill: #1f77b4; stroke: #1f77b4"/>
     <use xlink:href="#m7476375775" x="329.300783" y="261.987021" style="fill: #1f77b4; stroke: #1f77b4"/>
     <use xlink:href="#m7476375775" x="338.374744" y="254.324721" style="fill: #1f77b4; stroke: #1f77b4"/>
     <use xlink:href="#m7476375775" x="347.448705" y="244.812095" style="fill: #1f77b4; stroke: #1f77b4"/>
     <use xlink:href="#m7476375775" x="356.522665" y="232.837746" style="fill: #1f77b4; stroke: #1f77b4"/>
     <use xlink:href="#m7476375775" x="365.596626" y="217.475665" style="fill: #1f77b4; stroke: #1f77b4"/>
     <use xlink:href="#m7476375775" x="374.670587" y="197.264129" style="fill: #1f77b4; stroke: #1f77b4"/>
     <use xlink:href="#m7476375775" x="383.744548" y="169.777627" style="fill: #1f77b4; stroke: #1f77b4"/>
     <use xlink:href="#m7476375775" x="392.818508" y="130.739653" style="fill: #1f77b4; stroke: #1f77b4"/>
     <use xlink:href="#m7476375775" x="401.892469" y="72.02916" style="fill: #1f77b4; stroke: #1f77b4"/>
    </g>
   </g>
   <g id="line2d_18">
    <defs>
     <path id="m4a005530d2" d="M 0 1.5 
C 0.397805 1.5 0.77937 1.341951 1.06066 1.06066 
C 1.341951 0.77937 1.5 0.397805 1.5 0 
C 1.5 -0.397805 1.341951 -0.77937 1.06066 -1.06066 
C 0.77937 -1.341951 0.397805 -1.5 0 -1.5 
C -0.397805 -1.5 -0.77937 -1.341951 -1.06066 -1.06066 
C -1.341951 -0.77937 -1.5 -0.397805 -1.5 0 
C -1.5 0.397805 -1.341951 0.77937 -1.06066 1.06066 
C -0.77937 1.341951 -0.397805 1.5 0 1.5 
z
" style="stroke: #ff7f0e"/>
    </defs>
    <g clip-path="url(#pfd97a6cd90)">
     <use xlink:href="#m4a005530d2" x="138.747607" y="74.294505" style="fill: #ff7f0e; stroke: #ff7f0e"/>
     <use xlink:href="#m4a005530d2" x="147.821568" y="139.032852" style="fill: #ff7f0e; stroke: #ff7f0e"/>
     <use xlink:href="#m4a005530d2" x="156.895529" y="175.750172" style="fill: #ff7f0e; stroke: #ff7f0e"/>
     <use xlink:href="#m4a005530d2" x="165.96949" y="199.850199" style="fill: #ff7f0e; stroke: #ff7f0e"/>
     <use xlink:href="#m4a005530d2" x="175.04345" y="216.977291" style="fill: #ff7f0e; stroke: #ff7f0e"/>
     <use xlink:href="#m4a005530d2" x="184.117411" y="229.75001" style="fill: #ff7f0e; stroke: #ff7f0e"/>
     <use xlink:href="#m4a005530d2" x="193.191372" y="239.56716" style="fill: #ff7f0e; stroke: #ff7f0e"/>
     <use xlink:href="#m4a005530d2" x="202.265333" y="247.249549" style="fill: #ff7f0e; stroke: #ff7f0e"/>
     <use xlink:href="#m4a005530d2" x="211.339293" y="253.311393" style="fill: #ff7f0e; stroke: #ff7f0e"/>
     <use xlink:href="#m4a005530d2" x="220.413254" y="258.090042" style="fill: #ff7f0e; stroke: #ff7f0e"/>
     <use xlink:href="#m4a005530d2" x="229.487215" y="261.813399" style="fill: #ff7f0e; stroke: #ff7f0e"/>
     <use xlink:href="#m4a005530d2" x="238.561176" y="264.637624" style="fill: #ff7f0e; stroke: #ff7f0e"/>
     <use xlink:href="#m4a005530d2" x="247.635136" y="266.66909" style="fill: #ff7f0e; stroke: #ff7f0e"/>
     <use xlink:href="#m4a005530d2" x="256.709097" y="267.977468" style="fill: #ff7f0e; stroke: #ff7f0e"/>
     <use xlink:href="#m4a005530d2" x="265.783058" y="268.603548" style="fill: #ff7f0e; stroke: #ff7f0e"/>
     <use xlink:href="#m4a005530d2" x="274.857019" y="268.563493" style="fill: #ff7f0e; stroke: #ff7f0e"/>
     <use xlink:href="#m4a005530d2" x="283.930979" y="267.850644" style="fill: #ff7f0e; stroke: #ff7f0e"/>
     <use xlink:href="#m4a005530d2" x="293.00494" y="266.43505" style="fill: #ff7f0e; stroke: #ff7f0e"/>
     <use xlink:href="#m4a005530d2" x="302.078901" y="264.260851" style="fill: #ff7f0e; stroke: #ff7f0e"/>
     <use xlink:href="#m4a005530d2" x="311.152862" y="261.241081" style="fill: #ff7f0e; stroke: #ff7f0e"/>
     <use xlink:href="#m4a005530d2" x="320.226822" y="257.248893" style="fill: #ff7f0e; stroke: #ff7f0e"/>
     <use xlink:href="#m4a005530d2" x="329.300783" y="252.103487" style="fill: #ff7f0e; stroke: #ff7f0e"/>
     <use xlink:href="#m4a005530d2" x="338.374744" y="245.547842" style="fill: #ff7f0e; stroke: #ff7f0e"/>
     <use xlink:href="#m4a005530d2" x="347.448705" y="237.212542" style="fill: #ff7f0e; stroke: #ff7f0e"/>
     <use xlink:href="#m4a005530d2" x="356.522665" y="226.555695" style="fill: #ff7f0e; stroke: #ff7f0e"/>
     <use xlink:href="#m4a005530d2" x="365.596626" y="212.758905" style="fill: #ff7f0e; stroke: #ff7f0e"/>
     <use xlink:href="#m4a005530d2" x="374.670587" y="194.538936" style="fill: #ff7f0e; stroke: #ff7f0e"/>
     <use xlink:href="#m4a005530d2" x="383.744548" y="169.786576" style="fill: #ff7f0e; stroke: #ff7f0e"/>
     <use xlink:href="#m4a005530d2" x="392.818508" y="134.826507" style="fill: #ff7f0e; stroke: #ff7f0e"/>
     <use xlink:href="#m4a005530d2" x="401.892469" y="82.77298" style="fill: #ff7f0e; stroke: #ff7f0e"/>
    </g>
   </g>
   <g id="line2d_19">
    <defs>
     <path id="m79f784bd0d" d="M 0 1.5 
C 0.397805 1.5 0.77937 1.341951 1.06066 1.06066 
C 1.341951 0.77937 1.5 0.397805 1.5 0 
C 1.5 -0.397805 1.341951 -0.77937 1.06066 -1.06066 
C 0.77937 -1.341951 0.397805 -1.5 0 -1.5 
C -0.397805 -1.5 -0.77937 -1.341951 -1.06066 -1.06066 
C -1.341951 -0.77937 -1.5 -0.397805 -1.5 0 
C -1.5 0.397805 -1.341951 0.77937 -1.06066 1.06066 
C -0.77937 1.341951 -0.397805 1.5 0 1.5 
z
" style="stroke: #2ca02c"/>
    </defs>
    <g clip-path="url(#pfd97a6cd90)">
     <use xlink:href="#m79f784bd0d" x="211.339293" y="72.751147" style="fill: #2ca02c; stroke: #2ca02c"/>
     <use xlink:href="#m79f784bd0d" x="220.413254" y="140.396306" style="fill: #2ca02c; stroke: #2ca02c"/>
     <use xlink:href="#m79f784bd0d" x="229.487215" y="176.866895" style="fill: #2ca02c; stroke: #2ca02c"/>
     <use xlink:href="#m79f784bd0d" x="238.561176" y="199.951696" style="fill: #2ca02c; stroke: #2ca02c"/>
     <use xlink:href="#m79f784bd0d" x="247.635136" y="215.795416" style="fill: #2ca02c; stroke: #2ca02c"/>
     <use xlink:href="#m79f784bd0d" x="256.709097" y="227.147894" style="fill: #2ca02c; stroke: #2ca02c"/>
     <use xlink:href="#m79f784bd0d" x="265.783058" y="235.436143" style="fill: #2ca02c; stroke: #2ca02c"/>
     <use xlink:href="#m79f784bd0d" x="274.857019" y="241.471754" style="fill: #2ca02c; stroke: #2ca02c"/>
     <use xlink:href="#m79f784bd0d" x="283.930979" y="245.741588" style="fill: #2ca02c; stroke: #2ca02c"/>
     <use xlink:href="#m79f784bd0d" x="293.00494" y="248.542698" style="fill: #2ca02c; stroke: #2ca02c"/>
     <use xlink:href="#m79f784bd0d" x="302.078901" y="250.049824" style="fill: #2ca02c; stroke: #2ca02c"/>
     <use xlink:href="#m79f784bd0d" x="311.152862" y="250.349985" style="fill: #2ca02c; stroke: #2ca02c"/>
     <use xlink:href="#m79f784bd0d" x="320.226822" y="249.458662" style="fill: #2ca02c; stroke: #2ca02c"/>
     <use xlink:href="#m79f784bd0d" x="329.300783" y="247.323842" style="fill: #2ca02c; stroke: #2ca02c"/>
     <use xlink:href="#m79f784bd0d" x="338.374744" y="243.819612" style="fill: #2ca02c; stroke: #2ca02c"/>
     <use xlink:href="#m79f784bd0d" x="347.448705" y="238.727833" style="fill: #2ca02c; stroke: #2ca02c"/>
     <use xlink:href="#m79f784bd0d" x="356.522665" y="231.702897" style="fill: #2ca02c; stroke: #2ca02c"/>
     <use xlink:href="#m79f784bd0d" x="365.596626" y="222.208107" style="fill: #2ca02c; stroke: #2ca02c"/>
     <use xlink:href="#m79f784bd0d" x="374.670587" y="209.400705" style="fill: #2ca02c; stroke: #2ca02c"/>
     <use xlink:href="#m79f784bd0d" x="383.744548" y="191.915223" style="fill: #2ca02c; stroke: #2ca02c"/>
     <use xlink:href="#m79f784bd0d" x="392.818508" y="167.431425" style="fill: #2ca02c; stroke: #2ca02c"/>
     <use xlink:href="#m79f784bd0d" x="401.892469" y="131.744699" style="fill: #2ca02c; stroke: #2ca02c"/>
     <use xlink:href="#m79f784bd0d" x="410.96643" y="76.56833" style="fill: #2ca02c; stroke: #2ca02c"/>
    </g>
   </g>
   <g id="line2d_20">
    <defs>
     <path id="mf419d7f324" d="M 0 1.5 
C 0.397805 1.5 0.77937 1.341951 1.06066 1.06066 
C 1.341951 0.77937 1.5 0.397805 1.5 0 
C 1.5 -0.397805 1.341951 -0.77937 1.06066 -1.06066 
C 0.77937 -1.341951 0.397805 -1.5 0 -1.5 
C -0.397805 -1.5 -0.77937 -1.341951 -1.06066 -1.06066 
C -1.341951 -0.77937 -1.5 -0.397805 -1.5 0 
C -1.5 0.397805 -1.341951 0.77937 -1.06066 1.06066 
C -0.77937 1.341951 -0.397805 1.5 0 1.5 
z
" style="stroke: #d62728"/>
    </defs>
    <g clip-path="url(#pfd97a6cd90)">
     <use xlink:href="#mf419d7f324" x="293.00494" y="152.366302" style="fill: #d62728; stroke: #d62728"/>
     <use xlink:href="#mf419d7f324" x="302.078901" y="186.426336" style="fill: #d62728; stroke: #d62728"/>
     <use xlink:href="#mf419d7f324" x="311.152862" y="206.743646" style="fill: #d62728; stroke: #d62728"/>
     <use xlink:href="#mf419d7f324" x="320.226822" y="219.703616" style="fill: #d62728; stroke: #d62728"/>
     <use xlink:href="#mf419d7f324" x="329.300783" y="228.019307" style="fill: #d62728; stroke: #d62728"/>
     <use xlink:href="#mf419d7f324" x="338.374744" y="233.009394" style="fill: #d62728; stroke: #d62728"/>
     <use xlink:href="#mf419d7f324" x="347.448705" y="235.335421" style="fill: #d62728; stroke: #d62728"/>
     <use xlink:href="#mf419d7f324" x="356.522665" y="235.282965" style="fill: #d62728; stroke: #d62728"/>
     <use xlink:href="#mf419d7f324" x="365.596626" y="232.868301" style="fill: #d62728; stroke: #d62728"/>
     <use xlink:href="#mf419d7f324" x="374.670587" y="227.854584" style="fill: #d62728; stroke: #d62728"/>
     <use xlink:href="#mf419d7f324" x="383.744548" y="219.694126" style="fill: #d62728; stroke: #d62728"/>
     <use xlink:href="#mf419d7f324" x="392.818508" y="207.369032" style="fill: #d62728; stroke: #d62728"/>
     <use xlink:href="#mf419d7f324" x="401.892469" y="189.036605" style="fill: #d62728; stroke: #d62728"/>
     <use xlink:href="#mf419d7f324" x="410.96643" y="161.223928" style="fill: #d62728; stroke: #d62728"/>
     <use xlink:href="#mf419d7f324" x="420.04039" y="116.824944" style="fill: #d62728; stroke: #d62728"/>
     <use xlink:href="#mf419d7f324" x="429.114351" y="39.394545" style="fill: #d62728; stroke: #d62728"/>
    </g>
   </g>
   <g id="patch_3">
    <path d="M 48.008 302.2 
L 48.008 26.88 
" style="fill: none; stroke: #000000; stroke-width: 0.8; stroke-linejoin: miter; stroke-linecap: square"/>
   </g>
   <g id="patch_4">
    <path d="M 447.262273 302.2 
L 447.262273 26.88 
" style="fill: none; stroke: #000000; stroke-width: 0.8; stroke-linejoin: miter; stroke-linecap: square"/>
   </g>
   <g id="patch_5">
    <path d="M 48.008 302.2 
L 447.262273 302.2 
" style="fill: none; stroke: #000000; stroke-width: 0.8; stroke-linejoin: miter; stroke-linecap: square"/>
   </g>
   <g id="patch_6">
    <path d="M 48.008 26.88 
L 447.262273 26.88 
" style="fill: none; stroke: #000000; stroke-width: 0.8; stroke-linejoin: miter; stroke-linecap: square"/>
   </g>
   <g id="text_19">
    <!-- Target Distance = 1.0 -->
    <g transform="translate(182.543574 20.88) scale(0.12 -0.12)">
     <defs>
      <path id="DejaVuSans-54" d="M -19 4666 
L 3928 4666 
L 3928 4134 
L 2272 4134 
L 2272 0 
L 1638 0 
L 1638 4134 
L -19 4134 
L -19 4666 
z
" transform="scale(0.015625)"/>
      <path id="DejaVuSans-61" d="M 2194 1759 
Q 1497 1759 1228 1600 
Q 959 1441 959 1056 
Q 959 750 1161 570 
Q 1363 391 1709 391 
Q 2188 391 2477 730 
Q 2766 1069 2766 1631 
L 2766 1759 
L 2194 1759 
z
M 3341 1997 
L 3341 0 
L 2766 0 
L 2766 531 
Q 2569 213 2275 61 
Q 1981 -91 1556 -91 
Q 1019 -91 701 211 
Q 384 513 384 1019 
Q 384 1609 779 1909 
Q 1175 2209 1959 2209 
L 2766 2209 
L 2766 2266 
Q 2766 2663 2505 2880 
Q 2244 3097 1772 3097 
Q 1472 3097 1187 3025 
Q 903 2953 641 2809 
L 641 3341 
Q 956 3463 1253 3523 
Q 1550 3584 1831 3584 
Q 2591 3584 2966 3190 
Q 3341 2797 3341 1997 
z
" transform="scale(0.015625)"/>
      <path id="DejaVuSans-72" d="M 2631 2963 
Q 2534 3019 2420 3045 
Q 2306 3072 2169 3072 
Q 1681 3072 1420 2755 
Q 1159 2438 1159 1844 
L 1159 0 
L 581 0 
L 581 3500 
L 1159 3500 
L 1159 2956 
Q 1341 3275 1631 3429 
Q 1922 3584 2338 3584 
Q 2397 3584 2469 3576 
Q 2541 3569 2628 3553 
L 2631 2963 
z
" transform="scale(0.015625)"/>
      <path id="DejaVuSans-67" d="M 2906 1791 
Q 2906 2416 2648 2759 
Q 2391 3103 1925 3103 
Q 1463 3103 1205 2759 
Q 947 2416 947 1791 
Q 947 1169 1205 825 
Q 1463 481 1925 481 
Q 2391 481 2648 825 
Q 2906 1169 2906 1791 
z
M 3481 434 
Q 3481 -459 3084 -895 
Q 2688 -1331 1869 -1331 
Q 1566 -1331 1297 -1286 
Q 1028 -1241 775 -1147 
L 775 -588 
Q 1028 -725 1275 -790 
Q 1522 -856 1778 -856 
Q 2344 -856 2625 -561 
Q 2906 -266 2906 331 
L 2906 616 
Q 2728 306 2450 153 
Q 2172 0 1784 0 
Q 1141 0 747 490 
Q 353 981 353 1791 
Q 353 2603 747 3093 
Q 1141 3584 1784 3584 
Q 2172 3584 2450 3431 
Q 2728 3278 2906 2969 
L 2906 3500 
L 3481 3500 
L 3481 434 
z
" transform="scale(0.015625)"/>
      <path id="DejaVuSans-65" d="M 3597 1894 
L 3597 1613 
L 953 1613 
Q 991 1019 1311 708 
Q 1631 397 2203 397 
Q 2534 397 2845 478 
Q 3156 559 3463 722 
L 3463 178 
Q 3153 47 2828 -22 
Q 2503 -91 2169 -91 
Q 1331 -91 842 396 
Q 353 884 353 1716 
Q 353 2575 817 3079 
Q 1281 3584 2069 3584 
Q 2775 3584 3186 3129 
Q 3597 2675 3597 1894 
z
M 3022 2063 
Q 3016 2534 2758 2815 
Q 2500 3097 2075 3097 
Q 1594 3097 1305 2825 
Q 1016 2553 972 2059 
L 3022 2063 
z
" transform="scale(0.015625)"/>
      <path id="DejaVuSans-74" d="M 1172 4494 
L 1172 3500 
L 2356 3500 
L 2356 3053 
L 1172 3053 
L 1172 1153 
Q 1172 725 1289 603 
Q 1406 481 1766 481 
L 2356 481 
L 2356 0 
L 1766 0 
Q 1100 0 847 248 
Q 594 497 594 1153 
L 594 3053 
L 172 3053 
L 172 3500 
L 594 3500 
L 594 4494 
L 1172 4494 
z
" transform="scale(0.015625)"/>
      <path id="DejaVuSans-44" d="M 1259 4147 
L 1259 519 
L 2022 519 
Q 2988 519 3436 956 
Q 3884 1394 3884 2338 
Q 3884 3275 3436 3711 
Q 2988 4147 2022 4147 
L 1259 4147 
z
M 628 4666 
L 1925 4666 
Q 3281 4666 3915 4102 
Q 4550 3538 4550 2338 
Q 4550 1131 3912 565 
Q 3275 0 1925 0 
L 628 0 
L 628 4666 
z
" transform="scale(0.015625)"/>
      <path id="DejaVuSans-69" d="M 603 3500 
L 1178 3500 
L 1178 0 
L 603 0 
L 603 3500 
z
M 603 4863 
L 1178 4863 
L 1178 4134 
L 603 4134 
L 603 4863 
z
" transform="scale(0.015625)"/>
      <path id="DejaVuSans-73" d="M 2834 3397 
L 2834 2853 
Q 2591 2978 2328 3040 
Q 2066 3103 1784 3103 
Q 1356 3103 1142 2972 
Q 928 2841 928 2578 
Q 928 2378 1081 2264 
Q 1234 2150 1697 2047 
L 1894 2003 
Q 2506 1872 2764 1633 
Q 3022 1394 3022 966 
Q 3022 478 2636 193 
Q 2250 -91 1575 -91 
Q 1294 -91 989 -36 
Q 684 19 347 128 
L 347 722 
Q 666 556 975 473 
Q 1284 391 1588 391 
Q 1994 391 2212 530 
Q 2431 669 2431 922 
Q 2431 1156 2273 1281 
Q 2116 1406 1581 1522 
L 1381 1569 
Q 847 1681 609 1914 
Q 372 2147 372 2553 
Q 372 3047 722 3315 
Q 1072 3584 1716 3584 
Q 2034 3584 2315 3537 
Q 2597 3491 2834 3397 
z
" transform="scale(0.015625)"/>
      <path id="DejaVuSans-6e" d="M 3513 2113 
L 3513 0 
L 2938 0 
L 2938 2094 
Q 2938 2591 2744 2837 
Q 2550 3084 2163 3084 
Q 1697 3084 1428 2787 
Q 1159 2491 1159 1978 
L 1159 0 
L 581 0 
L 581 3500 
L 1159 3500 
L 1159 2956 
Q 1366 3272 1645 3428 
Q 1925 3584 2291 3584 
Q 2894 3584 3203 3211 
Q 3513 2838 3513 2113 
z
" transform="scale(0.015625)"/>
      <path id="DejaVuSans-63" d="M 3122 3366 
L 3122 2828 
Q 2878 2963 2633 3030 
Q 2388 3097 2138 3097 
Q 1578 3097 1268 2742 
Q 959 2388 959 1747 
Q 959 1106 1268 751 
Q 1578 397 2138 397 
Q 2388 397 2633 464 
Q 2878 531 3122 666 
L 3122 134 
Q 2881 22 2623 -34 
Q 2366 -91 2075 -91 
Q 1284 -91 818 406 
Q 353 903 353 1747 
Q 353 2603 823 3093 
Q 1294 3584 2113 3584 
Q 2378 3584 2631 3529 
Q 2884 3475 3122 3366 
z
" transform="scale(0.015625)"/>
      <path id="DejaVuSans-3d" d="M 678 2906 
L 4684 2906 
L 4684 2381 
L 678 2381 
L 678 2906 
z
M 678 1631 
L 4684 1631 
L 4684 1100 
L 678 1100 
L 678 1631 
z
" transform="scale(0.015625)"/>
     </defs>
     <use xlink:href="#DejaVuSans-54"/>
     <use xlink:href="#DejaVuSans-61" transform="translate(44.583984 0)"/>
     <use xlink:href="#DejaVuSans-72" transform="translate(105.863281 0)"/>
     <use xlink:href="#DejaVuSans-67" transform="translate(145.226562 0)"/>
     <use xlink:href="#DejaVuSans-65" transform="translate(208.703125 0)"/>
     <use xlink:href="#DejaVuSans-74" transform="translate(270.226562 0)"/>
     <use xlink:href="#DejaVuSans-20" transform="translate(309.435547 0)"/>
     <use xlink:href="#DejaVuSans-44" transform="translate(341.222656 0)"/>
     <use xlink:href="#DejaVuSans-69" transform="translate(418.224609 0)"/>
     <use xlink:href="#DejaVuSans-73" transform="translate(446.007812 0)"/>
     <use xlink:href="#DejaVuSans-74" transform="translate(498.107422 0)"/>
     <use xlink:href="#DejaVuSans-61" transform="translate(537.316406 0)"/>
     <use xlink:href="#DejaVuSans-6e" transform="translate(598.595703 0)"/>
     <use xlink:href="#DejaVuSans-63" transform="translate(661.974609 0)"/>
     <use xlink:href="#DejaVuSans-65" transform="translate(716.955078 0)"/>
     <use xlink:href="#DejaVuSans-20" transform="translate(778.478516 0)"/>
     <use xlink:href="#DejaVuSans-3d" transform="translate(810.265625 0)"/>
     <use xlink:href="#DejaVuSans-20" transform="translate(894.054688 0)"/>
     <use xlink:href="#DejaVuSans-31" transform="translate(925.841797 0)"/>
     <use xlink:href="#DejaVuSans-2e" transform="translate(989.464844 0)"/>
     <use xlink:href="#DejaVuSans-30" transform="translate(1021.251953 0)"/>
    </g>
   </g>
  </g>
  <g id="legend_1">
   <g id="patch_7">
    <path d="M 371.239062 81.390625 
L 453.8 81.390625 
Q 455.8 81.390625 455.8 79.390625 
L 455.8 7 
Q 455.8 5 453.8 5 
L 371.239062 5 
Q 369.239062 5 369.239062 7 
L 369.239062 79.390625 
Q 369.239062 81.390625 371.239062 81.390625 
z
" style="fill: #ffffff; opacity: 0.8; stroke: #cccccc; stroke-linejoin: miter"/>
   </g>
   <g id="text_20">
    <!-- Target Angle (°) -->
    <g transform="translate(373.239062 16.598437) scale(0.1 -0.1)">
     <defs>
      <path id="DejaVuSans-41" d="M 2188 4044 
L 1331 1722 
L 3047 1722 
L 2188 4044 
z
M 1831 4666 
L 2547 4666 
L 4325 0 
L 3669 0 
L 3244 1197 
L 1141 1197 
L 716 0 
L 50 0 
L 1831 4666 
z
" transform="scale(0.015625)"/>
      <path id="DejaVuSans-6c" d="M 603 4863 
L 1178 4863 
L 1178 0 
L 603 0 
L 603 4863 
z
" transform="scale(0.015625)"/>
     </defs>
     <use xlink:href="#DejaVuSans-54"/>
     <use xlink:href="#DejaVuSans-61" transform="translate(44.583984 0)"/>
     <use xlink:href="#DejaVuSans-72" transform="translate(105.863281 0)"/>
     <use xlink:href="#DejaVuSans-67" transform="translate(145.226562 0)"/>
     <use xlink:href="#DejaVuSans-65" transform="translate(208.703125 0)"/>
     <use xlink:href="#DejaVuSans-74" transform="translate(270.226562 0)"/>
     <use xlink:href="#DejaVuSans-20" transform="translate(309.435547 0)"/>
     <use xlink:href="#DejaVuSans-41" transform="translate(341.222656 0)"/>
     <use xlink:href="#DejaVuSans-6e" transform="translate(409.630859 0)"/>
     <use xlink:href="#DejaVuSans-67" transform="translate(473.009766 0)"/>
     <use xlink:href="#DejaVuSans-6c" transform="translate(536.486328 0)"/>
     <use xlink:href="#DejaVuSans-65" transform="translate(564.269531 0)"/>
     <use xlink:href="#DejaVuSans-20" transform="translate(625.792969 0)"/>
     <use xlink:href="#DejaVuSans-28" transform="translate(657.580078 0)"/>
     <use xlink:href="#DejaVuSans-b0" transform="translate(696.59375 0)"/>
     <use xlink:href="#DejaVuSans-29" transform="translate(746.59375 0)"/>
    </g>
   </g>
   <g id="line2d_21">
    <g>
     <use xlink:href="#m7476375775" x="397.386719" y="27.776563" style="fill: #1f77b4; stroke: #1f77b4"/>
    </g>
   </g>
   <g id="text_21">
    <!-- 0.0 -->
    <g transform="translate(415.386719 31.276563) scale(0.1 -0.1)">
     <use xlink:href="#DejaVuSans-30"/>
     <use xlink:href="#DejaVuSans-2e" transform="translate(63.623047 0)"/>
     <use xlink:href="#DejaVuSans-30" transform="translate(95.410156 0)"/>
    </g>
   </g>
   <g id="line2d_22">
    <g>
     <use xlink:href="#m4a005530d2" x="397.386719" y="42.454688" style="fill: #ff7f0e; stroke: #ff7f0e"/>
    </g>
   </g>
   <g id="text_22">
    <!-- 15.0 -->
    <g transform="translate(415.386719 45.954688) scale(0.1 -0.1)">
     <use xlink:href="#DejaVuSans-31"/>
     <use xlink:href="#DejaVuSans-35" transform="translate(63.623047 0)"/>
     <use xlink:href="#DejaVuSans-2e" transform="translate(127.246094 0)"/>
     <use xlink:href="#DejaVuSans-30" transform="translate(159.033203 0)"/>
    </g>
   </g>
   <g id="line2d_23">
    <g>
     <use xlink:href="#m79f784bd0d" x="397.386719" y="57.132812" style="fill: #2ca02c; stroke: #2ca02c"/>
    </g>
   </g>
   <g id="text_23">
    <!-- 30.0 -->
    <g transform="translate(415.386719 60.632812) scale(0.1 -0.1)">
     <use xlink:href="#DejaVuSans-33"/>
     <use xlink:href="#DejaVuSans-30" transform="translate(63.623047 0)"/>
     <use xlink:href="#DejaVuSans-2e" transform="translate(127.246094 0)"/>
     <use xlink:href="#DejaVuSans-30" transform="translate(159.033203 0)"/>
    </g>
   </g>
   <g id="line2d_24">
    <g>
     <use xlink:href="#mf419d7f324" x="397.386719" y="71.810938" style="fill: #d62728; stroke: #d62728"/>
    </g>
   </g>
   <g id="text_24">
    <!-- 45.0 -->
    <g transform="translate(415.386719 75.310938) scale(0.1 -0.1)">
     <use xlink:href="#DejaVuSans-34"/>
     <use xlink:href="#DejaVuSans-35" transform="translate(63.623047 0)"/>
     <use xlink:href="#DejaVuSans-2e" transform="translate(127.246094 0)"/>
     <use xlink:href="#DejaVuSans-30" transform="translate(159.033203 0)"/>
    </g>
   </g>
  </g>
 </g>
 <defs>
  <clipPath id="pfd97a6cd90">
   <rect x="48.008" y="26.88" width="399.254273" height="275.32"/>
  </clipPath>
 </defs>
</svg>
