<?xml version="1.0" encoding="utf-8" standalone="no"?>
<!DOCTYPE svg PUBLIC "-//W3C//DTD SVG 1.1//EN"
  "http://www.w3.org/Graphics/SVG/1.1/DTD/svg11.dtd">
<svg xmlns:xlink="http://www.w3.org/1999/xlink" width="460.8pt" height="345.6pt" viewBox="0 0 460.8 345.6" xmlns="http://www.w3.org/2000/svg" version="1.1">
 <metadata>
  <rdf:RDF xmlns:dc="http://purl.org/dc/elements/1.1/" xmlns:cc="http://creativecommons.org/ns#" xmlns:rdf="http://www.w3.org/1999/02/22-rdf-syntax-ns#">
   <cc:Work>
    <dc:type rdf:resource="http://purl.org/dc/dcmitype/StillImage"/>
    <dc:date>2025-05-12T09:28:40.923066</dc:date>
    <dc:format>image/svg+xml</dc:format>
    <dc:creator>
     <cc:Agent>
      <dc:title>Matplotlib v3.10.1, https://matplotlib.org/</dc:title>
     </cc:Agent>
    </dc:creator>
   </cc:Work>
  </rdf:RDF>
 </metadata>
 <defs>
  <style type="text/css">*{stroke-linejoin: round; stroke-linecap: butt}</style>
 </defs>
 <g id="figure_1">
  <g id="patch_1">
   <path d="M 0 345.6 
L 460.8 345.6 
L 460.8 0 
L 0 0 
z
" style="fill: #ffffff"/>
  </g>
  <g id="axes_1">
   <g id="patch_2">
    <path d="M 47.72 302.2 
L 450 302.2 
L 450 10.8 
L 47.72 10.8 
z
" style="fill: #ffffff"/>
   </g>
   <g id="matplotlib.axis_1">
    <g id="xtick_1">
     <g id="line2d_1">
      <defs>
       <path id="mde76e22771" d="M 0 0 
L 0 3.5 
" style="stroke: #000000; stroke-width: 0.8"/>
      </defs>
      <g>
       <use xlink:href="#mde76e22771" x="66.005455" y="302.2" style="stroke: #000000; stroke-width: 0.8"/>
      </g>
     </g>
     <g id="text_1">
      <!-- 0 -->
      <g transform="translate(62.824205 316.798437) scale(0.1 -0.1)">
       <defs>
        <path id="DejaVuSans-30" d="M 2034 4250 
Q 1547 4250 1301 3770 
Q 1056 3291 1056 2328 
Q 1056 1369 1301 889 
Q 1547 409 2034 409 
Q 2525 409 2770 889 
Q 3016 1369 3016 2328 
Q 3016 3291 2770 3770 
Q 2525 4250 2034 4250 
z
M 2034 4750 
Q 2819 4750 3233 4129 
Q 3647 3509 3647 2328 
Q 3647 1150 3233 529 
Q 2819 -91 2034 -91 
Q 1250 -91 836 529 
Q 422 1150 422 2328 
Q 422 3509 836 4129 
Q 1250 4750 2034 4750 
z
" transform="scale(0.015625)"/>
       </defs>
       <use xlink:href="#DejaVuSans-30"/>
      </g>
     </g>
    </g>
    <g id="xtick_2">
     <g id="line2d_2">
      <g>
       <use xlink:href="#mde76e22771" x="147.274141" y="302.2" style="stroke: #000000; stroke-width: 0.8"/>
      </g>
     </g>
     <g id="text_2">
      <!-- 20 -->
      <g transform="translate(140.911641 316.798437) scale(0.1 -0.1)">
       <defs>
        <path id="DejaVuSans-32" d="M 1228 531 
L 3431 531 
L 3431 0 
L 469 0 
L 469 531 
Q 828 903 1448 1529 
Q 2069 2156 2228 2338 
Q 2531 2678 2651 2914 
Q 2772 3150 2772 3378 
Q 2772 3750 2511 3984 
Q 2250 4219 1831 4219 
Q 1534 4219 1204 4116 
Q 875 4013 500 3803 
L 500 4441 
Q 881 4594 1212 4672 
Q 1544 4750 1819 4750 
Q 2544 4750 2975 4387 
Q 3406 4025 3406 3419 
Q 3406 3131 3298 2873 
Q 3191 2616 2906 2266 
Q 2828 2175 2409 1742 
Q 1991 1309 1228 531 
z
" transform="scale(0.015625)"/>
       </defs>
       <use xlink:href="#DejaVuSans-32"/>
       <use xlink:href="#DejaVuSans-30" transform="translate(63.623047 0)"/>
      </g>
     </g>
    </g>
    <g id="xtick_3">
     <g id="line2d_3">
      <g>
       <use xlink:href="#mde76e22771" x="228.542828" y="302.2" style="stroke: #000000; stroke-width: 0.8"/>
      </g>
     </g>
     <g id="text_3">
      <!-- 40 -->
      <g transform="translate(222.180328 316.798437) scale(0.1 -0.1)">
       <defs>
        <path id="DejaVuSans-34" d="M 2419 4116 
L 825 1625 
L 2419 1625 
L 2419 4116 
z
M 2253 4666 
L 3047 4666 
L 3047 1625 
L 3713 1625 
L 3713 1100 
L 3047 1100 
L 3047 0 
L 2419 0 
L 2419 1100 
L 313 1100 
L 313 1709 
L 2253 4666 
z
" transform="scale(0.015625)"/>
       </defs>
       <use xlink:href="#DejaVuSans-34"/>
       <use xlink:href="#DejaVuSans-30" transform="translate(63.623047 0)"/>
      </g>
     </g>
    </g>
    <g id="xtick_4">
     <g id="line2d_4">
      <g>
       <use xlink:href="#mde76e22771" x="309.811515" y="302.2" style="stroke: #000000; stroke-width: 0.8"/>
      </g>
     </g>
     <g id="text_4">
      <!-- 60 -->
      <g transform="translate(303.449015 316.798437) scale(0.1 -0.1)">
       <defs>
        <path id="DejaVuSans-36" d="M 2113 2584 
Q 1688 2584 1439 2293 
Q 1191 2003 1191 1497 
Q 1191 994 1439 701 
Q 1688 409 2113 409 
Q 2538 409 2786 701 
Q 3034 994 3034 1497 
Q 3034 2003 2786 2293 
Q 2538 2584 2113 2584 
z
M 3366 4563 
L 3366 3988 
Q 3128 4100 2886 4159 
Q 2644 4219 2406 4219 
Q 1781 4219 1451 3797 
Q 1122 3375 1075 2522 
Q 1259 2794 1537 2939 
Q 1816 3084 2150 3084 
Q 2853 3084 3261 2657 
Q 3669 2231 3669 1497 
Q 3669 778 3244 343 
Q 2819 -91 2113 -91 
Q 1303 -91 875 529 
Q 447 1150 447 2328 
Q 447 3434 972 4092 
Q 1497 4750 2381 4750 
Q 2619 4750 2861 4703 
Q 3103 4656 3366 4563 
z
" transform="scale(0.015625)"/>
       </defs>
       <use xlink:href="#DejaVuSans-36"/>
       <use xlink:href="#DejaVuSans-30" transform="translate(63.623047 0)"/>
      </g>
     </g>
    </g>
    <g id="xtick_5">
     <g id="line2d_5">
      <g>
       <use xlink:href="#mde76e22771" x="391.080202" y="302.2" style="stroke: #000000; stroke-width: 0.8"/>
      </g>
     </g>
     <g id="text_5">
      <!-- 80 -->
      <g transform="translate(384.717702 316.798437) scale(0.1 -0.1)">
       <defs>
        <path id="DejaVuSans-38" d="M 2034 2216 
Q 1584 2216 1326 1975 
Q 1069 1734 1069 1313 
Q 1069 891 1326 650 
Q 1584 409 2034 409 
Q 2484 409 2743 651 
Q 3003 894 3003 1313 
Q 3003 1734 2745 1975 
Q 2488 2216 2034 2216 
z
M 1403 2484 
Q 997 2584 770 2862 
Q 544 3141 544 3541 
Q 544 4100 942 4425 
Q 1341 4750 2034 4750 
Q 2731 4750 3128 4425 
Q 3525 4100 3525 3541 
Q 3525 3141 3298 2862 
Q 3072 2584 2669 2484 
Q 3125 2378 3379 2068 
Q 3634 1759 3634 1313 
Q 3634 634 3220 271 
Q 2806 -91 2034 -91 
Q 1263 -91 848 271 
Q 434 634 434 1313 
Q 434 1759 690 2068 
Q 947 2378 1403 2484 
z
M 1172 3481 
Q 1172 3119 1398 2916 
Q 1625 2713 2034 2713 
Q 2441 2713 2670 2916 
Q 2900 3119 2900 3481 
Q 2900 3844 2670 4047 
Q 2441 4250 2034 4250 
Q 1625 4250 1398 4047 
Q 1172 3844 1172 3481 
z
" transform="scale(0.015625)"/>
       </defs>
       <use xlink:href="#DejaVuSans-38"/>
       <use xlink:href="#DejaVuSans-30" transform="translate(63.623047 0)"/>
      </g>
     </g>
    </g>
    <g id="text_6">
     <!-- $\theta$ (°) -->
     <g transform="translate(237.81 330.476562) scale(0.1 -0.1)">
      <defs>
       <path id="DejaVuSans-Oblique-3b8" d="M 2913 2219 
L 925 2219 
Q 791 1284 928 888 
Q 1100 400 1566 400 
Q 2034 400 2391 891 
Q 2703 1322 2913 2219 
z
M 3009 2750 
Q 3094 3638 2984 3950 
Q 2813 4444 2353 4444 
Q 1875 4444 1525 3956 
Q 1250 3563 1034 2750 
L 3009 2750 
z
M 2444 4913 
Q 3194 4913 3494 4250 
Q 3794 3591 3566 2422 
Q 3341 1256 2781 594 
Q 2225 -72 1475 -72 
Q 722 -72 425 594 
Q 128 1256 353 2422 
Q 581 3591 1134 4250 
Q 1691 4913 2444 4913 
z
" transform="scale(0.015625)"/>
       <path id="DejaVuSans-20" transform="scale(0.015625)"/>
       <path id="DejaVuSans-28" d="M 1984 4856 
Q 1566 4138 1362 3434 
Q 1159 2731 1159 2009 
Q 1159 1288 1364 580 
Q 1569 -128 1984 -844 
L 1484 -844 
Q 1016 -109 783 600 
Q 550 1309 550 2009 
Q 550 2706 781 3412 
Q 1013 4119 1484 4856 
L 1984 4856 
z
" transform="scale(0.015625)"/>
       <path id="DejaVuSans-b0" d="M 1600 4347 
Q 1350 4347 1178 4173 
Q 1006 4000 1006 3750 
Q 1006 3503 1178 3333 
Q 1350 3163 1600 3163 
Q 1850 3163 2022 3333 
Q 2194 3503 2194 3750 
Q 2194 3997 2020 4172 
Q 1847 4347 1600 4347 
z
M 1600 4750 
Q 1800 4750 1984 4673 
Q 2169 4597 2303 4453 
Q 2447 4313 2519 4134 
Q 2591 3956 2591 3750 
Q 2591 3338 2302 3052 
Q 2013 2766 1594 2766 
Q 1172 2766 890 3047 
Q 609 3328 609 3750 
Q 609 4169 896 4459 
Q 1184 4750 1600 4750 
z
" transform="scale(0.015625)"/>
       <path id="DejaVuSans-29" d="M 513 4856 
L 1013 4856 
Q 1481 4119 1714 3412 
Q 1947 2706 1947 2009 
Q 1947 1309 1714 600 
Q 1481 -109 1013 -844 
L 513 -844 
Q 928 -128 1133 580 
Q 1338 1288 1338 2009 
Q 1338 2731 1133 3434 
Q 928 4138 513 4856 
z
" transform="scale(0.015625)"/>
      </defs>
      <use xlink:href="#DejaVuSans-Oblique-3b8" transform="translate(0 0.234375)"/>
      <use xlink:href="#DejaVuSans-20" transform="translate(61.181641 0.234375)"/>
      <use xlink:href="#DejaVuSans-28" transform="translate(92.96875 0.234375)"/>
      <use xlink:href="#DejaVuSans-b0" transform="translate(131.982422 0.234375)"/>
      <use xlink:href="#DejaVuSans-29" transform="translate(181.982422 0.234375)"/>
     </g>
    </g>
   </g>
   <g id="matplotlib.axis_2">
    <g id="ytick_1">
     <g id="line2d_6">
      <defs>
       <path id="m471f12891d" d="M 0 0 
L -3.5 0 
" style="stroke: #000000; stroke-width: 0.8"/>
      </defs>
      <g>
       <use xlink:href="#m471f12891d" x="47.72" y="288.954545" style="stroke: #000000; stroke-width: 0.8"/>
      </g>
     </g>
     <g id="text_7">
      <!-- 0.0 -->
      <g transform="translate(24.816875 292.753764) scale(0.1 -0.1)">
       <defs>
        <path id="DejaVuSans-2e" d="M 684 794 
L 1344 794 
L 1344 0 
L 684 0 
L 684 794 
z
" transform="scale(0.015625)"/>
       </defs>
       <use xlink:href="#DejaVuSans-30"/>
       <use xlink:href="#DejaVuSans-2e" transform="translate(63.623047 0)"/>
       <use xlink:href="#DejaVuSans-30" transform="translate(95.410156 0)"/>
      </g>
     </g>
    </g>
    <g id="ytick_2">
     <g id="line2d_7">
      <g>
       <use xlink:href="#m471f12891d" x="47.72" y="245.334511" style="stroke: #000000; stroke-width: 0.8"/>
      </g>
     </g>
     <g id="text_8">
      <!-- 0.2 -->
      <g transform="translate(24.816875 249.133729) scale(0.1 -0.1)">
       <use xlink:href="#DejaVuSans-30"/>
       <use xlink:href="#DejaVuSans-2e" transform="translate(63.623047 0)"/>
       <use xlink:href="#DejaVuSans-32" transform="translate(95.410156 0)"/>
      </g>
     </g>
    </g>
    <g id="ytick_3">
     <g id="line2d_8">
      <g>
       <use xlink:href="#m471f12891d" x="47.72" y="201.714476" style="stroke: #000000; stroke-width: 0.8"/>
      </g>
     </g>
     <g id="text_9">
      <!-- 0.4 -->
      <g transform="translate(24.816875 205.513694) scale(0.1 -0.1)">
       <use xlink:href="#DejaVuSans-30"/>
       <use xlink:href="#DejaVuSans-2e" transform="translate(63.623047 0)"/>
       <use xlink:href="#DejaVuSans-34" transform="translate(95.410156 0)"/>
      </g>
     </g>
    </g>
    <g id="ytick_4">
     <g id="line2d_9">
      <g>
       <use xlink:href="#m471f12891d" x="47.72" y="158.094441" style="stroke: #000000; stroke-width: 0.8"/>
      </g>
     </g>
     <g id="text_10">
      <!-- 0.6 -->
      <g transform="translate(24.816875 161.89366) scale(0.1 -0.1)">
       <use xlink:href="#DejaVuSans-30"/>
       <use xlink:href="#DejaVuSans-2e" transform="translate(63.623047 0)"/>
       <use xlink:href="#DejaVuSans-36" transform="translate(95.410156 0)"/>
      </g>
     </g>
    </g>
    <g id="ytick_5">
     <g id="line2d_10">
      <g>
       <use xlink:href="#m471f12891d" x="47.72" y="114.474406" style="stroke: #000000; stroke-width: 0.8"/>
      </g>
     </g>
     <g id="text_11">
      <!-- 0.8 -->
      <g transform="translate(24.816875 118.273625) scale(0.1 -0.1)">
       <use xlink:href="#DejaVuSans-30"/>
       <use xlink:href="#DejaVuSans-2e" transform="translate(63.623047 0)"/>
       <use xlink:href="#DejaVuSans-38" transform="translate(95.410156 0)"/>
      </g>
     </g>
    </g>
    <g id="ytick_6">
     <g id="line2d_11">
      <g>
       <use xlink:href="#m471f12891d" x="47.72" y="70.854371" style="stroke: #000000; stroke-width: 0.8"/>
      </g>
     </g>
     <g id="text_12">
      <!-- 1.0 -->
      <g transform="translate(24.816875 74.65359) scale(0.1 -0.1)">
       <defs>
        <path id="DejaVuSans-31" d="M 794 531 
L 1825 531 
L 1825 4091 
L 703 3866 
L 703 4441 
L 1819 4666 
L 2450 4666 
L 2450 531 
L 3481 531 
L 3481 0 
L 794 0 
L 794 531 
z
" transform="scale(0.015625)"/>
       </defs>
       <use xlink:href="#DejaVuSans-31"/>
       <use xlink:href="#DejaVuSans-2e" transform="translate(63.623047 0)"/>
       <use xlink:href="#DejaVuSans-30" transform="translate(95.410156 0)"/>
      </g>
     </g>
    </g>
    <g id="ytick_7">
     <g id="line2d_12">
      <g>
       <use xlink:href="#m471f12891d" x="47.72" y="27.234336" style="stroke: #000000; stroke-width: 0.8"/>
      </g>
     </g>
     <g id="text_13">
      <!-- 1.2 -->
      <g transform="translate(24.816875 31.033555) scale(0.1 -0.1)">
       <use xlink:href="#DejaVuSans-31"/>
       <use xlink:href="#DejaVuSans-2e" transform="translate(63.623047 0)"/>
       <use xlink:href="#DejaVuSans-32" transform="translate(95.410156 0)"/>
      </g>
     </g>
    </g>
    <g id="text_14">
     <!-- $R$ -->
     <g transform="translate(18.737188 160) rotate(-90) scale(0.1 -0.1)">
      <defs>
       <path id="DejaVuSans-Oblique-52" d="M 1613 4147 
L 1294 2491 
L 2106 2491 
Q 2584 2491 2879 2755 
Q 3175 3019 3175 3444 
Q 3175 3784 2976 3965 
Q 2778 4147 2406 4147 
L 1613 4147 
z
M 2772 2241 
Q 2972 2194 3105 2009 
Q 3238 1825 3413 1275 
L 3809 0 
L 3144 0 
L 2778 1197 
Q 2638 1659 2453 1815 
Q 2269 1972 1888 1972 
L 1191 1972 
L 806 0 
L 172 0 
L 1081 4666 
L 2503 4666 
Q 3150 4666 3495 4373 
Q 3841 4081 3841 3531 
Q 3841 3044 3547 2687 
Q 3253 2331 2772 2241 
z
" transform="scale(0.015625)"/>
      </defs>
      <use xlink:href="#DejaVuSans-Oblique-52" transform="translate(0 0.09375)"/>
     </g>
    </g>
   </g>
   <g id="line2d_13">
    <path d="M 66.005455 288.954545 
L 69.699486 288.954545 
L 73.393517 288.954545 
L 77.087548 288.954545 
L 80.781579 288.954545 
L 84.475611 288.954545 
L 88.169642 288.954545 
L 91.863673 288.954545 
L 95.557704 288.954545 
L 99.251736 288.954545 
L 102.945767 288.954545 
L 106.639798 288.954545 
L 110.333829 288.954545 
L 114.02786 288.954545 
L 117.721892 288.954545 
L 121.415923 288.954545 
L 125.109954 288.954545 
L 128.803985 288.954545 
L 132.498017 288.954545 
L 136.192048 288.954545 
L 139.886079 288.954545 
L 143.58011 288.954545 
L 147.274141 288.954545 
L 150.968173 288.954545 
L 154.662204 288.954545 
L 158.356235 288.954545 
L 162.050266 288.954545 
L 165.744298 288.954545 
L 169.438329 288.954545 
L 173.13236 288.954545 
L 176.826391 288.954545 
L 180.520422 288.954545 
L 184.214454 288.954545 
L 187.908485 288.954545 
L 191.602516 288.954545 
L 195.296547 288.954545 
L 198.990579 288.954545 
L 202.68461 288.954545 
L 206.378641 288.954545 
L 210.072672 288.954545 
L 213.766703 288.954545 
L 217.460735 288.954545 
L 221.154766 288.954545 
L 224.848797 288.954545 
L 228.542828 288.954545 
L 232.23686 288.954545 
L 235.930891 288.954545 
L 239.624922 288.954545 
L 243.318953 288.954545 
L 247.012984 288.954545 
L 250.707016 288.954545 
L 254.401047 288.954545 
L 258.095078 288.954545 
L 261.789109 288.954545 
L 265.48314 288.954545 
L 269.177172 288.954545 
L 272.871203 288.954545 
L 276.565234 288.954545 
L 280.259265 288.954545 
L 283.953297 288.954545 
L 287.647328 288.954545 
L 291.341359 288.954545 
L 295.03539 288.954545 
L 298.729421 288.954545 
L 302.423453 288.954545 
L 306.117484 288.954545 
L 309.811515 288.954545 
L 313.505546 288.954545 
L 317.199578 288.954545 
L 320.893609 288.954545 
L 324.58764 288.954545 
L 328.281671 288.954545 
L 331.975702 288.954545 
L 335.669734 288.954545 
L 339.363765 288.954545 
L 343.057796 288.954545 
L 346.751827 288.954545 
L 350.445859 288.954545 
L 354.13989 288.954545 
L 357.833921 288.954545 
L 361.527952 288.954545 
L 365.221983 288.954545 
L 368.916015 288.954545 
L 372.610046 288.954545 
L 376.304077 288.954545 
L 379.998108 288.954545 
L 383.69214 288.954545 
L 387.386171 288.954545 
L 391.080202 288.954545 
L 394.774233 288.954545 
L 398.468264 288.954545 
L 402.162296 288.954545 
L 405.856327 288.954545 
L 409.550358 288.954545 
L 413.244389 288.954545 
L 416.938421 288.954545 
L 420.632452 288.954545 
L 424.326483 288.954545 
L 428.020514 288.954545 
L 431.714545 288.954545 
" clip-path="url(#p5c33a3a6bb)" style="fill: none; stroke: #1f77b4; stroke-width: 1.5; stroke-linecap: square"/>
   </g>
   <g id="line2d_14">
    <path d="M 66.005455 288.954545 
L 69.699486 288.523123 
L 73.393517 288.092724 
L 77.087548 287.664337 
L 80.781579 287.238362 
L 84.475611 286.815205 
L 88.169642 286.39527 
L 91.863673 285.978956 
L 95.557704 285.566653 
L 99.251736 285.158824 
L 102.945767 284.755956 
L 106.639798 284.358209 
L 110.333829 283.965951 
L 114.02786 283.579569 
L 117.721892 283.199651 
L 121.415923 282.826251 
L 125.109954 282.459759 
L 128.803985 282.1007 
L 132.498017 281.749114 
L 136.192048 281.405597 
L 139.886079 281.07018 
L 143.58011 280.743435 
L 147.274141 280.425408 
L 150.968173 280.116514 
L 154.662204 279.817013 
L 158.356235 279.527098 
L 162.050266 279.247041 
L 165.744298 278.977098 
L 169.438329 278.717538 
L 173.13236 278.468528 
L 176.826391 278.230279 
L 180.520422 278.003004 
L 184.214454 277.786915 
L 187.908485 277.582155 
L 191.602516 277.38888 
L 195.296547 277.20725 
L 198.990579 277.037491 
L 202.68461 276.879614 
L 206.378641 276.73388 
L 210.072672 276.600286 
L 213.766703 276.479004 
L 217.460735 276.37013 
L 221.154766 276.273717 
L 224.848797 276.189848 
L 228.542828 276.11859 
L 232.23686 276.059993 
L 235.930891 276.014093 
L 239.624922 275.98091 
L 243.318953 275.960516 
L 247.012984 275.952862 
L 250.707016 275.957962 
L 254.401047 275.975805 
L 258.095078 276.006382 
L 261.789109 276.049629 
L 265.48314 276.105512 
L 269.177172 276.173982 
L 272.871203 276.254973 
L 276.565234 276.348403 
L 280.259265 276.454177 
L 283.953297 276.572184 
L 287.647328 276.702364 
L 291.341359 276.844531 
L 295.03539 276.998617 
L 298.729421 277.164435 
L 302.423453 277.341845 
L 306.117484 277.53069 
L 309.811515 277.7308 
L 313.505546 277.941987 
L 317.199578 278.164054 
L 320.893609 278.396796 
L 324.58764 278.640022 
L 328.281671 278.893479 
L 331.975702 279.156949 
L 335.669734 279.430196 
L 339.363765 279.712954 
L 343.057796 280.004965 
L 346.751827 280.305954 
L 350.445859 280.615651 
L 354.13989 280.933761 
L 357.833921 281.259974 
L 361.527952 281.594002 
L 365.221983 281.935515 
L 368.916015 282.284188 
L 372.610046 282.639691 
L 376.304077 283.001682 
L 379.998108 283.369809 
L 383.69214 283.743712 
L 387.386171 284.123039 
L 391.080202 284.507399 
L 394.774233 284.896428 
L 398.468264 285.289729 
L 402.162296 285.686909 
L 405.856327 286.087569 
L 409.550358 286.491301 
L 413.244389 286.897691 
L 416.938421 287.30632 
L 420.632452 287.716758 
L 424.326483 288.128573 
L 428.020514 288.54132 
L 431.714545 288.954545 
" clip-path="url(#p5c33a3a6bb)" style="fill: none; stroke: #ff7f0e; stroke-width: 1.5; stroke-linecap: square"/>
   </g>
   <g id="line2d_15">
    <path d="M 66.005455 288.954545 
L 69.699486 287.234603 
L 73.393517 285.533226 
L 77.087548 283.852702 
L 80.781579 282.194237 
L 84.475611 280.5597 
L 88.169642 278.949577 
L 91.863673 277.365039 
L 95.557704 275.807376 
L 99.251736 274.277413 
L 102.945767 272.776024 
L 106.639798 271.304523 
L 110.333829 269.863489 
L 114.02786 268.453807 
L 117.721892 267.076308 
L 121.415923 265.731761 
L 125.109954 264.420879 
L 128.803985 263.144408 
L 132.498017 261.903052 
L 136.192048 260.697249 
L 139.886079 259.527852 
L 143.58011 258.395195 
L 147.274141 257.299886 
L 150.968173 256.24251 
L 154.662204 255.223442 
L 158.356235 254.24313 
L 162.050266 253.302074 
L 165.744298 252.400574 
L 169.438329 251.53896 
L 173.13236 250.717704 
L 176.826391 249.936998 
L 180.520422 249.197156 
L 184.214454 248.498461 
L 187.908485 247.841156 
L 191.602516 247.22544 
L 195.296547 246.651479 
L 198.990579 246.11952 
L 202.68461 245.629618 
L 206.378641 245.181989 
L 210.072672 244.776695 
L 213.766703 244.413817 
L 217.460735 244.093438 
L 221.154766 243.815616 
L 224.848797 243.580312 
L 228.542828 243.387621 
L 232.23686 243.237466 
L 235.930891 243.129822 
L 239.624922 243.064634 
L 243.318953 243.041823 
L 247.012984 243.061331 
L 250.707016 243.122987 
L 254.401047 243.226676 
L 258.095078 243.372257 
L 261.789109 243.559552 
L 265.48314 243.788348 
L 269.177172 244.05841 
L 272.871203 244.369541 
L 276.565234 244.721452 
L 280.259265 245.113859 
L 283.953297 245.546452 
L 287.647328 246.018934 
L 291.341359 246.530907 
L 295.03539 247.082042 
L 298.729421 247.671909 
L 302.423453 248.300087 
L 306.117484 248.96615 
L 309.811515 249.669594 
L 313.505546 250.409947 
L 317.199578 251.186662 
L 320.893609 251.999188 
L 324.58764 252.846949 
L 328.281671 253.729337 
L 331.975702 254.645707 
L 335.669734 255.595386 
L 339.363765 256.577676 
L 343.057796 257.591844 
L 346.751827 258.637132 
L 350.445859 259.712737 
L 354.13989 260.817825 
L 357.833921 261.951528 
L 361.527952 263.112958 
L 365.221983 264.301159 
L 368.916015 265.515167 
L 372.610046 266.753969 
L 376.304077 268.016507 
L 379.998108 269.301688 
L 383.69214 270.60838 
L 387.386171 271.935413 
L 391.080202 273.281565 
L 394.774233 274.645568 
L 398.468264 276.026125 
L 402.162296 277.421873 
L 405.856327 278.831409 
L 409.550358 280.253283 
L 413.244389 281.685981 
L 416.938421 283.12794 
L 420.632452 284.57753 
L 424.326483 286.033045 
L 428.020514 287.492693 
L 431.714545 288.954545 
" clip-path="url(#p5c33a3a6bb)" style="fill: none; stroke: #2ca02c; stroke-width: 1.5; stroke-linecap: square"/>
   </g>
   <g id="line2d_16">
    <path d="M 66.005455 288.954545 
L 69.699486 285.109126 
L 73.393517 281.354096 
L 77.087548 277.691559 
L 80.781579 274.120764 
L 84.475611 270.641937 
L 88.169642 267.254033 
L 91.863673 263.956808 
L 95.557704 260.750103 
L 99.251736 257.632996 
L 102.945767 254.60556 
L 106.639798 251.667019 
L 110.333829 248.817035 
L 114.02786 246.055148 
L 117.721892 243.380847 
L 121.415923 240.793929 
L 125.109954 238.293664 
L 128.803985 235.87971 
L 132.498017 233.551656 
L 136.192048 231.309028 
L 139.886079 229.151321 
L 143.58011 227.078301 
L 147.274141 225.089374 
L 150.968173 223.184166 
L 154.662204 221.362261 
L 158.356235 219.62326 
L 162.050266 217.966799 
L 165.744298 216.392449 
L 169.438329 214.899815 
L 173.13236 213.488516 
L 176.826391 212.158179 
L 180.520422 210.908469 
L 184.214454 209.738979 
L 187.908485 208.649347 
L 191.602516 207.639214 
L 195.296547 206.708229 
L 198.990579 205.856063 
L 202.68461 205.082345 
L 206.378641 204.386719 
L 210.072672 203.768834 
L 213.766703 203.228388 
L 217.460735 202.76497 
L 221.154766 202.378294 
L 224.848797 202.067988 
L 228.542828 201.833721 
L 232.23686 201.675088 
L 235.930891 201.591806 
L 239.624922 201.583467 
L 243.318953 201.649711 
L 247.012984 201.790212 
L 250.707016 202.004536 
L 254.401047 202.292328 
L 258.095078 202.653204 
L 261.789109 203.086741 
L 265.48314 203.592539 
L 269.177172 204.170163 
L 272.871203 204.819186 
L 276.565234 205.539142 
L 280.259265 206.329578 
L 283.953297 207.189993 
L 287.647328 208.119893 
L 291.341359 209.118742 
L 295.03539 210.186009 
L 298.729421 211.321109 
L 302.423453 212.523454 
L 306.117484 213.792409 
L 309.811515 215.127348 
L 313.505546 216.527562 
L 317.199578 217.992339 
L 320.893609 219.520935 
L 324.58764 221.112545 
L 328.281671 222.766351 
L 331.975702 224.481472 
L 335.669734 226.256974 
L 339.363765 228.091897 
L 343.057796 229.985221 
L 346.751827 231.935852 
L 350.445859 233.942659 
L 354.13989 236.004433 
L 357.833921 238.119904 
L 361.527952 240.287746 
L 365.221983 242.506529 
L 368.916015 244.77476 
L 372.610046 247.090872 
L 376.304077 249.453187 
L 379.998108 251.859945 
L 383.69214 254.309293 
L 387.386171 256.79926 
L 391.080202 259.327773 
L 394.774233 261.892633 
L 398.468264 264.49153 
L 402.162296 267.122004 
L 405.856327 269.781467 
L 409.550358 272.467166 
L 413.244389 275.176189 
L 416.938421 277.905437 
L 420.632452 280.651609 
L 424.326483 283.411158 
L 428.020514 286.180236 
L 431.714545 288.954545 
" clip-path="url(#p5c33a3a6bb)" style="fill: none; stroke: #d62728; stroke-width: 1.5; stroke-linecap: square"/>
   </g>
   <g id="line2d_17">
    <path d="M 66.005455 288.954545 
L 69.699486 282.178952 
L 73.393517 275.67807 
L 77.087548 269.441726 
L 80.781579 263.456121 
L 84.475611 257.709896 
L 88.169642 252.192347 
L 91.863673 246.893781 
L 95.557704 241.805864 
L 99.251736 236.920084 
L 102.945767 232.229072 
L 106.639798 227.726385 
L 110.333829 223.405386 
L 114.02786 219.260364 
L 117.721892 215.28609 
L 121.415923 211.477486 
L 125.109954 207.830073 
L 128.803985 204.33951 
L 132.498017 201.001921 
L 136.192048 197.813572 
L 139.886079 194.771036 
L 143.58011 191.871198 
L 147.274141 189.111 
L 150.968173 186.487714 
L 154.662204 183.998684 
L 158.356235 181.641565 
L 162.050266 179.414 
L 165.744298 177.313858 
L 169.438329 175.339189 
L 173.13236 173.488042 
L 176.826391 171.75869 
L 180.520422 170.149441 
L 184.214454 168.658731 
L 187.908485 167.28507 
L 191.602516 166.027076 
L 195.296547 164.883389 
L 198.990579 163.85282 
L 202.68461 162.934131 
L 206.378641 162.126199 
L 210.072672 161.428009 
L 213.766703 160.83849 
L 217.460735 160.356707 
L 221.154766 159.981727 
L 224.848797 159.712684 
L 228.542828 159.548726 
L 232.23686 159.489058 
L 235.930891 159.532884 
L 239.624922 159.679505 
L 243.318953 159.928164 
L 247.012984 160.278165 
L 250.707016 160.728878 
L 254.401047 161.279604 
L 258.095078 161.929716 
L 261.789109 162.678582 
L 265.48314 163.525612 
L 269.177172 164.470176 
L 272.871203 165.511678 
L 276.565234 166.649529 
L 280.259265 167.883122 
L 283.953297 169.211855 
L 287.647328 170.635139 
L 291.341359 172.152345 
L 295.03539 173.762867 
L 298.729421 175.466061 
L 302.423453 177.261278 
L 306.117484 179.147844 
L 309.811515 181.125058 
L 313.505546 183.192217 
L 317.199578 185.348549 
L 320.893609 187.593265 
L 324.58764 189.925559 
L 328.281671 192.344536 
L 331.975702 194.84928 
L 335.669734 197.438826 
L 339.363765 200.112128 
L 343.057796 202.868093 
L 346.751827 205.705538 
L 350.445859 208.623224 
L 354.13989 211.619808 
L 357.833921 214.693856 
L 361.527952 217.843834 
L 365.221983 221.068101 
L 368.916015 224.364892 
L 372.610046 227.732312 
L 376.304077 231.168325 
L 379.998108 234.670743 
L 383.69214 238.237209 
L 387.386171 241.8652 
L 391.080202 245.551985 
L 394.774233 249.294633 
L 398.468264 253.089984 
L 402.162296 256.934639 
L 405.856327 260.82492 
L 409.550358 264.756867 
L 413.244389 268.726195 
L 416.938421 272.728258 
L 420.632452 276.758 
L 424.326483 280.809881 
L 428.020514 284.877748 
L 431.714545 288.954545 
" clip-path="url(#p5c33a3a6bb)" style="fill: none; stroke: #9467bd; stroke-width: 1.5; stroke-linecap: square"/>
   </g>
   <g id="line2d_18">
    <path d="M 66.005455 288.954545 
L 69.699486 278.486972 
L 73.393517 268.660959 
L 77.087548 259.420028 
L 80.781579 250.710875 
L 84.475611 242.488802 
L 88.169642 234.715214 
L 91.863673 227.357096 
L 95.557704 220.384603 
L 99.251736 213.772208 
L 102.945767 207.497098 
L 106.639798 201.538974 
L 110.333829 195.880158 
L 114.02786 190.504332 
L 117.721892 185.397278 
L 121.415923 180.546054 
L 125.109954 175.939029 
L 128.803985 171.565706 
L 132.498017 167.416501 
L 136.192048 163.482848 
L 139.886079 159.756789 
L 143.58011 156.231117 
L 147.274141 152.89938 
L 150.968173 149.75543 
L 154.662204 146.793871 
L 158.356235 144.009514 
L 162.050266 141.397721 
L 165.744298 138.954215 
L 169.438329 136.67499 
L 173.13236 134.556372 
L 176.826391 132.594974 
L 180.520422 130.787624 
L 184.214454 129.131389 
L 187.908485 127.623571 
L 191.602516 126.261614 
L 195.296547 125.043158 
L 198.990579 123.96603 
L 202.68461 123.028152 
L 206.378641 122.227609 
L 210.072672 121.562621 
L 213.766703 121.031495 
L 217.460735 120.632665 
L 221.154766 120.364637 
L 224.848797 120.226039 
L 228.542828 120.215581 
L 232.23686 120.332004 
L 235.930891 120.574166 
L 239.624922 120.940958 
L 243.318953 121.431361 
L 247.012984 122.044378 
L 250.707016 122.779104 
L 254.401047 123.634639 
L 258.095078 124.610132 
L 261.789109 125.704784 
L 265.48314 126.917814 
L 269.177172 128.248496 
L 272.871203 129.696094 
L 276.565234 131.259908 
L 280.259265 132.939287 
L 283.953297 134.733541 
L 287.647328 136.64203 
L 291.341359 138.664095 
L 295.03539 140.799114 
L 298.729421 143.046437 
L 302.423453 145.405403 
L 306.117484 147.875365 
L 309.811515 150.455638 
L 313.505546 153.145554 
L 317.199578 155.944381 
L 320.893609 158.851381 
L 324.58764 161.865768 
L 328.281671 164.986722 
L 331.975702 168.213375 
L 335.669734 171.5448 
L 339.363765 174.980014 
L 343.057796 178.517946 
L 346.751827 182.157454 
L 350.445859 185.897317 
L 354.13989 189.736191 
L 357.833921 193.672639 
L 361.527952 197.705083 
L 365.221983 201.831816 
L 368.916015 206.050982 
L 372.610046 210.360543 
L 376.304077 214.758294 
L 379.998108 219.241805 
L 383.69214 223.808443 
L 387.386171 228.45531 
L 391.080202 233.179251 
L 394.774233 237.976809 
L 398.468264 242.844204 
L 402.162296 247.777296 
L 405.856327 252.771552 
L 409.550358 257.822 
L 413.244389 262.923185 
L 416.938421 268.069096 
L 420.632452 273.253096 
L 424.326483 278.467795 
L 428.020514 283.704857 
L 431.714545 288.954545 
" clip-path="url(#p5c33a3a6bb)" style="fill: none; stroke: #8c564b; stroke-width: 1.5; stroke-linecap: square"/>
   </g>
   <g id="line2d_19">
    <path d="M 66.005455 288.954545 
L 69.699486 274.084735 
L 73.393517 260.480392 
L 77.087548 247.967354 
L 80.781579 236.405591 
L 84.475611 225.68157 
L 88.169642 215.701844 
L 91.863673 206.388714 
L 95.557704 197.677568 
L 99.251736 189.51316 
L 102.945767 181.848691 
L 106.639798 174.64393 
L 110.333829 167.8641 
L 114.02786 161.479061 
L 117.721892 155.462216 
L 121.415923 149.790573 
L 125.109954 144.443601 
L 128.803985 139.403139 
L 132.498017 134.653063 
L 136.192048 130.179065 
L 139.886079 125.9683 
L 143.58011 122.009085 
L 147.274141 118.291034 
L 150.968173 114.804772 
L 154.662204 111.541778 
L 158.356235 108.494266 
L 162.050266 105.65521 
L 165.744298 103.018209 
L 169.438329 100.577376 
L 173.13236 98.32733 
L 176.826391 96.263179 
L 180.520422 94.380414 
L 184.214454 92.674808 
L 187.908485 91.142592 
L 191.602516 89.780205 
L 195.296547 88.584371 
L 198.990579 87.552072 
L 202.68461 86.68051 
L 206.378641 85.967092 
L 210.072672 85.409422 
L 213.766703 85.005225 
L 217.460735 84.752456 
L 221.154766 84.649179 
L 224.848797 84.693547 
L 228.542828 84.883915 
L 232.23686 85.218704 
L 235.930891 85.696424 
L 239.624922 86.31572 
L 243.318953 87.075295 
L 247.012984 87.973951 
L 250.707016 89.010546 
L 254.401047 90.184012 
L 258.095078 91.493366 
L 261.789109 92.937649 
L 265.48314 94.515982 
L 269.177172 96.2275 
L 272.871203 98.071406 
L 276.565234 100.046939 
L 280.259265 102.153364 
L 283.953297 104.389981 
L 287.647328 106.756104 
L 291.341359 109.251081 
L 295.03539 111.874263 
L 298.729421 114.625022 
L 302.423453 117.502723 
L 306.117484 120.506747 
L 309.811515 123.636456 
L 313.505546 126.891209 
L 317.199578 130.270351 
L 320.893609 133.773195 
L 324.58764 137.399035 
L 328.281671 141.147121 
L 331.975702 145.016658 
L 335.669734 149.006805 
L 339.363765 153.116643 
L 343.057796 157.345203 
L 346.751827 161.691404 
L 350.445859 166.154094 
L 354.13989 170.73199 
L 357.833921 175.423696 
L 361.527952 180.227679 
L 365.221983 185.142244 
L 368.916015 190.165514 
L 372.610046 195.295421 
L 376.304077 200.529684 
L 379.998108 205.865766 
L 383.69214 211.300859 
L 387.386171 216.831858 
L 391.080202 222.45532 
L 394.774233 228.167429 
L 398.468264 233.96396 
L 402.162296 239.840228 
L 405.856327 245.791034 
L 409.550358 251.810614 
L 413.244389 257.892566 
L 416.938421 264.029756 
L 420.632452 270.214213 
L 424.326483 276.436967 
L 428.020514 282.687779 
L 431.714545 288.954545 
" clip-path="url(#p5c33a3a6bb)" style="fill: none; stroke: #e377c2; stroke-width: 1.5; stroke-linecap: square"/>
   </g>
   <g id="line2d_20">
    <path d="M 66.005455 288.954545 
L 69.699486 269.034562 
L 73.393517 251.323071 
L 77.087548 235.419742 
L 80.781579 221.023507 
L 84.475611 207.903334 
L 88.169642 195.879863 
L 91.863673 184.809624 
L 95.557704 174.577799 
L 99.251736 165.089866 
L 102.945767 156.268479 
L 106.639798 148.048244 
L 110.333829 140.374691 
L 114.02786 133.201224 
L 117.721892 126.488023 
L 121.415923 120.200873 
L 125.109954 114.309921 
L 128.803985 108.7893 
L 132.498017 103.616237 
L 136.192048 98.770833 
L 139.886079 94.23536 
L 143.58011 89.994051 
L 147.274141 86.033003 
L 150.968173 82.339646 
L 154.662204 78.902745 
L 158.356235 75.712257 
L 162.050266 72.758993 
L 165.744298 70.034746 
L 169.438329 67.532025 
L 173.13236 65.244025 
L 176.826391 63.164562 
L 180.520422 61.287975 
L 184.214454 59.609072 
L 187.908485 58.123151 
L 191.602516 56.825864 
L 195.296547 55.713171 
L 198.990579 54.781427 
L 202.68461 54.027204 
L 206.378641 53.447418 
L 210.072672 53.039165 
L 213.766703 52.799734 
L 217.460735 52.726688 
L 221.154766 52.817711 
L 224.848797 53.070673 
L 228.542828 53.48359 
L 232.23686 54.054641 
L 235.930891 54.782102 
L 239.624922 55.664383 
L 243.318953 56.700013 
L 247.012984 57.887599 
L 250.707016 59.225847 
L 254.401047 60.71358 
L 258.095078 62.349652 
L 261.789109 64.133028 
L 265.48314 66.062707 
L 269.177172 68.137763 
L 272.871203 70.35735 
L 276.565234 72.720626 
L 280.259265 75.226827 
L 283.953297 77.875216 
L 287.647328 80.665106 
L 291.341359 83.595808 
L 295.03539 86.6667 
L 298.729421 89.877156 
L 302.423453 93.226554 
L 306.117484 96.714305 
L 309.811515 100.33981 
L 313.505546 104.102474 
L 317.199578 108.001681 
L 320.893609 112.036821 
L 324.58764 116.207245 
L 328.281671 120.512263 
L 331.975702 124.951161 
L 335.669734 129.52317 
L 339.363765 134.227456 
L 343.057796 139.063119 
L 346.751827 144.029168 
L 350.445859 149.124514 
L 354.13989 154.34796 
L 357.833921 159.698166 
L 361.527952 165.173657 
L 365.221983 170.772773 
L 368.916015 176.49367 
L 372.610046 182.334284 
L 376.304077 188.292302 
L 379.998108 194.365142 
L 383.69214 200.549905 
L 387.386171 206.84335 
L 391.080202 213.241849 
L 394.774233 219.741334 
L 398.468264 226.337254 
L 402.162296 233.024522 
L 405.856327 239.797437 
L 409.550358 246.649613 
L 413.244389 253.573897 
L 416.938421 260.562253 
L 420.632452 267.605622 
L 424.326483 274.693726 
L 428.020514 281.814737 
L 431.714545 288.954545 
" clip-path="url(#p5c33a3a6bb)" style="fill: none; stroke: #7f7f7f; stroke-width: 1.5; stroke-linecap: square"/>
   </g>
   <g id="line2d_21">
    <path d="M 66.005455 288.954545 
L 69.699486 263.395758 
L 73.393517 241.372017 
L 77.087548 222.085948 
L 80.781579 204.979578 
L 84.475611 189.652206 
L 88.169642 175.805603 
L 91.863673 163.212646 
L 95.557704 151.696541 
L 99.251736 141.117407 
L 102.945767 131.362557 
L 106.639798 122.340271 
L 110.333829 113.974823 
L 114.02786 106.203138 
L 117.721892 98.972025 
L 121.415923 92.236356 
L 125.109954 85.957643 
L 128.803985 80.102648 
L 132.498017 74.642681 
L 136.192048 69.552663 
L 139.886079 64.810618 
L 143.58011 60.397282 
L 147.274141 56.295565 
L 150.968173 52.490337 
L 154.662204 48.968072 
L 158.356235 45.716756 
L 162.050266 42.725518 
L 165.744298 39.984649 
L 169.438329 37.485357 
L 173.13236 35.219679 
L 176.826391 33.180447 
L 180.520422 31.361059 
L 184.214454 29.755606 
L 187.908485 28.358579 
L 191.602516 27.165055 
L 195.296547 26.170418 
L 198.990579 25.370499 
L 202.68461 24.761448 
L 206.378641 24.339733 
L 210.072672 24.102066 
L 213.766703 24.045455 
L 217.460735 24.167094 
L 221.154766 24.464441 
L 224.848797 24.935103 
L 228.542828 25.576861 
L 232.23686 26.387693 
L 235.930891 27.365701 
L 239.624922 28.509111 
L 243.318953 29.816295 
L 247.012984 31.285746 
L 250.707016 32.916043 
L 254.401047 34.705869 
L 258.095078 36.654026 
L 261.789109 38.759351 
L 265.48314 41.020812 
L 269.177172 43.437397 
L 272.871203 46.008183 
L 276.565234 48.732325 
L 280.259265 51.608998 
L 283.953297 54.637454 
L 287.647328 57.816962 
L 291.341359 61.146848 
L 295.03539 64.626466 
L 298.729421 68.255209 
L 302.423453 72.03246 
L 306.117484 75.957659 
L 309.811515 80.030224 
L 313.505546 84.249593 
L 317.199578 88.615199 
L 320.893609 93.12646 
L 324.58764 97.78278 
L 328.281671 102.583535 
L 331.975702 107.52806 
L 335.669734 112.615658 
L 339.363765 117.845555 
L 343.057796 123.216915 
L 346.751827 128.728826 
L 350.445859 134.380258 
L 354.13989 140.17008 
L 357.833921 146.097017 
L 361.527952 152.15964 
L 365.221983 158.356347 
L 368.916015 164.685324 
L 372.610046 171.144524 
L 376.304077 177.731636 
L 379.998108 184.444055 
L 383.69214 191.27883 
L 387.386171 198.232632 
L 391.080202 205.301701 
L 394.774233 212.481793 
L 398.468264 219.768123 
L 402.162296 227.15529 
L 405.856327 234.637207 
L 409.550358 242.207007 
L 413.244389 249.85694 
L 416.938421 257.578247 
L 420.632452 265.360987 
L 424.326483 273.193815 
L 428.020514 281.063592 
L 431.714545 288.954545 
" clip-path="url(#p5c33a3a6bb)" style="fill: none; stroke: #bcbd22; stroke-width: 1.5; stroke-linecap: square"/>
   </g>
   <g id="patch_3">
    <path d="M 47.72 302.2 
L 47.72 10.8 
" style="fill: none; stroke: #000000; stroke-width: 0.8; stroke-linejoin: miter; stroke-linecap: square"/>
   </g>
   <g id="patch_4">
    <path d="M 450 302.2 
L 450 10.8 
" style="fill: none; stroke: #000000; stroke-width: 0.8; stroke-linejoin: miter; stroke-linecap: square"/>
   </g>
   <g id="patch_5">
    <path d="M 47.72 302.2 
L 450 302.2 
" style="fill: none; stroke: #000000; stroke-width: 0.8; stroke-linejoin: miter; stroke-linecap: square"/>
   </g>
   <g id="patch_6">
    <path d="M 47.72 10.8 
L 450 10.8 
" style="fill: none; stroke: #000000; stroke-width: 0.8; stroke-linejoin: miter; stroke-linecap: square"/>
   </g>
  </g>
  <g id="legend_1">
   <g id="patch_7">
    <path d="M 399.534375 154.78125 
L 453.8 154.78125 
Q 455.8 154.78125 455.8 152.78125 
L 455.8 7 
Q 455.8 5 453.8 5 
L 399.534375 5 
Q 397.534375 5 397.534375 7 
L 397.534375 152.78125 
Q 397.534375 154.78125 399.534375 154.78125 
z
" style="fill: #ffffff; opacity: 0.8; stroke: #cccccc; stroke-linejoin: miter"/>
   </g>
   <g id="text_15">
    <!-- $v_0$ -->
    <g transform="translate(421.317187 16.598437) scale(0.1 -0.1)">
     <defs>
      <path id="DejaVuSans-Oblique-76" d="M 459 3500 
L 1069 3500 
L 1581 525 
L 3256 3500 
L 3866 3500 
L 1875 0 
L 1100 0 
L 459 3500 
z
" transform="scale(0.015625)"/>
     </defs>
     <use xlink:href="#DejaVuSans-Oblique-76" transform="translate(0 0.3125)"/>
     <use xlink:href="#DejaVuSans-30" transform="translate(59.179688 -16.09375) scale(0.7)"/>
    </g>
   </g>
   <g id="line2d_22">
    <path d="M 401.534375 27.776563 
L 411.534375 27.776563 
L 421.534375 27.776563 
" style="fill: none; stroke: #1f77b4; stroke-width: 1.5; stroke-linecap: square"/>
   </g>
   <g id="text_16">
    <!-- 0.0 -->
    <g transform="translate(429.534375 31.276563) scale(0.1 -0.1)">
     <use xlink:href="#DejaVuSans-30"/>
     <use xlink:href="#DejaVuSans-2e" transform="translate(63.623047 0)"/>
     <use xlink:href="#DejaVuSans-30" transform="translate(95.410156 0)"/>
    </g>
   </g>
   <g id="line2d_23">
    <path d="M 401.534375 42.454688 
L 411.534375 42.454688 
L 421.534375 42.454688 
" style="fill: none; stroke: #ff7f0e; stroke-width: 1.5; stroke-linecap: square"/>
   </g>
   <g id="text_17">
    <!-- 0.25 -->
    <g transform="translate(429.534375 45.954688) scale(0.1 -0.1)">
     <defs>
      <path id="DejaVuSans-35" d="M 691 4666 
L 3169 4666 
L 3169 4134 
L 1269 4134 
L 1269 2991 
Q 1406 3038 1543 3061 
Q 1681 3084 1819 3084 
Q 2600 3084 3056 2656 
Q 3513 2228 3513 1497 
Q 3513 744 3044 326 
Q 2575 -91 1722 -91 
Q 1428 -91 1123 -41 
Q 819 9 494 109 
L 494 744 
Q 775 591 1075 516 
Q 1375 441 1709 441 
Q 2250 441 2565 725 
Q 2881 1009 2881 1497 
Q 2881 1984 2565 2268 
Q 2250 2553 1709 2553 
Q 1456 2553 1204 2497 
Q 953 2441 691 2322 
L 691 4666 
z
" transform="scale(0.015625)"/>
     </defs>
     <use xlink:href="#DejaVuSans-30"/>
     <use xlink:href="#DejaVuSans-2e" transform="translate(63.623047 0)"/>
     <use xlink:href="#DejaVuSans-32" transform="translate(95.410156 0)"/>
     <use xlink:href="#DejaVuSans-35" transform="translate(159.033203 0)"/>
    </g>
   </g>
   <g id="line2d_24">
    <path d="M 401.534375 57.132812 
L 411.534375 57.132812 
L 421.534375 57.132812 
" style="fill: none; stroke: #2ca02c; stroke-width: 1.5; stroke-linecap: square"/>
   </g>
   <g id="text_18">
    <!-- 0.5 -->
    <g transform="translate(429.534375 60.632812) scale(0.1 -0.1)">
     <use xlink:href="#DejaVuSans-30"/>
     <use xlink:href="#DejaVuSans-2e" transform="translate(63.623047 0)"/>
     <use xlink:href="#DejaVuSans-35" transform="translate(95.410156 0)"/>
    </g>
   </g>
   <g id="line2d_25">
    <path d="M 401.534375 71.810938 
L 411.534375 71.810938 
L 421.534375 71.810938 
" style="fill: none; stroke: #d62728; stroke-width: 1.5; stroke-linecap: square"/>
   </g>
   <g id="text_19">
    <!-- 0.75 -->
    <g transform="translate(429.534375 75.310938) scale(0.1 -0.1)">
     <defs>
      <path id="DejaVuSans-37" d="M 525 4666 
L 3525 4666 
L 3525 4397 
L 1831 0 
L 1172 0 
L 2766 4134 
L 525 4134 
L 525 4666 
z
" transform="scale(0.015625)"/>
     </defs>
     <use xlink:href="#DejaVuSans-30"/>
     <use xlink:href="#DejaVuSans-2e" transform="translate(63.623047 0)"/>
     <use xlink:href="#DejaVuSans-37" transform="translate(95.410156 0)"/>
     <use xlink:href="#DejaVuSans-35" transform="translate(159.033203 0)"/>
    </g>
   </g>
   <g id="line2d_26">
    <path d="M 401.534375 86.489063 
L 411.534375 86.489063 
L 421.534375 86.489063 
" style="fill: none; stroke: #9467bd; stroke-width: 1.5; stroke-linecap: square"/>
   </g>
   <g id="text_20">
    <!-- 1.0 -->
    <g transform="translate(429.534375 89.989063) scale(0.1 -0.1)">
     <use xlink:href="#DejaVuSans-31"/>
     <use xlink:href="#DejaVuSans-2e" transform="translate(63.623047 0)"/>
     <use xlink:href="#DejaVuSans-30" transform="translate(95.410156 0)"/>
    </g>
   </g>
   <g id="line2d_27">
    <path d="M 401.534375 101.167188 
L 411.534375 101.167188 
L 421.534375 101.167188 
" style="fill: none; stroke: #8c564b; stroke-width: 1.5; stroke-linecap: square"/>
   </g>
   <g id="text_21">
    <!-- 1.25 -->
    <g transform="translate(429.534375 104.667188) scale(0.1 -0.1)">
     <use xlink:href="#DejaVuSans-31"/>
     <use xlink:href="#DejaVuSans-2e" transform="translate(63.623047 0)"/>
     <use xlink:href="#DejaVuSans-32" transform="translate(95.410156 0)"/>
     <use xlink:href="#DejaVuSans-35" transform="translate(159.033203 0)"/>
    </g>
   </g>
   <g id="line2d_28">
    <path d="M 401.534375 115.845313 
L 411.534375 115.845313 
L 421.534375 115.845313 
" style="fill: none; stroke: #e377c2; stroke-width: 1.5; stroke-linecap: square"/>
   </g>
   <g id="text_22">
    <!-- 1.5 -->
    <g transform="translate(429.534375 119.345313) scale(0.1 -0.1)">
     <use xlink:href="#DejaVuSans-31"/>
     <use xlink:href="#DejaVuSans-2e" transform="translate(63.623047 0)"/>
     <use xlink:href="#DejaVuSans-35" transform="translate(95.410156 0)"/>
    </g>
   </g>
   <g id="line2d_29">
    <path d="M 401.534375 130.523438 
L 411.534375 130.523438 
L 421.534375 130.523438 
" style="fill: none; stroke: #7f7f7f; stroke-width: 1.5; stroke-linecap: square"/>
   </g>
   <g id="text_23">
    <!-- 1.75 -->
    <g transform="translate(429.534375 134.023438) scale(0.1 -0.1)">
     <use xlink:href="#DejaVuSans-31"/>
     <use xlink:href="#DejaVuSans-2e" transform="translate(63.623047 0)"/>
     <use xlink:href="#DejaVuSans-37" transform="translate(95.410156 0)"/>
     <use xlink:href="#DejaVuSans-35" transform="translate(159.033203 0)"/>
    </g>
   </g>
   <g id="line2d_30">
    <path d="M 401.534375 145.201562 
L 411.534375 145.201562 
L 421.534375 145.201562 
" style="fill: none; stroke: #bcbd22; stroke-width: 1.5; stroke-linecap: square"/>
   </g>
   <g id="text_24">
    <!-- 2.0 -->
    <g transform="translate(429.534375 148.701562) scale(0.1 -0.1)">
     <use xlink:href="#DejaVuSans-32"/>
     <use xlink:href="#DejaVuSans-2e" transform="translate(63.623047 0)"/>
     <use xlink:href="#DejaVuSans-30" transform="translate(95.410156 0)"/>
    </g>
   </g>
  </g>
 </g>
 <defs>
  <clipPath id="p5c33a3a6bb">
   <rect x="47.72" y="10.8" width="402.28" height="291.4"/>
  </clipPath>
 </defs>
</svg>
