<?xml version="1.0" encoding="utf-8" standalone="no"?>
<!DOCTYPE svg PUBLIC "-//W3C//DTD SVG 1.1//EN"
  "http://www.w3.org/Graphics/SVG/1.1/DTD/svg11.dtd">
<svg xmlns:xlink="http://www.w3.org/1999/xlink" width="460.8pt" height="345.6pt" viewBox="0 0 460.8 345.6" xmlns="http://www.w3.org/2000/svg" version="1.1">
 <metadata>
  <rdf:RDF xmlns:dc="http://purl.org/dc/elements/1.1/" xmlns:cc="http://creativecommons.org/ns#" xmlns:rdf="http://www.w3.org/1999/02/22-rdf-syntax-ns#">
   <cc:Work>
    <dc:type rdf:resource="http://purl.org/dc/dcmitype/StillImage"/>
    <dc:date>2025-04-20T23:55:35.252973</dc:date>
    <dc:format>image/svg+xml</dc:format>
    <dc:creator>
     <cc:Agent>
      <dc:title>Matplotlib v3.10.1, https://matplotlib.org/</dc:title>
     </cc:Agent>
    </dc:creator>
   </cc:Work>
  </rdf:RDF>
 </metadata>
 <defs>
  <style type="text/css">*{stroke-linejoin: round; stroke-linecap: butt}</style>
 </defs>
 <g id="figure_1">
  <g id="patch_1">
   <path d="M 0 345.6 
L 460.8 345.6 
L 460.8 0 
L 0 0 
z
" style="fill: #ffffff"/>
  </g>
  <g id="axes_1">
   <g id="patch_2">
    <path d="M 47.72 303.352 
L 450 303.352 
L 450 10.8 
L 47.72 10.8 
z
" style="fill: #ffffff"/>
   </g>
   <g id="matplotlib.axis_1">
    <g id="xtick_1">
     <g id="line2d_1">
      <defs>
       <path id="m8305378b7d" d="M 0 0 
L 0 3.5 
" style="stroke: #000000; stroke-width: 0.8"/>
      </defs>
      <g>
       <use xlink:href="#m8305378b7d" x="66.005455" y="303.352" style="stroke: #000000; stroke-width: 0.8"/>
      </g>
     </g>
     <g id="text_1">
      <!-- 0.0 -->
      <g transform="translate(58.053892 317.950438) scale(0.1 -0.1)">
       <defs>
        <path id="DejaVuSans-30" d="M 2034 4250 
Q 1547 4250 1301 3770 
Q 1056 3291 1056 2328 
Q 1056 1369 1301 889 
Q 1547 409 2034 409 
Q 2525 409 2770 889 
Q 3016 1369 3016 2328 
Q 3016 3291 2770 3770 
Q 2525 4250 2034 4250 
z
M 2034 4750 
Q 2819 4750 3233 4129 
Q 3647 3509 3647 2328 
Q 3647 1150 3233 529 
Q 2819 -91 2034 -91 
Q 1250 -91 836 529 
Q 422 1150 422 2328 
Q 422 3509 836 4129 
Q 1250 4750 2034 4750 
z
" transform="scale(0.015625)"/>
        <path id="DejaVuSans-2e" d="M 684 794 
L 1344 794 
L 1344 0 
L 684 0 
L 684 794 
z
" transform="scale(0.015625)"/>
       </defs>
       <use xlink:href="#DejaVuSans-30"/>
       <use xlink:href="#DejaVuSans-2e" transform="translate(63.623047 0)"/>
       <use xlink:href="#DejaVuSans-30" transform="translate(95.410156 0)"/>
      </g>
     </g>
    </g>
    <g id="xtick_2">
     <g id="line2d_2">
      <g>
       <use xlink:href="#m8305378b7d" x="114.766667" y="303.352" style="stroke: #000000; stroke-width: 0.8"/>
      </g>
     </g>
     <g id="text_2">
      <!-- 0.2 -->
      <g transform="translate(106.815104 317.950438) scale(0.1 -0.1)">
       <defs>
        <path id="DejaVuSans-32" d="M 1228 531 
L 3431 531 
L 3431 0 
L 469 0 
L 469 531 
Q 828 903 1448 1529 
Q 2069 2156 2228 2338 
Q 2531 2678 2651 2914 
Q 2772 3150 2772 3378 
Q 2772 3750 2511 3984 
Q 2250 4219 1831 4219 
Q 1534 4219 1204 4116 
Q 875 4013 500 3803 
L 500 4441 
Q 881 4594 1212 4672 
Q 1544 4750 1819 4750 
Q 2544 4750 2975 4387 
Q 3406 4025 3406 3419 
Q 3406 3131 3298 2873 
Q 3191 2616 2906 2266 
Q 2828 2175 2409 1742 
Q 1991 1309 1228 531 
z
" transform="scale(0.015625)"/>
       </defs>
       <use xlink:href="#DejaVuSans-30"/>
       <use xlink:href="#DejaVuSans-2e" transform="translate(63.623047 0)"/>
       <use xlink:href="#DejaVuSans-32" transform="translate(95.410156 0)"/>
      </g>
     </g>
    </g>
    <g id="xtick_3">
     <g id="line2d_3">
      <g>
       <use xlink:href="#m8305378b7d" x="163.527879" y="303.352" style="stroke: #000000; stroke-width: 0.8"/>
      </g>
     </g>
     <g id="text_3">
      <!-- 0.4 -->
      <g transform="translate(155.576316 317.950438) scale(0.1 -0.1)">
       <defs>
        <path id="DejaVuSans-34" d="M 2419 4116 
L 825 1625 
L 2419 1625 
L 2419 4116 
z
M 2253 4666 
L 3047 4666 
L 3047 1625 
L 3713 1625 
L 3713 1100 
L 3047 1100 
L 3047 0 
L 2419 0 
L 2419 1100 
L 313 1100 
L 313 1709 
L 2253 4666 
z
" transform="scale(0.015625)"/>
       </defs>
       <use xlink:href="#DejaVuSans-30"/>
       <use xlink:href="#DejaVuSans-2e" transform="translate(63.623047 0)"/>
       <use xlink:href="#DejaVuSans-34" transform="translate(95.410156 0)"/>
      </g>
     </g>
    </g>
    <g id="xtick_4">
     <g id="line2d_4">
      <g>
       <use xlink:href="#m8305378b7d" x="212.289091" y="303.352" style="stroke: #000000; stroke-width: 0.8"/>
      </g>
     </g>
     <g id="text_4">
      <!-- 0.6 -->
      <g transform="translate(204.337528 317.950438) scale(0.1 -0.1)">
       <defs>
        <path id="DejaVuSans-36" d="M 2113 2584 
Q 1688 2584 1439 2293 
Q 1191 2003 1191 1497 
Q 1191 994 1439 701 
Q 1688 409 2113 409 
Q 2538 409 2786 701 
Q 3034 994 3034 1497 
Q 3034 2003 2786 2293 
Q 2538 2584 2113 2584 
z
M 3366 4563 
L 3366 3988 
Q 3128 4100 2886 4159 
Q 2644 4219 2406 4219 
Q 1781 4219 1451 3797 
Q 1122 3375 1075 2522 
Q 1259 2794 1537 2939 
Q 1816 3084 2150 3084 
Q 2853 3084 3261 2657 
Q 3669 2231 3669 1497 
Q 3669 778 3244 343 
Q 2819 -91 2113 -91 
Q 1303 -91 875 529 
Q 447 1150 447 2328 
Q 447 3434 972 4092 
Q 1497 4750 2381 4750 
Q 2619 4750 2861 4703 
Q 3103 4656 3366 4563 
z
" transform="scale(0.015625)"/>
       </defs>
       <use xlink:href="#DejaVuSans-30"/>
       <use xlink:href="#DejaVuSans-2e" transform="translate(63.623047 0)"/>
       <use xlink:href="#DejaVuSans-36" transform="translate(95.410156 0)"/>
      </g>
     </g>
    </g>
    <g id="xtick_5">
     <g id="line2d_5">
      <g>
       <use xlink:href="#m8305378b7d" x="261.050303" y="303.352" style="stroke: #000000; stroke-width: 0.8"/>
      </g>
     </g>
     <g id="text_5">
      <!-- 0.8 -->
      <g transform="translate(253.098741 317.950438) scale(0.1 -0.1)">
       <defs>
        <path id="DejaVuSans-38" d="M 2034 2216 
Q 1584 2216 1326 1975 
Q 1069 1734 1069 1313 
Q 1069 891 1326 650 
Q 1584 409 2034 409 
Q 2484 409 2743 651 
Q 3003 894 3003 1313 
Q 3003 1734 2745 1975 
Q 2488 2216 2034 2216 
z
M 1403 2484 
Q 997 2584 770 2862 
Q 544 3141 544 3541 
Q 544 4100 942 4425 
Q 1341 4750 2034 4750 
Q 2731 4750 3128 4425 
Q 3525 4100 3525 3541 
Q 3525 3141 3298 2862 
Q 3072 2584 2669 2484 
Q 3125 2378 3379 2068 
Q 3634 1759 3634 1313 
Q 3634 634 3220 271 
Q 2806 -91 2034 -91 
Q 1263 -91 848 271 
Q 434 634 434 1313 
Q 434 1759 690 2068 
Q 947 2378 1403 2484 
z
M 1172 3481 
Q 1172 3119 1398 2916 
Q 1625 2713 2034 2713 
Q 2441 2713 2670 2916 
Q 2900 3119 2900 3481 
Q 2900 3844 2670 4047 
Q 2441 4250 2034 4250 
Q 1625 4250 1398 4047 
Q 1172 3844 1172 3481 
z
" transform="scale(0.015625)"/>
       </defs>
       <use xlink:href="#DejaVuSans-30"/>
       <use xlink:href="#DejaVuSans-2e" transform="translate(63.623047 0)"/>
       <use xlink:href="#DejaVuSans-38" transform="translate(95.410156 0)"/>
      </g>
     </g>
    </g>
    <g id="xtick_6">
     <g id="line2d_6">
      <g>
       <use xlink:href="#m8305378b7d" x="309.811515" y="303.352" style="stroke: #000000; stroke-width: 0.8"/>
      </g>
     </g>
     <g id="text_6">
      <!-- 1.0 -->
      <g transform="translate(301.859953 317.950438) scale(0.1 -0.1)">
       <defs>
        <path id="DejaVuSans-31" d="M 794 531 
L 1825 531 
L 1825 4091 
L 703 3866 
L 703 4441 
L 1819 4666 
L 2450 4666 
L 2450 531 
L 3481 531 
L 3481 0 
L 794 0 
L 794 531 
z
" transform="scale(0.015625)"/>
       </defs>
       <use xlink:href="#DejaVuSans-31"/>
       <use xlink:href="#DejaVuSans-2e" transform="translate(63.623047 0)"/>
       <use xlink:href="#DejaVuSans-30" transform="translate(95.410156 0)"/>
      </g>
     </g>
    </g>
    <g id="xtick_7">
     <g id="line2d_7">
      <g>
       <use xlink:href="#m8305378b7d" x="358.572727" y="303.352" style="stroke: #000000; stroke-width: 0.8"/>
      </g>
     </g>
     <g id="text_7">
      <!-- 1.2 -->
      <g transform="translate(350.621165 317.950438) scale(0.1 -0.1)">
       <use xlink:href="#DejaVuSans-31"/>
       <use xlink:href="#DejaVuSans-2e" transform="translate(63.623047 0)"/>
       <use xlink:href="#DejaVuSans-32" transform="translate(95.410156 0)"/>
      </g>
     </g>
    </g>
    <g id="xtick_8">
     <g id="line2d_8">
      <g>
       <use xlink:href="#m8305378b7d" x="407.333939" y="303.352" style="stroke: #000000; stroke-width: 0.8"/>
      </g>
     </g>
     <g id="text_8">
      <!-- 1.4 -->
      <g transform="translate(399.382377 317.950438) scale(0.1 -0.1)">
       <use xlink:href="#DejaVuSans-31"/>
       <use xlink:href="#DejaVuSans-2e" transform="translate(63.623047 0)"/>
       <use xlink:href="#DejaVuSans-34" transform="translate(95.410156 0)"/>
      </g>
     </g>
    </g>
    <g id="text_9">
     <!-- $v_0$ -->
     <g transform="translate(243.51 331.628562) scale(0.1 -0.1)">
      <defs>
       <path id="DejaVuSans-Oblique-76" d="M 459 3500 
L 1069 3500 
L 1581 525 
L 3256 3500 
L 3866 3500 
L 1875 0 
L 1100 0 
L 459 3500 
z
" transform="scale(0.015625)"/>
      </defs>
      <use xlink:href="#DejaVuSans-Oblique-76" transform="translate(0 0.3125)"/>
      <use xlink:href="#DejaVuSans-30" transform="translate(59.179688 -16.09375) scale(0.7)"/>
     </g>
    </g>
   </g>
   <g id="matplotlib.axis_2">
    <g id="ytick_1">
     <g id="line2d_9">
      <defs>
       <path id="me0658b4c16" d="M 0 0 
L -3.5 0 
" style="stroke: #000000; stroke-width: 0.8"/>
      </defs>
      <g>
       <use xlink:href="#me0658b4c16" x="47.72" y="290.054182" style="stroke: #000000; stroke-width: 0.8"/>
      </g>
     </g>
     <g id="text_10">
      <!-- 0.0 -->
      <g transform="translate(24.816875 293.853401) scale(0.1 -0.1)">
       <use xlink:href="#DejaVuSans-30"/>
       <use xlink:href="#DejaVuSans-2e" transform="translate(63.623047 0)"/>
       <use xlink:href="#DejaVuSans-30" transform="translate(95.410156 0)"/>
      </g>
     </g>
    </g>
    <g id="ytick_2">
     <g id="line2d_10">
      <g>
       <use xlink:href="#me0658b4c16" x="47.72" y="232.187779" style="stroke: #000000; stroke-width: 0.8"/>
      </g>
     </g>
     <g id="text_11">
      <!-- 0.2 -->
      <g transform="translate(24.816875 235.986998) scale(0.1 -0.1)">
       <use xlink:href="#DejaVuSans-30"/>
       <use xlink:href="#DejaVuSans-2e" transform="translate(63.623047 0)"/>
       <use xlink:href="#DejaVuSans-32" transform="translate(95.410156 0)"/>
      </g>
     </g>
    </g>
    <g id="ytick_3">
     <g id="line2d_11">
      <g>
       <use xlink:href="#me0658b4c16" x="47.72" y="174.321376" style="stroke: #000000; stroke-width: 0.8"/>
      </g>
     </g>
     <g id="text_12">
      <!-- 0.4 -->
      <g transform="translate(24.816875 178.120595) scale(0.1 -0.1)">
       <use xlink:href="#DejaVuSans-30"/>
       <use xlink:href="#DejaVuSans-2e" transform="translate(63.623047 0)"/>
       <use xlink:href="#DejaVuSans-34" transform="translate(95.410156 0)"/>
      </g>
     </g>
    </g>
    <g id="ytick_4">
     <g id="line2d_12">
      <g>
       <use xlink:href="#me0658b4c16" x="47.72" y="116.454973" style="stroke: #000000; stroke-width: 0.8"/>
      </g>
     </g>
     <g id="text_13">
      <!-- 0.6 -->
      <g transform="translate(24.816875 120.254192) scale(0.1 -0.1)">
       <use xlink:href="#DejaVuSans-30"/>
       <use xlink:href="#DejaVuSans-2e" transform="translate(63.623047 0)"/>
       <use xlink:href="#DejaVuSans-36" transform="translate(95.410156 0)"/>
      </g>
     </g>
    </g>
    <g id="ytick_5">
     <g id="line2d_13">
      <g>
       <use xlink:href="#me0658b4c16" x="47.72" y="58.588571" style="stroke: #000000; stroke-width: 0.8"/>
      </g>
     </g>
     <g id="text_14">
      <!-- 0.8 -->
      <g transform="translate(24.816875 62.387789) scale(0.1 -0.1)">
       <use xlink:href="#DejaVuSans-30"/>
       <use xlink:href="#DejaVuSans-2e" transform="translate(63.623047 0)"/>
       <use xlink:href="#DejaVuSans-38" transform="translate(95.410156 0)"/>
      </g>
     </g>
    </g>
    <g id="text_15">
     <!-- $R$ -->
     <g transform="translate(18.737188 160.576) rotate(-90) scale(0.1 -0.1)">
      <defs>
       <path id="DejaVuSans-Oblique-52" d="M 1613 4147 
L 1294 2491 
L 2106 2491 
Q 2584 2491 2879 2755 
Q 3175 3019 3175 3444 
Q 3175 3784 2976 3965 
Q 2778 4147 2406 4147 
L 1613 4147 
z
M 2772 2241 
Q 2972 2194 3105 2009 
Q 3238 1825 3413 1275 
L 3809 0 
L 3144 0 
L 2778 1197 
Q 2638 1659 2453 1815 
Q 2269 1972 1888 1972 
L 1191 1972 
L 806 0 
L 172 0 
L 1081 4666 
L 2503 4666 
Q 3150 4666 3495 4373 
Q 3841 4081 3841 3531 
Q 3841 3044 3547 2687 
Q 3253 2331 2772 2241 
z
" transform="scale(0.015625)"/>
      </defs>
      <use xlink:href="#DejaVuSans-Oblique-52" transform="translate(0 0.09375)"/>
     </g>
    </g>
   </g>
   <g id="line2d_14">
    <path d="M 66.005455 290.054182 
L 69.699486 290.054182 
L 73.393517 290.054182 
L 77.087548 290.054182 
L 80.781579 290.054182 
L 84.475611 290.054182 
L 88.169642 290.054182 
L 91.863673 290.054182 
L 95.557704 290.054182 
L 99.251736 290.054182 
L 102.945767 290.054182 
L 106.639798 290.054182 
L 110.333829 290.054182 
L 114.02786 290.054182 
L 117.721892 290.054182 
L 121.415923 290.054182 
L 125.109954 290.054182 
L 128.803985 290.054182 
L 132.498017 290.054182 
L 136.192048 290.054182 
L 139.886079 290.054182 
L 143.58011 290.054182 
L 147.274141 290.054182 
L 150.968173 290.054182 
L 154.662204 290.054182 
L 158.356235 290.054182 
L 162.050266 290.054182 
L 165.744298 290.054182 
L 169.438329 290.054182 
L 173.13236 290.054182 
L 176.826391 290.054182 
L 180.520422 290.054182 
L 184.214454 290.054182 
L 187.908485 290.054182 
L 191.602516 290.054182 
L 195.296547 290.054182 
L 198.990579 290.054182 
L 202.68461 290.054182 
L 206.378641 290.054182 
L 210.072672 290.054182 
L 213.766703 290.054182 
L 217.460735 290.054182 
L 221.154766 290.054182 
L 224.848797 290.054182 
L 228.542828 290.054182 
L 232.23686 290.054182 
L 235.930891 290.054182 
L 239.624922 290.054182 
L 243.318953 290.054182 
L 247.012984 290.054182 
L 250.707016 290.054182 
L 254.401047 290.054182 
L 258.095078 290.054182 
L 261.789109 290.054182 
L 265.48314 290.054182 
L 269.177172 290.054182 
L 272.871203 290.054182 
L 276.565234 290.054182 
L 280.259265 290.054182 
L 283.953297 290.054182 
L 287.647328 290.054182 
L 291.341359 290.054182 
L 295.03539 290.054182 
L 298.729421 290.054182 
L 302.423453 290.054182 
L 306.117484 290.054182 
L 309.811515 290.054182 
L 313.505546 290.054182 
L 317.199578 290.054182 
L 320.893609 290.054182 
L 324.58764 290.054182 
L 328.281671 290.054182 
L 331.975702 290.054182 
L 335.669734 290.054182 
L 339.363765 290.054182 
L 343.057796 290.054182 
L 346.751827 290.054182 
L 350.445859 290.054182 
L 354.13989 290.054182 
L 357.833921 290.054182 
L 361.527952 290.054182 
L 365.221983 290.054182 
L 368.916015 290.054182 
L 372.610046 290.054182 
L 376.304077 290.054182 
L 379.998108 290.054182 
L 383.69214 290.054182 
L 387.386171 290.054182 
L 391.080202 290.054182 
L 394.774233 290.054182 
L 398.468264 290.054182 
L 402.162296 290.054182 
L 405.856327 290.054182 
L 409.550358 290.054182 
L 413.244389 290.054182 
L 416.938421 290.054182 
L 420.632452 290.054182 
L 424.326483 290.054182 
L 428.020514 290.054182 
L 431.714545 290.054182 
" clip-path="url(#pa71af9b74d)" style="fill: none; stroke: #1f77b4; stroke-width: 1.5; stroke-linecap: square"/>
   </g>
   <g id="line2d_15">
    <path d="M 66.005455 290.054182 
L 69.699486 290.021052 
L 73.393517 289.921499 
L 77.087548 289.755629 
L 80.781579 289.523592 
L 84.475611 289.225604 
L 88.169642 288.861937 
L 91.863673 288.433085 
L 95.557704 287.939307 
L 99.251736 287.381025 
L 102.945767 286.758742 
L 106.639798 286.073017 
L 110.333829 285.324615 
L 114.02786 284.514123 
L 117.721892 283.642178 
L 121.415923 282.709534 
L 125.109954 281.717135 
L 128.803985 280.665835 
L 132.498017 279.556379 
L 136.192048 278.389708 
L 139.886079 277.167081 
L 143.58011 275.889182 
L 147.274141 274.55709 
L 150.968173 273.172134 
L 154.662204 271.735066 
L 158.356235 270.247256 
L 162.050266 268.709735 
L 165.744298 267.123647 
L 169.438329 265.490291 
L 173.13236 263.810703 
L 176.826391 262.08625 
L 180.520422 260.318038 
L 184.214454 258.507304 
L 187.908485 256.655406 
L 191.602516 254.763346 
L 195.296547 252.832628 
L 198.990579 250.864356 
L 202.68461 248.859694 
L 206.378641 246.819976 
L 210.072672 244.746518 
L 213.766703 242.64039 
L 217.460735 240.502823 
L 221.154766 238.335032 
L 224.848797 236.138222 
L 228.542828 233.913579 
L 232.23686 231.662275 
L 235.930891 229.385469 
L 239.624922 227.084275 
L 243.318953 224.759826 
L 247.012984 222.413209 
L 250.707016 220.045496 
L 254.401047 217.657734 
L 258.095078 215.250951 
L 261.789109 212.826149 
L 265.48314 210.384425 
L 269.177172 207.926759 
L 272.871203 205.453965 
L 276.565234 202.967058 
L 280.259265 200.467047 
L 283.953297 197.954575 
L 287.647328 195.430846 
L 291.341359 192.896347 
L 295.03539 190.352241 
L 298.729421 187.798994 
L 302.423453 185.237697 
L 306.117484 182.668891 
L 309.811515 180.093288 
L 313.505546 177.511841 
L 317.199578 174.925035 
L 320.893609 172.333544 
L 324.58764 169.738032 
L 328.281671 167.13914 
L 331.975702 164.537559 
L 335.669734 161.933777 
L 339.363765 159.328363 
L 343.057796 156.721864 
L 346.751827 154.114803 
L 350.445859 151.507682 
L 354.13989 148.901061 
L 357.833921 146.295366 
L 361.527952 143.691019 
L 365.221983 141.088438 
L 368.916015 138.488023 
L 372.610046 135.890343 
L 376.304077 133.295638 
L 379.998108 130.70421 
L 383.69214 128.116658 
L 387.386171 125.533076 
L 391.080202 122.953933 
L 394.774233 120.379463 
L 398.468264 117.810034 
L 402.162296 115.245814 
L 405.856327 112.687272 
L 409.550358 110.13445 
L 413.244389 107.587712 
L 416.938421 105.047336 
L 420.632452 102.513433 
L 424.326483 99.986233 
L 428.020514 97.465993 
L 431.714545 94.952944 
" clip-path="url(#pa71af9b74d)" style="fill: none; stroke: #ff7f0e; stroke-width: 1.5; stroke-linecap: square"/>
   </g>
   <g id="line2d_16">
    <path d="M 66.005455 290.054182 
L 69.699486 289.996698 
L 73.393517 289.824272 
L 77.087548 289.537195 
L 80.781579 289.13595 
L 84.475611 288.621214 
L 88.169642 287.993849 
L 91.863673 287.2549 
L 95.557704 286.40559 
L 99.251736 285.44731 
L 102.945767 284.381614 
L 106.639798 283.210213 
L 110.333829 281.934964 
L 114.02786 280.557858 
L 117.721892 279.081016 
L 121.415923 277.506676 
L 125.109954 275.837182 
L 128.803985 274.075007 
L 132.498017 272.222773 
L 136.192048 270.282975 
L 139.886079 268.258394 
L 143.58011 266.151757 
L 147.274141 263.965875 
L 150.968173 261.703539 
L 154.662204 259.367749 
L 158.356235 256.961274 
L 162.050266 254.487041 
L 165.744298 251.947971 
L 169.438329 249.346971 
L 173.13236 246.686931 
L 176.826391 243.970708 
L 180.520422 241.201128 
L 184.214454 238.380972 
L 187.908485 235.513098 
L 191.602516 232.600149 
L 195.296547 229.644832 
L 198.990579 226.649723 
L 202.68461 223.617497 
L 206.378641 220.550561 
L 210.072672 217.45138 
L 213.766703 214.322342 
L 217.460735 211.165762 
L 221.154766 207.983872 
L 224.848797 204.778828 
L 228.542828 201.552829 
L 232.23686 198.3078 
L 235.930891 195.045762 
L 239.624922 191.768541 
L 243.318953 188.478079 
L 247.012984 185.176026 
L 250.707016 181.86408 
L 254.401047 178.543859 
L 258.095078 175.216906 
L 261.789109 171.884681 
L 265.48314 168.548639 
L 269.177172 165.210117 
L 272.871203 161.870333 
L 276.565234 158.53062 
L 280.259265 155.192059 
L 283.953297 151.85576 
L 287.647328 148.522794 
L 291.341359 145.194168 
L 295.03539 141.870829 
L 298.729421 138.553662 
L 302.423453 135.243494 
L 306.117484 131.941097 
L 309.811515 128.647275 
L 313.505546 125.362702 
L 317.199578 122.088061 
L 320.893609 118.823927 
L 324.58764 115.570954 
L 328.281671 112.329661 
L 331.975702 109.100545 
L 335.669734 105.884083 
L 339.363765 102.680717 
L 343.057796 99.49089 
L 346.751827 96.31498 
L 350.445859 93.153289 
L 354.13989 90.006208 
L 357.833921 86.873986 
L 361.527952 83.756959 
L 365.221983 80.655313 
L 368.916015 77.5693 
L 372.610046 74.499175 
L 376.304077 71.445086 
L 379.998108 68.407201 
L 383.69214 65.385672 
L 387.386171 62.380677 
L 391.080202 59.39229 
L 394.774233 56.420597 
L 398.468264 53.465729 
L 402.162296 50.527746 
L 405.856327 47.606701 
L 409.550358 44.702636 
L 413.244389 41.815637 
L 416.938421 38.945673 
L 420.632452 36.092774 
L 424.326483 33.256956 
L 428.020514 30.438218 
L 431.714545 27.636552 
" clip-path="url(#pa71af9b74d)" style="fill: none; stroke: #2ca02c; stroke-width: 1.5; stroke-linecap: square"/>
   </g>
   <g id="line2d_17">
    <path d="M 66.005455 290.054182 
L 69.699486 289.987807 
L 73.393517 289.788706 
L 77.087548 289.457382 
L 80.781579 288.994521 
L 84.475611 288.401077 
L 88.169642 287.678412 
L 91.863673 286.82796 
L 95.557704 285.851509 
L 99.251736 284.751122 
L 102.945767 283.529046 
L 106.639798 282.18773 
L 110.333829 280.729848 
L 114.02786 279.158262 
L 117.721892 277.475998 
L 121.415923 275.686232 
L 125.109954 273.792348 
L 128.803985 271.79771 
L 132.498017 269.705873 
L 136.192048 267.520505 
L 139.886079 265.245274 
L 143.58011 262.88392 
L 147.274141 260.440251 
L 150.968173 257.918085 
L 154.662204 255.32124 
L 158.356235 252.653513 
L 162.050266 249.918671 
L 165.744298 247.120543 
L 169.438329 244.262769 
L 173.13236 241.349095 
L 176.826391 238.383089 
L 180.520422 235.368284 
L 184.214454 232.308141 
L 187.908485 229.206092 
L 191.602516 226.065348 
L 195.296547 222.889176 
L 198.990579 219.680626 
L 202.68461 216.442725 
L 206.378641 213.178377 
L 210.072672 209.890369 
L 213.766703 206.581366 
L 217.460735 203.254023 
L 221.154766 199.91074 
L 224.848797 196.553922 
L 228.542828 193.185853 
L 232.23686 189.808696 
L 235.930891 186.424498 
L 239.624922 183.035189 
L 243.318953 179.642719 
L 247.012984 176.248781 
L 250.707016 172.855073 
L 254.401047 169.463185 
L 258.095078 166.074607 
L 261.789109 162.690725 
L 265.48314 159.312941 
L 269.177172 155.94242 
L 272.871203 152.580362 
L 276.565234 149.22788 
L 280.259265 145.886002 
L 283.953297 142.555675 
L 287.647328 139.237769 
L 291.341359 135.933156 
L 295.03539 132.642563 
L 298.729421 129.366748 
L 302.423453 126.106355 
L 306.117484 122.861985 
L 309.811515 119.63423 
L 313.505546 116.423566 
L 317.199578 113.23047 
L 320.893609 110.055381 
L 324.58764 106.898698 
L 328.281671 103.76075 
L 331.975702 100.64186 
L 335.669734 97.542307 
L 339.363765 94.462346 
L 343.057796 91.40222 
L 346.751827 88.362072 
L 350.445859 85.342122 
L 354.13989 82.342483 
L 357.833921 79.363272 
L 361.527952 76.404592 
L 365.221983 73.466515 
L 368.916015 70.549092 
L 372.610046 67.652389 
L 376.304077 64.7764 
L 379.998108 61.921143 
L 383.69214 59.086589 
L 387.386171 56.272752 
L 391.080202 53.479575 
L 394.774233 50.707009 
L 398.468264 47.954992 
L 402.162296 45.223475 
L 405.856327 42.512373 
L 409.550358 39.821571 
L 413.244389 37.151023 
L 416.938421 34.500573 
L 420.632452 31.870161 
L 424.326483 29.259647 
L 428.020514 26.668907 
L 431.714545 24.097818 
" clip-path="url(#pa71af9b74d)" style="fill: none; stroke: #d62728; stroke-width: 1.5; stroke-linecap: square"/>
   </g>
   <g id="line2d_18">
    <path d="M 66.005455 290.054182 
L 69.699486 289.996685 
L 73.393517 289.824288 
L 77.087548 289.537388 
L 80.781579 289.136645 
L 84.475611 288.622982 
L 88.169642 287.997575 
L 91.863673 287.261813 
L 95.557704 286.417339 
L 99.251736 285.466017 
L 102.945767 284.409918 
L 106.639798 283.251346 
L 110.333829 281.992727 
L 114.02786 280.636672 
L 117.721892 279.186013 
L 121.415923 277.64361 
L 125.109954 276.012548 
L 128.803985 274.295955 
L 132.498017 272.49706 
L 136.192048 270.61917 
L 139.886079 268.665661 
L 143.58011 266.639949 
L 147.274141 264.545439 
L 150.968173 262.385607 
L 154.662204 260.163904 
L 158.356235 257.88375 
L 162.050266 255.548573 
L 165.744298 253.161759 
L 169.438329 250.726611 
L 173.13236 248.246437 
L 176.826391 245.724453 
L 180.520422 243.163793 
L 184.214454 240.567563 
L 187.908485 237.938708 
L 191.602516 235.280176 
L 195.296547 232.594756 
L 198.990579 229.885178 
L 202.68461 227.15406 
L 206.378641 224.403968 
L 210.072672 221.637287 
L 213.766703 218.856373 
L 217.460735 216.063465 
L 221.154766 213.260689 
L 224.848797 210.450055 
L 228.542828 207.63355 
L 232.23686 204.812977 
L 235.930891 201.990092 
L 239.624922 199.166542 
L 243.318953 196.343932 
L 247.012984 193.52369 
L 250.707016 190.707232 
L 254.401047 187.895874 
L 258.095078 185.090841 
L 261.789109 182.293267 
L 265.48314 179.504269 
L 269.177172 176.724824 
L 272.871203 173.955882 
L 276.565234 171.198313 
L 280.259265 168.452929 
L 283.953297 165.720493 
L 287.647328 163.001688 
L 291.341359 160.297151 
L 295.03539 157.607473 
L 298.729421 154.933185 
L 302.423453 152.274803 
L 306.117484 149.632737 
L 309.811515 147.007424 
L 313.505546 144.399215 
L 317.199578 141.808437 
L 320.893609 139.235396 
L 324.58764 136.680323 
L 328.281671 134.143475 
L 331.975702 131.625028 
L 335.669734 129.125159 
L 339.363765 126.644014 
L 343.057796 124.181705 
L 346.751827 121.738333 
L 350.445859 119.313977 
L 354.13989 116.908686 
L 357.833921 114.52249 
L 361.527952 112.155415 
L 365.221983 109.807459 
L 368.916015 107.478603 
L 372.610046 105.16883 
L 376.304077 102.878091 
L 379.998108 100.606341 
L 383.69214 98.353503 
L 387.386171 96.119508 
L 391.080202 93.904274 
L 394.774233 91.707704 
L 398.468264 89.529688 
L 402.162296 87.370143 
L 405.856327 85.228918 
L 409.550358 83.105926 
L 413.244389 81.001016 
L 416.938421 78.914059 
L 420.632452 76.844918 
L 424.326483 74.793451 
L 428.020514 72.759507 
L 431.714545 70.74296 
" clip-path="url(#pa71af9b74d)" style="fill: none; stroke: #9467bd; stroke-width: 1.5; stroke-linecap: square"/>
   </g>
   <g id="line2d_19">
    <path d="M 66.005455 290.054182 
L 69.699486 290.020985 
L 73.393517 289.921446 
L 77.087548 289.755785 
L 80.781579 289.524367 
L 84.475611 289.227709 
L 88.169642 288.866445 
L 91.863673 288.441354 
L 95.557704 287.953345 
L 99.251736 287.403452 
L 102.945767 286.792825 
L 106.639798 286.122739 
L 110.333829 285.394553 
L 114.02786 284.609724 
L 117.721892 283.769824 
L 121.415923 282.876473 
L 125.109954 281.931377 
L 128.803985 280.936307 
L 132.498017 279.893086 
L 136.192048 278.803574 
L 139.886079 277.66969 
L 143.58011 276.493349 
L 147.274141 275.276529 
L 150.968173 274.021179 
L 154.662204 272.729278 
L 158.356235 271.402804 
L 162.050266 270.0437 
L 165.744298 268.653932 
L 169.438329 267.235422 
L 173.13236 265.790073 
L 176.826391 264.319759 
L 180.520422 262.826303 
L 184.214454 261.31151 
L 187.908485 259.77714 
L 191.602516 258.224899 
L 195.296547 256.656435 
L 198.990579 255.073378 
L 202.68461 253.477271 
L 206.378641 251.86962 
L 210.072672 250.251881 
L 213.766703 248.625439 
L 217.460735 246.991644 
L 221.154766 245.351766 
L 224.848797 243.707039 
L 228.542828 242.05863 
L 232.23686 240.407655 
L 235.930891 238.755172 
L 239.624922 237.102189 
L 243.318953 235.449662 
L 247.012984 233.798493 
L 250.707016 232.14954 
L 254.401047 230.503599 
L 258.095078 228.861437 
L 261.789109 227.223755 
L 265.48314 225.591227 
L 269.177172 223.964471 
L 272.871203 222.34407 
L 276.565234 220.730569 
L 280.259265 219.124476 
L 283.953297 217.526256 
L 287.647328 215.93634 
L 291.341359 214.355128 
L 295.03539 212.782993 
L 298.729421 211.220267 
L 302.423453 209.667265 
L 306.117484 208.124262 
L 309.811515 206.591513 
L 313.505546 205.069257 
L 317.199578 203.55769 
L 320.893609 202.057006 
L 324.58764 200.567362 
L 328.281671 199.088904 
L 331.975702 197.621754 
L 335.669734 196.166035 
L 339.363765 194.721817 
L 343.057796 193.289188 
L 346.751827 191.868209 
L 350.445859 190.458927 
L 354.13989 189.061378 
L 357.833921 187.675576 
L 361.527952 186.301546 
L 365.221983 184.939277 
L 368.916015 183.588767 
L 372.610046 182.249998 
L 376.304077 180.922943 
L 379.998108 179.607564 
L 383.69214 178.303833 
L 387.386171 177.011689 
L 391.080202 175.731081 
L 394.774233 174.461954 
L 398.468264 173.204242 
L 402.162296 171.957874 
L 405.856327 170.722771 
L 409.550358 169.498868 
L 413.244389 168.286068 
L 416.938421 167.084299 
L 420.632452 165.893467 
L 424.326483 164.713481 
L 428.020514 163.544248 
L 431.714545 162.385678 
" clip-path="url(#pa71af9b74d)" style="fill: none; stroke: #8c564b; stroke-width: 1.5; stroke-linecap: square"/>
   </g>
   <g id="line2d_20">
    <path d="M 66.005455 290.054182 
L 69.699486 290.054182 
L 73.393517 290.054182 
L 77.087548 290.054182 
L 80.781579 290.054182 
L 84.475611 290.054182 
L 88.169642 290.054182 
L 91.863673 290.054182 
L 95.557704 290.054182 
L 99.251736 290.054182 
L 102.945767 290.054182 
L 106.639798 290.054182 
L 110.333829 290.054182 
L 114.02786 290.054182 
L 117.721892 290.054182 
L 121.415923 290.054182 
L 125.109954 290.054182 
L 128.803985 290.054182 
L 132.498017 290.054182 
L 136.192048 290.054182 
L 139.886079 290.054182 
L 143.58011 290.054182 
L 147.274141 290.054182 
L 150.968173 290.054182 
L 154.662204 290.054182 
L 158.356235 290.054182 
L 162.050266 290.054182 
L 165.744298 290.054182 
L 169.438329 290.054182 
L 173.13236 290.054182 
L 176.826391 290.054182 
L 180.520422 290.054182 
L 184.214454 290.054182 
L 187.908485 290.054182 
L 191.602516 290.054182 
L 195.296547 290.054182 
L 198.990579 290.054182 
L 202.68461 290.054182 
L 206.378641 290.054182 
L 210.072672 290.054182 
L 213.766703 290.054182 
L 217.460735 290.054182 
L 221.154766 290.054182 
L 224.848797 290.054182 
L 228.542828 290.054182 
L 232.23686 290.054182 
L 235.930891 290.054182 
L 239.624922 290.054182 
L 243.318953 290.054182 
L 247.012984 290.054182 
L 250.707016 290.054182 
L 254.401047 290.054182 
L 258.095078 290.054182 
L 261.789109 290.054182 
L 265.48314 290.054182 
L 269.177172 290.054182 
L 272.871203 290.054182 
L 276.565234 290.054182 
L 280.259265 290.054182 
L 283.953297 290.054182 
L 287.647328 290.054182 
L 291.341359 290.054182 
L 295.03539 290.054182 
L 298.729421 290.054182 
L 302.423453 290.054182 
L 306.117484 290.054182 
L 309.811515 290.054182 
L 313.505546 290.054182 
L 317.199578 290.054182 
L 320.893609 290.054182 
L 324.58764 290.054182 
L 328.281671 290.054182 
L 331.975702 290.054182 
L 335.669734 290.054182 
L 339.363765 290.054182 
L 343.057796 290.054182 
L 346.751827 290.054182 
L 350.445859 290.054182 
L 354.13989 290.054182 
L 357.833921 290.054182 
L 361.527952 290.054182 
L 365.221983 290.054182 
L 368.916015 290.054182 
L 372.610046 290.054182 
L 376.304077 290.054182 
L 379.998108 290.054182 
L 383.69214 290.054182 
L 387.386171 290.054182 
L 391.080202 290.054182 
L 394.774233 290.054182 
L 398.468264 290.054182 
L 402.162296 290.054182 
L 405.856327 290.054182 
L 409.550358 290.054182 
L 413.244389 290.054182 
L 416.938421 290.054182 
L 420.632452 290.054182 
L 424.326483 290.054182 
L 428.020514 290.054182 
L 431.714545 290.054182 
" clip-path="url(#pa71af9b74d)" style="fill: none; stroke: #e377c2; stroke-width: 1.5; stroke-linecap: square"/>
   </g>
   <g id="patch_3">
    <path d="M 47.72 303.352 
L 47.72 10.8 
" style="fill: none; stroke: #000000; stroke-width: 0.8; stroke-linejoin: miter; stroke-linecap: square"/>
   </g>
   <g id="patch_4">
    <path d="M 450 303.352 
L 450 10.8 
" style="fill: none; stroke: #000000; stroke-width: 0.8; stroke-linejoin: miter; stroke-linecap: square"/>
   </g>
   <g id="patch_5">
    <path d="M 47.72 303.352 
L 450 303.352 
" style="fill: none; stroke: #000000; stroke-width: 0.8; stroke-linejoin: miter; stroke-linecap: square"/>
   </g>
   <g id="patch_6">
    <path d="M 47.72 10.8 
L 450 10.8 
" style="fill: none; stroke: #000000; stroke-width: 0.8; stroke-linejoin: miter; stroke-linecap: square"/>
   </g>
  </g>
  <g id="legend_1">
   <g id="patch_7">
    <path d="M 168.134375 81.390625 
L 292.665625 81.390625 
Q 294.665625 81.390625 294.665625 79.390625 
L 294.665625 7 
Q 294.665625 5 292.665625 5 
L 168.134375 5 
Q 166.134375 5 166.134375 7 
L 166.134375 79.390625 
Q 166.134375 81.390625 168.134375 81.390625 
z
" style="fill: #ffffff; opacity: 0.8; stroke: #cccccc; stroke-linejoin: miter"/>
   </g>
   <g id="text_16">
    <!-- $\theta$ (°) -->
    <g transform="translate(219.35 16.598437) scale(0.1 -0.1)">
     <defs>
      <path id="DejaVuSans-Oblique-3b8" d="M 2913 2219 
L 925 2219 
Q 791 1284 928 888 
Q 1100 400 1566 400 
Q 2034 400 2391 891 
Q 2703 1322 2913 2219 
z
M 3009 2750 
Q 3094 3638 2984 3950 
Q 2813 4444 2353 4444 
Q 1875 4444 1525 3956 
Q 1250 3563 1034 2750 
L 3009 2750 
z
M 2444 4913 
Q 3194 4913 3494 4250 
Q 3794 3591 3566 2422 
Q 3341 1256 2781 594 
Q 2225 -72 1475 -72 
Q 722 -72 425 594 
Q 128 1256 353 2422 
Q 581 3591 1134 4250 
Q 1691 4913 2444 4913 
z
" transform="scale(0.015625)"/>
      <path id="DejaVuSans-20" transform="scale(0.015625)"/>
      <path id="DejaVuSans-28" d="M 1984 4856 
Q 1566 4138 1362 3434 
Q 1159 2731 1159 2009 
Q 1159 1288 1364 580 
Q 1569 -128 1984 -844 
L 1484 -844 
Q 1016 -109 783 600 
Q 550 1309 550 2009 
Q 550 2706 781 3412 
Q 1013 4119 1484 4856 
L 1984 4856 
z
" transform="scale(0.015625)"/>
      <path id="DejaVuSans-b0" d="M 1600 4347 
Q 1350 4347 1178 4173 
Q 1006 4000 1006 3750 
Q 1006 3503 1178 3333 
Q 1350 3163 1600 3163 
Q 1850 3163 2022 3333 
Q 2194 3503 2194 3750 
Q 2194 3997 2020 4172 
Q 1847 4347 1600 4347 
z
M 1600 4750 
Q 1800 4750 1984 4673 
Q 2169 4597 2303 4453 
Q 2447 4313 2519 4134 
Q 2591 3956 2591 3750 
Q 2591 3338 2302 3052 
Q 2013 2766 1594 2766 
Q 1172 2766 890 3047 
Q 609 3328 609 3750 
Q 609 4169 896 4459 
Q 1184 4750 1600 4750 
z
" transform="scale(0.015625)"/>
      <path id="DejaVuSans-29" d="M 513 4856 
L 1013 4856 
Q 1481 4119 1714 3412 
Q 1947 2706 1947 2009 
Q 1947 1309 1714 600 
Q 1481 -109 1013 -844 
L 513 -844 
Q 928 -128 1133 580 
Q 1338 1288 1338 2009 
Q 1338 2731 1133 3434 
Q 928 4138 513 4856 
z
" transform="scale(0.015625)"/>
     </defs>
     <use xlink:href="#DejaVuSans-Oblique-3b8" transform="translate(0 0.234375)"/>
     <use xlink:href="#DejaVuSans-20" transform="translate(61.181641 0.234375)"/>
     <use xlink:href="#DejaVuSans-28" transform="translate(92.96875 0.234375)"/>
     <use xlink:href="#DejaVuSans-b0" transform="translate(131.982422 0.234375)"/>
     <use xlink:href="#DejaVuSans-29" transform="translate(181.982422 0.234375)"/>
    </g>
   </g>
   <g id="line2d_21">
    <path d="M 170.134375 27.776563 
L 180.134375 27.776563 
L 190.134375 27.776563 
" style="fill: none; stroke: #1f77b4; stroke-width: 1.5; stroke-linecap: square"/>
   </g>
   <g id="text_17">
    <!-- 0.0 -->
    <g transform="translate(198.134375 31.276563) scale(0.1 -0.1)">
     <use xlink:href="#DejaVuSans-30"/>
     <use xlink:href="#DejaVuSans-2e" transform="translate(63.623047 0)"/>
     <use xlink:href="#DejaVuSans-30" transform="translate(95.410156 0)"/>
    </g>
   </g>
   <g id="line2d_22">
    <path d="M 170.134375 42.454688 
L 180.134375 42.454688 
L 190.134375 42.454688 
" style="fill: none; stroke: #ff7f0e; stroke-width: 1.5; stroke-linecap: square"/>
   </g>
   <g id="text_18">
    <!-- 15.0 -->
    <g transform="translate(198.134375 45.954688) scale(0.1 -0.1)">
     <defs>
      <path id="DejaVuSans-35" d="M 691 4666 
L 3169 4666 
L 3169 4134 
L 1269 4134 
L 1269 2991 
Q 1406 3038 1543 3061 
Q 1681 3084 1819 3084 
Q 2600 3084 3056 2656 
Q 3513 2228 3513 1497 
Q 3513 744 3044 326 
Q 2575 -91 1722 -91 
Q 1428 -91 1123 -41 
Q 819 9 494 109 
L 494 744 
Q 775 591 1075 516 
Q 1375 441 1709 441 
Q 2250 441 2565 725 
Q 2881 1009 2881 1497 
Q 2881 1984 2565 2268 
Q 2250 2553 1709 2553 
Q 1456 2553 1204 2497 
Q 953 2441 691 2322 
L 691 4666 
z
" transform="scale(0.015625)"/>
     </defs>
     <use xlink:href="#DejaVuSans-31"/>
     <use xlink:href="#DejaVuSans-35" transform="translate(63.623047 0)"/>
     <use xlink:href="#DejaVuSans-2e" transform="translate(127.246094 0)"/>
     <use xlink:href="#DejaVuSans-30" transform="translate(159.033203 0)"/>
    </g>
   </g>
   <g id="line2d_23">
    <path d="M 170.134375 57.132812 
L 180.134375 57.132812 
L 190.134375 57.132812 
" style="fill: none; stroke: #2ca02c; stroke-width: 1.5; stroke-linecap: square"/>
   </g>
   <g id="text_19">
    <!-- 30.0 -->
    <g transform="translate(198.134375 60.632812) scale(0.1 -0.1)">
     <defs>
      <path id="DejaVuSans-33" d="M 2597 2516 
Q 3050 2419 3304 2112 
Q 3559 1806 3559 1356 
Q 3559 666 3084 287 
Q 2609 -91 1734 -91 
Q 1441 -91 1130 -33 
Q 819 25 488 141 
L 488 750 
Q 750 597 1062 519 
Q 1375 441 1716 441 
Q 2309 441 2620 675 
Q 2931 909 2931 1356 
Q 2931 1769 2642 2001 
Q 2353 2234 1838 2234 
L 1294 2234 
L 1294 2753 
L 1863 2753 
Q 2328 2753 2575 2939 
Q 2822 3125 2822 3475 
Q 2822 3834 2567 4026 
Q 2313 4219 1838 4219 
Q 1578 4219 1281 4162 
Q 984 4106 628 3988 
L 628 4550 
Q 988 4650 1302 4700 
Q 1616 4750 1894 4750 
Q 2613 4750 3031 4423 
Q 3450 4097 3450 3541 
Q 3450 3153 3228 2886 
Q 3006 2619 2597 2516 
z
" transform="scale(0.015625)"/>
     </defs>
     <use xlink:href="#DejaVuSans-33"/>
     <use xlink:href="#DejaVuSans-30" transform="translate(63.623047 0)"/>
     <use xlink:href="#DejaVuSans-2e" transform="translate(127.246094 0)"/>
     <use xlink:href="#DejaVuSans-30" transform="translate(159.033203 0)"/>
    </g>
   </g>
   <g id="line2d_24">
    <path d="M 170.134375 71.810938 
L 180.134375 71.810938 
L 190.134375 71.810938 
" style="fill: none; stroke: #d62728; stroke-width: 1.5; stroke-linecap: square"/>
   </g>
   <g id="text_20">
    <!-- 45.0 -->
    <g transform="translate(198.134375 75.310938) scale(0.1 -0.1)">
     <use xlink:href="#DejaVuSans-34"/>
     <use xlink:href="#DejaVuSans-35" transform="translate(63.623047 0)"/>
     <use xlink:href="#DejaVuSans-2e" transform="translate(127.246094 0)"/>
     <use xlink:href="#DejaVuSans-30" transform="translate(159.033203 0)"/>
    </g>
   </g>
   <g id="line2d_25">
    <path d="M 240.4 27.776563 
L 250.4 27.776563 
L 260.4 27.776563 
" style="fill: none; stroke: #9467bd; stroke-width: 1.5; stroke-linecap: square"/>
   </g>
   <g id="text_21">
    <!-- 60.0 -->
    <g transform="translate(268.4 31.276563) scale(0.1 -0.1)">
     <use xlink:href="#DejaVuSans-36"/>
     <use xlink:href="#DejaVuSans-30" transform="translate(63.623047 0)"/>
     <use xlink:href="#DejaVuSans-2e" transform="translate(127.246094 0)"/>
     <use xlink:href="#DejaVuSans-30" transform="translate(159.033203 0)"/>
    </g>
   </g>
   <g id="line2d_26">
    <path d="M 240.4 42.454688 
L 250.4 42.454688 
L 260.4 42.454688 
" style="fill: none; stroke: #8c564b; stroke-width: 1.5; stroke-linecap: square"/>
   </g>
   <g id="text_22">
    <!-- 75.0 -->
    <g transform="translate(268.4 45.954688) scale(0.1 -0.1)">
     <defs>
      <path id="DejaVuSans-37" d="M 525 4666 
L 3525 4666 
L 3525 4397 
L 1831 0 
L 1172 0 
L 2766 4134 
L 525 4134 
L 525 4666 
z
" transform="scale(0.015625)"/>
     </defs>
     <use xlink:href="#DejaVuSans-37"/>
     <use xlink:href="#DejaVuSans-35" transform="translate(63.623047 0)"/>
     <use xlink:href="#DejaVuSans-2e" transform="translate(127.246094 0)"/>
     <use xlink:href="#DejaVuSans-30" transform="translate(159.033203 0)"/>
    </g>
   </g>
   <g id="line2d_27">
    <path d="M 240.4 57.132812 
L 250.4 57.132812 
L 260.4 57.132812 
" style="fill: none; stroke: #e377c2; stroke-width: 1.5; stroke-linecap: square"/>
   </g>
   <g id="text_23">
    <!-- 90.0 -->
    <g transform="translate(268.4 60.632812) scale(0.1 -0.1)">
     <defs>
      <path id="DejaVuSans-39" d="M 703 97 
L 703 672 
Q 941 559 1184 500 
Q 1428 441 1663 441 
Q 2288 441 2617 861 
Q 2947 1281 2994 2138 
Q 2813 1869 2534 1725 
Q 2256 1581 1919 1581 
Q 1219 1581 811 2004 
Q 403 2428 403 3163 
Q 403 3881 828 4315 
Q 1253 4750 1959 4750 
Q 2769 4750 3195 4129 
Q 3622 3509 3622 2328 
Q 3622 1225 3098 567 
Q 2575 -91 1691 -91 
Q 1453 -91 1209 -44 
Q 966 3 703 97 
z
M 1959 2075 
Q 2384 2075 2632 2365 
Q 2881 2656 2881 3163 
Q 2881 3666 2632 3958 
Q 2384 4250 1959 4250 
Q 1534 4250 1286 3958 
Q 1038 3666 1038 3163 
Q 1038 2656 1286 2365 
Q 1534 2075 1959 2075 
z
" transform="scale(0.015625)"/>
     </defs>
     <use xlink:href="#DejaVuSans-39"/>
     <use xlink:href="#DejaVuSans-30" transform="translate(63.623047 0)"/>
     <use xlink:href="#DejaVuSans-2e" transform="translate(127.246094 0)"/>
     <use xlink:href="#DejaVuSans-30" transform="translate(159.033203 0)"/>
    </g>
   </g>
  </g>
 </g>
 <defs>
  <clipPath id="pa71af9b74d">
   <rect x="47.72" y="10.8" width="402.28" height="292.552"/>
  </clipPath>
 </defs>
</svg>
