<?xml version="1.0" encoding="utf-8" standalone="no"?>
<!DOCTYPE svg PUBLIC "-//W3C//DTD SVG 1.1//EN"
  "http://www.w3.org/Graphics/SVG/1.1/DTD/svg11.dtd">
<svg xmlns:xlink="http://www.w3.org/1999/xlink" width="460.8pt" height="345.6pt" viewBox="0 0 460.8 345.6" xmlns="http://www.w3.org/2000/svg" version="1.1">
 <metadata>
  <rdf:RDF xmlns:dc="http://purl.org/dc/elements/1.1/" xmlns:cc="http://creativecommons.org/ns#" xmlns:rdf="http://www.w3.org/1999/02/22-rdf-syntax-ns#">
   <cc:Work>
    <dc:type rdf:resource="http://purl.org/dc/dcmitype/StillImage"/>
    <dc:date>2025-05-12T09:28:55.081595</dc:date>
    <dc:format>image/svg+xml</dc:format>
    <dc:creator>
     <cc:Agent>
      <dc:title>Matplotlib v3.10.1, https://matplotlib.org/</dc:title>
     </cc:Agent>
    </dc:creator>
   </cc:Work>
  </rdf:RDF>
 </metadata>
 <defs>
  <style type="text/css">*{stroke-linejoin: round; stroke-linecap: butt}</style>
 </defs>
 <g id="figure_1">
  <g id="patch_1">
   <path d="M 0 345.6 
L 460.8 345.6 
L 460.8 0 
L 0 0 
z
" style="fill: #ffffff"/>
  </g>
  <g id="axes_1">
   <g id="patch_2">
    <path d="M 54.02 303.352 
L 450 303.352 
L 450 11.157112 
L 54.02 11.157112 
z
" style="fill: #ffffff"/>
   </g>
   <g id="matplotlib.axis_1">
    <g id="xtick_1">
     <g id="line2d_1">
      <defs>
       <path id="ma9a1e05f5a" d="M 0 0 
L 0 3.5 
" style="stroke: #000000; stroke-width: 0.8"/>
      </defs>
      <g>
       <use xlink:href="#ma9a1e05f5a" x="72.019091" y="303.352" style="stroke: #000000; stroke-width: 0.8"/>
      </g>
     </g>
     <g id="text_1">
      <!-- 0.0 -->
      <g transform="translate(64.067528 317.950437) scale(0.1 -0.1)">
       <defs>
        <path id="DejaVuSans-30" d="M 2034 4250 
Q 1547 4250 1301 3770 
Q 1056 3291 1056 2328 
Q 1056 1369 1301 889 
Q 1547 409 2034 409 
Q 2525 409 2770 889 
Q 3016 1369 3016 2328 
Q 3016 3291 2770 3770 
Q 2525 4250 2034 4250 
z
M 2034 4750 
Q 2819 4750 3233 4129 
Q 3647 3509 3647 2328 
Q 3647 1150 3233 529 
Q 2819 -91 2034 -91 
Q 1250 -91 836 529 
Q 422 1150 422 2328 
Q 422 3509 836 4129 
Q 1250 4750 2034 4750 
z
" transform="scale(0.015625)"/>
        <path id="DejaVuSans-2e" d="M 684 794 
L 1344 794 
L 1344 0 
L 684 0 
L 684 794 
z
" transform="scale(0.015625)"/>
       </defs>
       <use xlink:href="#DejaVuSans-30"/>
       <use xlink:href="#DejaVuSans-2e" transform="translate(63.623047 0)"/>
       <use xlink:href="#DejaVuSans-30" transform="translate(95.410156 0)"/>
      </g>
     </g>
    </g>
    <g id="xtick_2">
     <g id="line2d_2">
      <g>
       <use xlink:href="#ma9a1e05f5a" x="117.016818" y="303.352" style="stroke: #000000; stroke-width: 0.8"/>
      </g>
     </g>
     <g id="text_2">
      <!-- 0.5 -->
      <g transform="translate(109.065256 317.950437) scale(0.1 -0.1)">
       <defs>
        <path id="DejaVuSans-35" d="M 691 4666 
L 3169 4666 
L 3169 4134 
L 1269 4134 
L 1269 2991 
Q 1406 3038 1543 3061 
Q 1681 3084 1819 3084 
Q 2600 3084 3056 2656 
Q 3513 2228 3513 1497 
Q 3513 744 3044 326 
Q 2575 -91 1722 -91 
Q 1428 -91 1123 -41 
Q 819 9 494 109 
L 494 744 
Q 775 591 1075 516 
Q 1375 441 1709 441 
Q 2250 441 2565 725 
Q 2881 1009 2881 1497 
Q 2881 1984 2565 2268 
Q 2250 2553 1709 2553 
Q 1456 2553 1204 2497 
Q 953 2441 691 2322 
L 691 4666 
z
" transform="scale(0.015625)"/>
       </defs>
       <use xlink:href="#DejaVuSans-30"/>
       <use xlink:href="#DejaVuSans-2e" transform="translate(63.623047 0)"/>
       <use xlink:href="#DejaVuSans-35" transform="translate(95.410156 0)"/>
      </g>
     </g>
    </g>
    <g id="xtick_3">
     <g id="line2d_3">
      <g>
       <use xlink:href="#ma9a1e05f5a" x="162.014545" y="303.352" style="stroke: #000000; stroke-width: 0.8"/>
      </g>
     </g>
     <g id="text_3">
      <!-- 1.0 -->
      <g transform="translate(154.062983 317.950437) scale(0.1 -0.1)">
       <defs>
        <path id="DejaVuSans-31" d="M 794 531 
L 1825 531 
L 1825 4091 
L 703 3866 
L 703 4441 
L 1819 4666 
L 2450 4666 
L 2450 531 
L 3481 531 
L 3481 0 
L 794 0 
L 794 531 
z
" transform="scale(0.015625)"/>
       </defs>
       <use xlink:href="#DejaVuSans-31"/>
       <use xlink:href="#DejaVuSans-2e" transform="translate(63.623047 0)"/>
       <use xlink:href="#DejaVuSans-30" transform="translate(95.410156 0)"/>
      </g>
     </g>
    </g>
    <g id="xtick_4">
     <g id="line2d_4">
      <g>
       <use xlink:href="#ma9a1e05f5a" x="207.012273" y="303.352" style="stroke: #000000; stroke-width: 0.8"/>
      </g>
     </g>
     <g id="text_4">
      <!-- 1.5 -->
      <g transform="translate(199.06071 317.950437) scale(0.1 -0.1)">
       <use xlink:href="#DejaVuSans-31"/>
       <use xlink:href="#DejaVuSans-2e" transform="translate(63.623047 0)"/>
       <use xlink:href="#DejaVuSans-35" transform="translate(95.410156 0)"/>
      </g>
     </g>
    </g>
    <g id="xtick_5">
     <g id="line2d_5">
      <g>
       <use xlink:href="#ma9a1e05f5a" x="252.01" y="303.352" style="stroke: #000000; stroke-width: 0.8"/>
      </g>
     </g>
     <g id="text_5">
      <!-- 2.0 -->
      <g transform="translate(244.058438 317.950437) scale(0.1 -0.1)">
       <defs>
        <path id="DejaVuSans-32" d="M 1228 531 
L 3431 531 
L 3431 0 
L 469 0 
L 469 531 
Q 828 903 1448 1529 
Q 2069 2156 2228 2338 
Q 2531 2678 2651 2914 
Q 2772 3150 2772 3378 
Q 2772 3750 2511 3984 
Q 2250 4219 1831 4219 
Q 1534 4219 1204 4116 
Q 875 4013 500 3803 
L 500 4441 
Q 881 4594 1212 4672 
Q 1544 4750 1819 4750 
Q 2544 4750 2975 4387 
Q 3406 4025 3406 3419 
Q 3406 3131 3298 2873 
Q 3191 2616 2906 2266 
Q 2828 2175 2409 1742 
Q 1991 1309 1228 531 
z
" transform="scale(0.015625)"/>
       </defs>
       <use xlink:href="#DejaVuSans-32"/>
       <use xlink:href="#DejaVuSans-2e" transform="translate(63.623047 0)"/>
       <use xlink:href="#DejaVuSans-30" transform="translate(95.410156 0)"/>
      </g>
     </g>
    </g>
    <g id="xtick_6">
     <g id="line2d_6">
      <g>
       <use xlink:href="#ma9a1e05f5a" x="297.007727" y="303.352" style="stroke: #000000; stroke-width: 0.8"/>
      </g>
     </g>
     <g id="text_6">
      <!-- 2.5 -->
      <g transform="translate(289.056165 317.950437) scale(0.1 -0.1)">
       <use xlink:href="#DejaVuSans-32"/>
       <use xlink:href="#DejaVuSans-2e" transform="translate(63.623047 0)"/>
       <use xlink:href="#DejaVuSans-35" transform="translate(95.410156 0)"/>
      </g>
     </g>
    </g>
    <g id="xtick_7">
     <g id="line2d_7">
      <g>
       <use xlink:href="#ma9a1e05f5a" x="342.005455" y="303.352" style="stroke: #000000; stroke-width: 0.8"/>
      </g>
     </g>
     <g id="text_7">
      <!-- 3.0 -->
      <g transform="translate(334.053892 317.950437) scale(0.1 -0.1)">
       <defs>
        <path id="DejaVuSans-33" d="M 2597 2516 
Q 3050 2419 3304 2112 
Q 3559 1806 3559 1356 
Q 3559 666 3084 287 
Q 2609 -91 1734 -91 
Q 1441 -91 1130 -33 
Q 819 25 488 141 
L 488 750 
Q 750 597 1062 519 
Q 1375 441 1716 441 
Q 2309 441 2620 675 
Q 2931 909 2931 1356 
Q 2931 1769 2642 2001 
Q 2353 2234 1838 2234 
L 1294 2234 
L 1294 2753 
L 1863 2753 
Q 2328 2753 2575 2939 
Q 2822 3125 2822 3475 
Q 2822 3834 2567 4026 
Q 2313 4219 1838 4219 
Q 1578 4219 1281 4162 
Q 984 4106 628 3988 
L 628 4550 
Q 988 4650 1302 4700 
Q 1616 4750 1894 4750 
Q 2613 4750 3031 4423 
Q 3450 4097 3450 3541 
Q 3450 3153 3228 2886 
Q 3006 2619 2597 2516 
z
" transform="scale(0.015625)"/>
       </defs>
       <use xlink:href="#DejaVuSans-33"/>
       <use xlink:href="#DejaVuSans-2e" transform="translate(63.623047 0)"/>
       <use xlink:href="#DejaVuSans-30" transform="translate(95.410156 0)"/>
      </g>
     </g>
    </g>
    <g id="xtick_8">
     <g id="line2d_8">
      <g>
       <use xlink:href="#ma9a1e05f5a" x="387.003182" y="303.352" style="stroke: #000000; stroke-width: 0.8"/>
      </g>
     </g>
     <g id="text_8">
      <!-- 3.5 -->
      <g transform="translate(379.051619 317.950437) scale(0.1 -0.1)">
       <use xlink:href="#DejaVuSans-33"/>
       <use xlink:href="#DejaVuSans-2e" transform="translate(63.623047 0)"/>
       <use xlink:href="#DejaVuSans-35" transform="translate(95.410156 0)"/>
      </g>
     </g>
    </g>
    <g id="xtick_9">
     <g id="line2d_9">
      <g>
       <use xlink:href="#ma9a1e05f5a" x="432.000909" y="303.352" style="stroke: #000000; stroke-width: 0.8"/>
      </g>
     </g>
     <g id="text_9">
      <!-- 4.0 -->
      <g transform="translate(424.049347 317.950437) scale(0.1 -0.1)">
       <defs>
        <path id="DejaVuSans-34" d="M 2419 4116 
L 825 1625 
L 2419 1625 
L 2419 4116 
z
M 2253 4666 
L 3047 4666 
L 3047 1625 
L 3713 1625 
L 3713 1100 
L 3047 1100 
L 3047 0 
L 2419 0 
L 2419 1100 
L 313 1100 
L 313 1709 
L 2253 4666 
z
" transform="scale(0.015625)"/>
       </defs>
       <use xlink:href="#DejaVuSans-34"/>
       <use xlink:href="#DejaVuSans-2e" transform="translate(63.623047 0)"/>
       <use xlink:href="#DejaVuSans-30" transform="translate(95.410156 0)"/>
      </g>
     </g>
    </g>
    <g id="text_10">
     <!-- $v_0$ -->
     <g transform="translate(246.66 331.628562) scale(0.1 -0.1)">
      <defs>
       <path id="DejaVuSans-Oblique-76" d="M 459 3500 
L 1069 3500 
L 1581 525 
L 3256 3500 
L 3866 3500 
L 1875 0 
L 1100 0 
L 459 3500 
z
" transform="scale(0.015625)"/>
      </defs>
      <use xlink:href="#DejaVuSans-Oblique-76" transform="translate(0 0.3125)"/>
      <use xlink:href="#DejaVuSans-30" transform="translate(59.179688 -16.09375) scale(0.7)"/>
     </g>
    </g>
   </g>
   <g id="matplotlib.axis_2">
    <g id="ytick_1">
     <g id="line2d_10">
      <defs>
       <path id="ma7f48931ca" d="M 0 0 
L -3.5 0 
" style="stroke: #000000; stroke-width: 0.8"/>
      </defs>
      <g>
       <use xlink:href="#ma7f48931ca" x="54.02" y="290.070414" style="stroke: #000000; stroke-width: 0.8"/>
      </g>
     </g>
     <g id="text_11">
      <!-- 0.00 -->
      <g transform="translate(24.754375 293.869633) scale(0.1 -0.1)">
       <use xlink:href="#DejaVuSans-30"/>
       <use xlink:href="#DejaVuSans-2e" transform="translate(63.623047 0)"/>
       <use xlink:href="#DejaVuSans-30" transform="translate(95.410156 0)"/>
       <use xlink:href="#DejaVuSans-30" transform="translate(159.033203 0)"/>
      </g>
     </g>
    </g>
    <g id="ytick_2">
     <g id="line2d_11">
      <g>
       <use xlink:href="#ma7f48931ca" x="54.02" y="255.700754" style="stroke: #000000; stroke-width: 0.8"/>
      </g>
     </g>
     <g id="text_12">
      <!-- 0.25 -->
      <g transform="translate(24.754375 259.499973) scale(0.1 -0.1)">
       <use xlink:href="#DejaVuSans-30"/>
       <use xlink:href="#DejaVuSans-2e" transform="translate(63.623047 0)"/>
       <use xlink:href="#DejaVuSans-32" transform="translate(95.410156 0)"/>
       <use xlink:href="#DejaVuSans-35" transform="translate(159.033203 0)"/>
      </g>
     </g>
    </g>
    <g id="ytick_3">
     <g id="line2d_12">
      <g>
       <use xlink:href="#ma7f48931ca" x="54.02" y="221.331095" style="stroke: #000000; stroke-width: 0.8"/>
      </g>
     </g>
     <g id="text_13">
      <!-- 0.50 -->
      <g transform="translate(24.754375 225.130313) scale(0.1 -0.1)">
       <use xlink:href="#DejaVuSans-30"/>
       <use xlink:href="#DejaVuSans-2e" transform="translate(63.623047 0)"/>
       <use xlink:href="#DejaVuSans-35" transform="translate(95.410156 0)"/>
       <use xlink:href="#DejaVuSans-30" transform="translate(159.033203 0)"/>
      </g>
     </g>
    </g>
    <g id="ytick_4">
     <g id="line2d_13">
      <g>
       <use xlink:href="#ma7f48931ca" x="54.02" y="186.961435" style="stroke: #000000; stroke-width: 0.8"/>
      </g>
     </g>
     <g id="text_14">
      <!-- 0.75 -->
      <g transform="translate(24.754375 190.760654) scale(0.1 -0.1)">
       <defs>
        <path id="DejaVuSans-37" d="M 525 4666 
L 3525 4666 
L 3525 4397 
L 1831 0 
L 1172 0 
L 2766 4134 
L 525 4134 
L 525 4666 
z
" transform="scale(0.015625)"/>
       </defs>
       <use xlink:href="#DejaVuSans-30"/>
       <use xlink:href="#DejaVuSans-2e" transform="translate(63.623047 0)"/>
       <use xlink:href="#DejaVuSans-37" transform="translate(95.410156 0)"/>
       <use xlink:href="#DejaVuSans-35" transform="translate(159.033203 0)"/>
      </g>
     </g>
    </g>
    <g id="ytick_5">
     <g id="line2d_14">
      <g>
       <use xlink:href="#ma7f48931ca" x="54.02" y="152.591775" style="stroke: #000000; stroke-width: 0.8"/>
      </g>
     </g>
     <g id="text_15">
      <!-- 1.00 -->
      <g transform="translate(24.754375 156.390994) scale(0.1 -0.1)">
       <use xlink:href="#DejaVuSans-31"/>
       <use xlink:href="#DejaVuSans-2e" transform="translate(63.623047 0)"/>
       <use xlink:href="#DejaVuSans-30" transform="translate(95.410156 0)"/>
       <use xlink:href="#DejaVuSans-30" transform="translate(159.033203 0)"/>
      </g>
     </g>
    </g>
    <g id="ytick_6">
     <g id="line2d_15">
      <g>
       <use xlink:href="#ma7f48931ca" x="54.02" y="118.222115" style="stroke: #000000; stroke-width: 0.8"/>
      </g>
     </g>
     <g id="text_16">
      <!-- 1.25 -->
      <g transform="translate(24.754375 122.021334) scale(0.1 -0.1)">
       <use xlink:href="#DejaVuSans-31"/>
       <use xlink:href="#DejaVuSans-2e" transform="translate(63.623047 0)"/>
       <use xlink:href="#DejaVuSans-32" transform="translate(95.410156 0)"/>
       <use xlink:href="#DejaVuSans-35" transform="translate(159.033203 0)"/>
      </g>
     </g>
    </g>
    <g id="ytick_7">
     <g id="line2d_16">
      <g>
       <use xlink:href="#ma7f48931ca" x="54.02" y="83.852456" style="stroke: #000000; stroke-width: 0.8"/>
      </g>
     </g>
     <g id="text_17">
      <!-- 1.50 -->
      <g transform="translate(24.754375 87.651674) scale(0.1 -0.1)">
       <use xlink:href="#DejaVuSans-31"/>
       <use xlink:href="#DejaVuSans-2e" transform="translate(63.623047 0)"/>
       <use xlink:href="#DejaVuSans-35" transform="translate(95.410156 0)"/>
       <use xlink:href="#DejaVuSans-30" transform="translate(159.033203 0)"/>
      </g>
     </g>
    </g>
    <g id="ytick_8">
     <g id="line2d_17">
      <g>
       <use xlink:href="#ma7f48931ca" x="54.02" y="49.482796" style="stroke: #000000; stroke-width: 0.8"/>
      </g>
     </g>
     <g id="text_18">
      <!-- 1.75 -->
      <g transform="translate(24.754375 53.282015) scale(0.1 -0.1)">
       <use xlink:href="#DejaVuSans-31"/>
       <use xlink:href="#DejaVuSans-2e" transform="translate(63.623047 0)"/>
       <use xlink:href="#DejaVuSans-37" transform="translate(95.410156 0)"/>
       <use xlink:href="#DejaVuSans-35" transform="translate(159.033203 0)"/>
      </g>
     </g>
    </g>
    <g id="ytick_9">
     <g id="line2d_18">
      <g>
       <use xlink:href="#ma7f48931ca" x="54.02" y="15.113136" style="stroke: #000000; stroke-width: 0.8"/>
      </g>
     </g>
     <g id="text_19">
      <!-- 2.00 -->
      <g transform="translate(24.754375 18.912355) scale(0.1 -0.1)">
       <use xlink:href="#DejaVuSans-32"/>
       <use xlink:href="#DejaVuSans-2e" transform="translate(63.623047 0)"/>
       <use xlink:href="#DejaVuSans-30" transform="translate(95.410156 0)"/>
       <use xlink:href="#DejaVuSans-30" transform="translate(159.033203 0)"/>
      </g>
     </g>
    </g>
    <g id="text_20">
     <!-- $R$ -->
     <g transform="translate(18.674688 160.754556) rotate(-90) scale(0.1 -0.1)">
      <defs>
       <path id="DejaVuSans-Oblique-52" d="M 1613 4147 
L 1294 2491 
L 2106 2491 
Q 2584 2491 2879 2755 
Q 3175 3019 3175 3444 
Q 3175 3784 2976 3965 
Q 2778 4147 2406 4147 
L 1613 4147 
z
M 2772 2241 
Q 2972 2194 3105 2009 
Q 3238 1825 3413 1275 
L 3809 0 
L 3144 0 
L 2778 1197 
Q 2638 1659 2453 1815 
Q 2269 1972 1888 1972 
L 1191 1972 
L 806 0 
L 172 0 
L 1081 4666 
L 2503 4666 
Q 3150 4666 3495 4373 
Q 3841 4081 3841 3531 
Q 3841 3044 3547 2687 
Q 3253 2331 2772 2241 
z
" transform="scale(0.015625)"/>
      </defs>
      <use xlink:href="#DejaVuSans-Oblique-52" transform="translate(0 0.09375)"/>
     </g>
    </g>
   </g>
   <g id="line2d_19">
    <path d="M 72.019091 290.070414 
L 75.655271 290.070414 
L 79.291451 290.070414 
L 82.927631 290.070414 
L 86.563811 290.070414 
L 90.199991 290.070414 
L 93.836171 290.070414 
L 97.472351 290.070414 
L 101.108531 290.070414 
L 104.744711 290.070414 
L 108.380891 290.070414 
L 112.017071 290.070414 
L 115.653251 290.070414 
L 119.289431 290.070414 
L 122.925611 290.070414 
L 126.561791 290.070414 
L 130.197971 290.070414 
L 133.834151 290.070414 
L 137.470331 290.070414 
L 141.106511 290.070414 
L 144.742691 290.070414 
L 148.378871 290.070414 
L 152.015051 290.070414 
L 155.65123 290.070414 
L 159.28741 290.070414 
L 162.92359 290.070414 
L 166.55977 290.070414 
L 170.19595 290.070414 
L 173.83213 290.070414 
L 177.46831 290.070414 
L 181.10449 290.070414 
L 184.74067 290.070414 
L 188.37685 290.070414 
L 192.01303 290.070414 
L 195.64921 290.070414 
L 199.28539 290.070414 
L 202.92157 290.070414 
L 206.55775 290.070414 
L 210.19393 290.070414 
L 213.83011 290.070414 
L 217.46629 290.070414 
L 221.10247 290.070414 
L 224.73865 290.070414 
L 228.37483 290.070414 
L 232.01101 290.070414 
L 235.64719 290.070414 
L 239.28337 290.070414 
L 242.91955 290.070414 
L 246.55573 290.070414 
L 250.19191 290.070414 
L 253.82809 290.070414 
L 257.46427 290.070414 
L 261.10045 290.070414 
L 264.73663 290.070414 
L 268.37281 290.070414 
L 272.00899 290.070414 
L 275.64517 290.070414 
L 279.28135 290.070414 
L 282.91753 290.070414 
L 286.55371 290.070414 
L 290.18989 290.070414 
L 293.82607 290.070414 
L 297.46225 290.070414 
L 301.09843 290.070414 
L 304.73461 290.070414 
L 308.37079 290.070414 
L 312.00697 290.070414 
L 315.64315 290.070414 
L 319.27933 290.070414 
L 322.91551 290.070414 
L 326.55169 290.070414 
L 330.18787 290.070414 
L 333.82405 290.070414 
L 337.46023 290.070414 
L 341.09641 290.070414 
L 344.73259 290.070414 
L 348.36877 290.070414 
L 352.004949 290.070414 
L 355.641129 290.070414 
L 359.277309 290.070414 
L 362.913489 290.070414 
L 366.549669 290.070414 
L 370.185849 290.070414 
L 373.822029 290.070414 
L 377.458209 290.070414 
L 381.094389 290.070414 
L 384.730569 290.070414 
L 388.366749 290.070414 
L 392.002929 290.070414 
L 395.639109 290.070414 
L 399.275289 290.070414 
L 402.911469 290.070414 
L 406.547649 290.070414 
L 410.183829 290.070414 
L 413.820009 290.070414 
L 417.456189 290.070414 
L 421.092369 290.070414 
L 424.728549 290.070414 
L 428.364729 290.070414 
L 432.000909 290.070414 
" clip-path="url(#p67ccf71b73)" style="fill: none; stroke: #1f77b4; stroke-width: 1.5; stroke-linecap: square"/>
   </g>
   <g id="line2d_20">
    <path d="M 72.019091 290.070414 
L 75.655271 289.958282 
L 79.291451 289.622579 
L 82.927631 289.065513 
L 86.563811 288.290703 
L 90.199991 287.303109 
L 93.836171 286.108994 
L 97.472351 284.715751 
L 101.108531 283.131629 
L 104.744711 281.365926 
L 108.380891 279.428525 
L 112.017071 277.329823 
L 115.653251 275.080639 
L 119.289431 272.692081 
L 122.925611 270.175267 
L 126.561791 267.541336 
L 130.197971 264.801245 
L 133.834151 261.965744 
L 137.470331 259.04523 
L 141.106511 256.049816 
L 144.742691 252.989002 
L 148.378871 249.871881 
L 152.015051 246.707049 
L 155.65123 243.502574 
L 159.28741 240.265944 
L 162.92359 237.004099 
L 166.55977 233.723526 
L 170.19595 230.430092 
L 173.83213 227.129272 
L 177.46831 223.825939 
L 181.10449 220.524676 
L 184.74067 217.229401 
L 188.37685 213.943838 
L 192.01303 210.671268 
L 195.64921 207.414551 
L 199.28539 204.176302 
L 202.92157 200.958786 
L 206.55775 197.764024 
L 210.19393 194.593729 
L 213.83011 191.449502 
L 217.46629 188.332565 
L 221.10247 185.244058 
L 224.73865 182.1849 
L 228.37483 179.155904 
L 232.01101 176.157647 
L 235.64719 173.190685 
L 239.28337 170.255409 
L 242.91955 167.352084 
L 246.55573 164.480846 
L 250.19191 161.641911 
L 253.82809 158.835236 
L 257.46427 156.060799 
L 261.10045 153.31851 
L 264.73663 150.608283 
L 268.37281 147.929844 
L 272.00899 145.28302 
L 275.64517 142.667557 
L 279.28135 140.08314 
L 282.91753 137.529498 
L 286.55371 135.006236 
L 290.18989 132.513033 
L 293.82607 130.049487 
L 297.46225 127.615258 
L 301.09843 125.209929 
L 304.73461 122.833108 
L 308.37079 120.484387 
L 312.00697 118.163314 
L 315.64315 115.86952 
L 319.27933 113.602533 
L 322.91551 111.361993 
L 326.55169 109.147447 
L 330.18787 106.958472 
L 333.82405 104.794647 
L 337.46023 102.655594 
L 341.09641 100.540869 
L 344.73259 98.450046 
L 348.36877 96.38278 
L 352.004949 94.338624 
L 355.641129 92.317187 
L 359.277309 90.318095 
L 362.913489 88.340969 
L 366.549669 86.385435 
L 370.185849 84.451114 
L 373.822029 82.537633 
L 377.458209 80.644618 
L 381.094389 78.771762 
L 384.730569 76.918671 
L 388.366749 75.085045 
L 392.002929 73.270507 
L 395.639109 71.474757 
L 399.275289 69.697481 
L 402.911469 67.938342 
L 406.547649 66.197034 
L 410.183829 64.473253 
L 413.820009 62.766699 
L 417.456189 61.077095 
L 421.092369 59.404155 
L 424.728549 57.747573 
L 428.364729 56.107092 
L 432.000909 54.482451 
" clip-path="url(#p67ccf71b73)" style="fill: none; stroke: #ff7f0e; stroke-width: 1.5; stroke-linecap: square"/>
   </g>
   <g id="line2d_21">
    <path d="M 72.019091 290.070414 
L 75.655271 289.876273 
L 79.291451 289.296084 
L 82.927631 288.336754 
L 86.563811 287.009504 
L 90.199991 285.329455 
L 93.836171 283.315082 
L 97.472351 280.987735 
L 101.108531 278.370857 
L 104.744711 275.489487 
L 108.380891 272.369402 
L 112.017071 269.036777 
L 115.653251 265.517436 
L 119.289431 261.836621 
L 122.925611 258.018451 
L 126.561791 254.085768 
L 130.197971 250.05988 
L 133.834151 245.960514 
L 137.470331 241.80564 
L 141.106511 237.611577 
L 144.742691 233.392922 
L 148.378871 229.162737 
L 152.015051 224.932491 
L 155.65123 220.712257 
L 159.28741 216.510761 
L 162.92359 212.335539 
L 166.55977 208.193043 
L 170.19595 204.08871 
L 173.83213 200.027107 
L 177.46831 196.012004 
L 181.10449 192.046483 
L 184.74067 188.132988 
L 188.37685 184.273475 
L 192.01303 180.469397 
L 195.64921 176.721778 
L 199.28539 173.031317 
L 202.92157 169.398428 
L 206.55775 165.823227 
L 210.19393 162.305627 
L 213.83011 158.845365 
L 217.46629 155.441986 
L 221.10247 152.094929 
L 224.73865 148.803526 
L 228.37483 145.566994 
L 232.01101 142.384514 
L 235.64719 139.25517 
L 239.28337 136.178016 
L 242.91955 133.152094 
L 246.55573 130.176378 
L 250.19191 127.249851 
L 253.82809 124.371488 
L 257.46427 121.540246 
L 261.10045 118.755108 
L 264.73663 116.015007 
L 268.37281 113.318946 
L 272.00899 110.665913 
L 275.64517 108.054888 
L 279.28135 105.484912 
L 282.91753 102.954999 
L 286.55371 100.464208 
L 290.18989 98.011617 
L 293.82607 95.596305 
L 297.46225 93.217385 
L 301.09843 90.873987 
L 304.73461 88.565272 
L 308.37079 86.290401 
L 312.00697 84.048586 
L 315.64315 81.839026 
L 319.27933 79.660974 
L 322.91551 77.513672 
L 326.55169 75.396404 
L 330.18787 73.308461 
L 333.82405 71.249168 
L 337.46023 69.217858 
L 341.09641 67.213879 
L 344.73259 65.236612 
L 348.36877 63.285437 
L 352.004949 61.359779 
L 355.641129 59.459047 
L 359.277309 57.582683 
L 362.913489 55.73015 
L 366.549669 53.900922 
L 370.185849 52.09447 
L 373.822029 50.310319 
L 377.458209 48.54797 
L 381.094389 46.806954 
L 384.730569 45.086816 
L 388.366749 43.38711 
L 392.002929 41.707401 
L 395.639109 40.047287 
L 399.275289 38.406337 
L 402.911469 36.784173 
L 406.547649 35.180393 
L 410.183829 33.59463 
L 413.820009 32.026524 
L 417.456189 30.475715 
L 421.092369 28.941861 
L 424.728549 27.424627 
L 428.364729 25.923679 
L 432.000909 24.438698 
" clip-path="url(#p67ccf71b73)" style="fill: none; stroke: #2ca02c; stroke-width: 1.5; stroke-linecap: square"/>
   </g>
   <g id="line2d_22">
    <path d="M 72.019091 290.070414 
L 75.655271 289.846276 
L 79.291451 289.177261 
L 82.927631 288.073477 
L 86.563811 286.551265 
L 90.199991 284.632445 
L 93.836171 282.343461 
L 97.472351 279.714309 
L 101.108531 276.777448 
L 104.744711 273.566753 
L 108.380891 270.116533 
L 112.017071 266.460676 
L 115.653251 262.631877 
L 119.289431 258.661217 
L 122.925611 254.577588 
L 126.561791 250.407575 
L 130.197971 246.175275 
L 133.834151 241.902211 
L 137.470331 237.607441 
L 141.106511 233.307634 
L 144.742691 229.017212 
L 148.378871 224.748525 
L 152.015051 220.512049 
L 155.65123 216.316519 
L 159.28741 212.169169 
L 162.92359 208.075912 
L 166.55977 204.041457 
L 170.19595 200.069491 
L 173.83213 196.162826 
L 177.46831 192.323511 
L 181.10449 188.552941 
L 184.74067 184.851958 
L 188.37685 181.220959 
L 192.01303 177.659919 
L 195.64921 174.168519 
L 199.28539 170.746159 
L 202.92157 167.392017 
L 206.55775 164.105108 
L 210.19393 160.884302 
L 213.83011 157.728344 
L 217.46629 154.635921 
L 221.10247 151.605639 
L 224.73865 148.636065 
L 228.37483 145.725732 
L 232.01101 142.873177 
L 235.64719 140.076915 
L 239.28337 137.33546 
L 242.91955 134.647359 
L 246.55573 132.011153 
L 250.19191 129.425414 
L 253.82809 126.888756 
L 257.46427 124.399801 
L 261.10045 121.957199 
L 264.73663 119.559656 
L 268.37281 117.205894 
L 272.00899 114.894667 
L 275.64517 112.624775 
L 279.28135 110.395046 
L 282.91753 108.204349 
L 286.55371 106.051592 
L 290.18989 103.935702 
L 293.82607 101.855648 
L 297.46225 99.810434 
L 301.09843 97.799093 
L 304.73461 95.820698 
L 308.37079 93.87434 
L 312.00697 91.95915 
L 315.64315 90.07428 
L 319.27933 88.218923 
L 322.91551 86.392283 
L 326.55169 84.593603 
L 330.18787 82.822145 
L 333.82405 81.077198 
L 337.46023 79.358074 
L 341.09641 77.664113 
L 344.73259 75.994666 
L 348.36877 74.34912 
L 352.004949 72.726866 
L 355.641129 71.127329 
L 359.277309 69.549943 
L 362.913489 67.994167 
L 366.549669 66.459477 
L 370.185849 64.945358 
L 373.822029 63.451331 
L 377.458209 61.976905 
L 381.094389 60.521625 
L 384.730569 59.085048 
L 388.366749 57.666739 
L 392.002929 56.266279 
L 395.639109 54.883258 
L 399.275289 53.517288 
L 402.911469 52.167982 
L 406.547649 50.83498 
L 410.183829 49.517917 
L 413.820009 48.216445 
L 417.456189 46.930227 
L 421.092369 45.658943 
L 424.728549 44.402266 
L 428.364729 43.159893 
L 432.000909 41.931522 
" clip-path="url(#p67ccf71b73)" style="fill: none; stroke: #d62728; stroke-width: 1.5; stroke-linecap: square"/>
   </g>
   <g id="line2d_23">
    <path d="M 72.019091 290.070414 
L 75.655271 289.876317 
L 79.291451 289.297186 
L 82.927631 288.342336 
L 86.563811 287.026832 
L 90.199991 285.370771 
L 93.836171 283.398409 
L 97.472351 281.1372 
L 101.108531 278.616747 
L 104.744711 275.867787 
L 108.380891 272.921325 
L 112.017071 269.807786 
L 115.653251 266.556414 
L 119.289431 263.194733 
L 122.925611 259.748241 
L 126.561791 256.240152 
L 130.197971 252.69134 
L 133.834151 249.120281 
L 137.470331 245.543169 
L 141.106511 241.973978 
L 144.742691 238.424658 
L 148.378871 234.905291 
L 152.015051 231.424252 
L 155.65123 227.988417 
L 159.28741 224.603336 
L 162.92359 221.273375 
L 166.55977 218.001904 
L 170.19595 214.791415 
L 173.83213 211.643654 
L 177.46831 208.559734 
L 181.10449 205.540258 
L 184.74067 202.585351 
L 188.37685 199.694795 
L 192.01303 196.868069 
L 195.64921 194.104392 
L 199.28539 191.402799 
L 202.92157 188.762166 
L 206.55775 186.181248 
L 210.19393 183.658712 
L 213.83011 181.193151 
L 217.46629 178.783125 
L 221.10247 176.427157 
L 224.73865 174.123752 
L 228.37483 171.871425 
L 232.01101 169.66869 
L 235.64719 167.51408 
L 239.28337 165.406145 
L 242.91955 163.343471 
L 246.55573 161.324661 
L 250.19191 159.348364 
L 253.82809 157.413253 
L 257.46427 155.518048 
L 261.10045 153.661497 
L 264.73663 151.842396 
L 268.37281 150.059571 
L 272.00899 148.311893 
L 275.64517 146.598269 
L 279.28135 144.91764 
L 282.91753 143.268986 
L 286.55371 141.651325 
L 290.18989 140.063708 
L 293.82607 138.505222 
L 297.46225 136.974982 
L 301.09843 135.472144 
L 304.73461 133.995889 
L 308.37079 132.545426 
L 312.00697 131.119998 
L 315.64315 129.718872 
L 319.27933 128.341345 
L 322.91551 126.986737 
L 326.55169 125.654397 
L 330.18787 124.343692 
L 333.82405 123.054019 
L 337.46023 121.784787 
L 341.09641 120.535436 
L 344.73259 119.305424 
L 348.36877 118.094226 
L 352.004949 116.901332 
L 355.641129 115.726261 
L 359.277309 114.568539 
L 362.913489 113.427712 
L 366.549669 112.303346 
L 370.185849 111.195013 
L 373.822029 110.10231 
L 377.458209 109.024838 
L 381.094389 107.962218 
L 384.730569 106.914082 
L 388.366749 105.880077 
L 392.002929 104.859855 
L 395.639109 103.853087 
L 399.275289 102.85945 
L 402.911469 101.878634 
L 406.547649 100.910336 
L 410.183829 99.954267 
L 413.820009 99.010145 
L 417.456189 98.077696 
L 421.092369 97.156655 
L 424.728549 96.24677 
L 428.364729 95.347789 
L 432.000909 94.459473 
" clip-path="url(#p67ccf71b73)" style="fill: none; stroke: #9467bd; stroke-width: 1.5; stroke-linecap: square"/>
   </g>
   <g id="line2d_24">
    <path d="M 72.019091 290.070414 
L 75.655271 289.958345 
L 79.291451 289.623883 
L 82.927631 289.072183 
L 86.563811 288.311588 
L 90.199991 287.353276 
L 93.836171 286.210792 
L 97.472351 284.899539 
L 101.108531 283.43623 
L 104.744711 281.838335 
L 108.380891 280.123583 
L 112.017071 278.309509 
L 115.653251 276.413082 
L 119.289431 274.450413 
L 122.925611 272.43652 
L 126.561791 270.385185 
L 130.197971 268.308888 
L 133.834151 266.218756 
L 137.470331 264.124599 
L 141.106511 262.034946 
L 144.742691 259.957127 
L 148.378871 257.897362 
L 152.015051 255.86084 
L 155.65123 253.851855 
L 159.28741 251.873867 
L 162.92359 249.929627 
L 166.55977 248.021258 
L 170.19595 246.150337 
L 173.83213 244.317977 
L 177.46831 242.524884 
L 181.10449 240.771441 
L 184.74067 239.057736 
L 188.37685 237.383631 
L 192.01303 235.748792 
L 195.64921 234.152729 
L 199.28539 232.594825 
L 202.92157 231.074364 
L 206.55775 229.59055 
L 210.19393 228.142528 
L 213.83011 226.72941 
L 217.46629 225.350267 
L 221.10247 224.004159 
L 224.73865 222.690134 
L 228.37483 221.407245 
L 232.01101 220.154543 
L 235.64719 218.931095 
L 239.28337 217.735981 
L 242.91955 216.568298 
L 246.55573 215.427161 
L 250.19191 214.311715 
L 253.82809 213.221118 
L 257.46427 212.154558 
L 261.10045 211.111251 
L 264.73663 210.09043 
L 268.37281 209.091359 
L 272.00899 208.113326 
L 275.64517 207.155643 
L 279.28135 206.217648 
L 282.91753 205.298704 
L 286.55371 204.398192 
L 290.18989 203.515523 
L 293.82607 202.650124 
L 297.46225 201.801449 
L 301.09843 200.968968 
L 304.73461 200.152175 
L 308.37079 199.35058 
L 312.00697 198.563713 
L 315.64315 197.791124 
L 319.27933 197.032377 
L 322.91551 196.287054 
L 326.55169 195.554753 
L 330.18787 194.835089 
L 333.82405 194.127688 
L 337.46023 193.432192 
L 341.09641 192.748257 
L 344.73259 192.075549 
L 348.36877 191.413753 
L 352.004949 190.762559 
L 355.641129 190.121671 
L 359.277309 189.490804 
L 362.913489 188.869682 
L 366.549669 188.258042 
L 370.185849 187.655628 
L 373.822029 187.062192 
L 377.458209 186.477499 
L 381.094389 185.90132 
L 384.730569 185.333432 
L 388.366749 184.773623 
L 392.002929 184.221688 
L 395.639109 183.677426 
L 399.275289 183.140648 
L 402.911469 182.611166 
L 406.547649 182.088802 
L 410.183829 181.573382 
L 413.820009 181.06474 
L 417.456189 180.562712 
L 421.092369 180.067144 
L 424.728549 179.577882 
L 428.364729 179.09478 
L 432.000909 178.617697 
" clip-path="url(#p67ccf71b73)" style="fill: none; stroke: #8c564b; stroke-width: 1.5; stroke-linecap: square"/>
   </g>
   <g id="line2d_25">
    <path d="M 72.019091 290.070414 
L 75.655271 290.070414 
L 79.291451 290.070414 
L 82.927631 290.070414 
L 86.563811 290.070414 
L 90.199991 290.070414 
L 93.836171 290.070414 
L 97.472351 290.070414 
L 101.108531 290.070414 
L 104.744711 290.070414 
L 108.380891 290.070414 
L 112.017071 290.070414 
L 115.653251 290.070414 
L 119.289431 290.070414 
L 122.925611 290.070414 
L 126.561791 290.070414 
L 130.197971 290.070414 
L 133.834151 290.070414 
L 137.470331 290.070414 
L 141.106511 290.070414 
L 144.742691 290.070414 
L 148.378871 290.070414 
L 152.015051 290.070414 
L 155.65123 290.070414 
L 159.28741 290.070414 
L 162.92359 290.070414 
L 166.55977 290.070414 
L 170.19595 290.070414 
L 173.83213 290.070414 
L 177.46831 290.070414 
L 181.10449 290.070414 
L 184.74067 290.070414 
L 188.37685 290.070414 
L 192.01303 290.070414 
L 195.64921 290.070414 
L 199.28539 290.070414 
L 202.92157 290.070414 
L 206.55775 290.070414 
L 210.19393 290.070414 
L 213.83011 290.070414 
L 217.46629 290.070414 
L 221.10247 290.070414 
L 224.73865 290.070414 
L 228.37483 290.070414 
L 232.01101 290.070414 
L 235.64719 290.070414 
L 239.28337 290.070414 
L 242.91955 290.070414 
L 246.55573 290.070414 
L 250.19191 290.070414 
L 253.82809 290.070414 
L 257.46427 290.070414 
L 261.10045 290.070414 
L 264.73663 290.070414 
L 268.37281 290.070414 
L 272.00899 290.070414 
L 275.64517 290.070414 
L 279.28135 290.070414 
L 282.91753 290.070414 
L 286.55371 290.070414 
L 290.18989 290.070414 
L 293.82607 290.070414 
L 297.46225 290.070414 
L 301.09843 290.070414 
L 304.73461 290.070414 
L 308.37079 290.070414 
L 312.00697 290.070414 
L 315.64315 290.070414 
L 319.27933 290.070414 
L 322.91551 290.070414 
L 326.55169 290.070414 
L 330.18787 290.070414 
L 333.82405 290.070414 
L 337.46023 290.070414 
L 341.09641 290.070414 
L 344.73259 290.070414 
L 348.36877 290.070414 
L 352.004949 290.070414 
L 355.641129 290.070414 
L 359.277309 290.070414 
L 362.913489 290.070414 
L 366.549669 290.070414 
L 370.185849 290.070414 
L 373.822029 290.070414 
L 377.458209 290.070414 
L 381.094389 290.070414 
L 384.730569 290.070414 
L 388.366749 290.070414 
L 392.002929 290.070414 
L 395.639109 290.070414 
L 399.275289 290.070414 
L 402.911469 290.070414 
L 406.547649 290.070414 
L 410.183829 290.070414 
L 413.820009 290.070414 
L 417.456189 290.070414 
L 421.092369 290.070414 
L 424.728549 290.070414 
L 428.364729 290.070414 
L 432.000909 290.070414 
" clip-path="url(#p67ccf71b73)" style="fill: none; stroke: #e377c2; stroke-width: 1.5; stroke-linecap: square"/>
   </g>
   <g id="patch_3">
    <path d="M 54.02 303.352 
L 54.02 11.157112 
" style="fill: none; stroke: #000000; stroke-width: 0.8; stroke-linejoin: miter; stroke-linecap: square"/>
   </g>
   <g id="patch_4">
    <path d="M 450 303.352 
L 450 11.157112 
" style="fill: none; stroke: #000000; stroke-width: 0.8; stroke-linejoin: miter; stroke-linecap: square"/>
   </g>
   <g id="patch_5">
    <path d="M 54.02 303.352 
L 450 303.352 
" style="fill: none; stroke: #000000; stroke-width: 0.8; stroke-linejoin: miter; stroke-linecap: square"/>
   </g>
   <g id="patch_6">
    <path d="M 54.02 11.157112 
L 450 11.157112 
" style="fill: none; stroke: #000000; stroke-width: 0.8; stroke-linejoin: miter; stroke-linecap: square"/>
   </g>
  </g>
  <g id="legend_1">
   <g id="patch_7">
    <path d="M 168.134375 81.390625 
L 292.665625 81.390625 
Q 294.665625 81.390625 294.665625 79.390625 
L 294.665625 7 
Q 294.665625 5 292.665625 5 
L 168.134375 5 
Q 166.134375 5 166.134375 7 
L 166.134375 79.390625 
Q 166.134375 81.390625 168.134375 81.390625 
z
" style="fill: #ffffff; opacity: 0.8; stroke: #cccccc; stroke-linejoin: miter"/>
   </g>
   <g id="text_21">
    <!-- $\theta$ (°) -->
    <g transform="translate(219.35 16.598437) scale(0.1 -0.1)">
     <defs>
      <path id="DejaVuSans-Oblique-3b8" d="M 2913 2219 
L 925 2219 
Q 791 1284 928 888 
Q 1100 400 1566 400 
Q 2034 400 2391 891 
Q 2703 1322 2913 2219 
z
M 3009 2750 
Q 3094 3638 2984 3950 
Q 2813 4444 2353 4444 
Q 1875 4444 1525 3956 
Q 1250 3563 1034 2750 
L 3009 2750 
z
M 2444 4913 
Q 3194 4913 3494 4250 
Q 3794 3591 3566 2422 
Q 3341 1256 2781 594 
Q 2225 -72 1475 -72 
Q 722 -72 425 594 
Q 128 1256 353 2422 
Q 581 3591 1134 4250 
Q 1691 4913 2444 4913 
z
" transform="scale(0.015625)"/>
      <path id="DejaVuSans-20" transform="scale(0.015625)"/>
      <path id="DejaVuSans-28" d="M 1984 4856 
Q 1566 4138 1362 3434 
Q 1159 2731 1159 2009 
Q 1159 1288 1364 580 
Q 1569 -128 1984 -844 
L 1484 -844 
Q 1016 -109 783 600 
Q 550 1309 550 2009 
Q 550 2706 781 3412 
Q 1013 4119 1484 4856 
L 1984 4856 
z
" transform="scale(0.015625)"/>
      <path id="DejaVuSans-b0" d="M 1600 4347 
Q 1350 4347 1178 4173 
Q 1006 4000 1006 3750 
Q 1006 3503 1178 3333 
Q 1350 3163 1600 3163 
Q 1850 3163 2022 3333 
Q 2194 3503 2194 3750 
Q 2194 3997 2020 4172 
Q 1847 4347 1600 4347 
z
M 1600 4750 
Q 1800 4750 1984 4673 
Q 2169 4597 2303 4453 
Q 2447 4313 2519 4134 
Q 2591 3956 2591 3750 
Q 2591 3338 2302 3052 
Q 2013 2766 1594 2766 
Q 1172 2766 890 3047 
Q 609 3328 609 3750 
Q 609 4169 896 4459 
Q 1184 4750 1600 4750 
z
" transform="scale(0.015625)"/>
      <path id="DejaVuSans-29" d="M 513 4856 
L 1013 4856 
Q 1481 4119 1714 3412 
Q 1947 2706 1947 2009 
Q 1947 1309 1714 600 
Q 1481 -109 1013 -844 
L 513 -844 
Q 928 -128 1133 580 
Q 1338 1288 1338 2009 
Q 1338 2731 1133 3434 
Q 928 4138 513 4856 
z
" transform="scale(0.015625)"/>
     </defs>
     <use xlink:href="#DejaVuSans-Oblique-3b8" transform="translate(0 0.234375)"/>
     <use xlink:href="#DejaVuSans-20" transform="translate(61.181641 0.234375)"/>
     <use xlink:href="#DejaVuSans-28" transform="translate(92.96875 0.234375)"/>
     <use xlink:href="#DejaVuSans-b0" transform="translate(131.982422 0.234375)"/>
     <use xlink:href="#DejaVuSans-29" transform="translate(181.982422 0.234375)"/>
    </g>
   </g>
   <g id="line2d_26">
    <path d="M 170.134375 27.776563 
L 180.134375 27.776563 
L 190.134375 27.776563 
" style="fill: none; stroke: #1f77b4; stroke-width: 1.5; stroke-linecap: square"/>
   </g>
   <g id="text_22">
    <!-- 0.0 -->
    <g transform="translate(198.134375 31.276563) scale(0.1 -0.1)">
     <use xlink:href="#DejaVuSans-30"/>
     <use xlink:href="#DejaVuSans-2e" transform="translate(63.623047 0)"/>
     <use xlink:href="#DejaVuSans-30" transform="translate(95.410156 0)"/>
    </g>
   </g>
   <g id="line2d_27">
    <path d="M 170.134375 42.454688 
L 180.134375 42.454688 
L 190.134375 42.454688 
" style="fill: none; stroke: #ff7f0e; stroke-width: 1.5; stroke-linecap: square"/>
   </g>
   <g id="text_23">
    <!-- 15.0 -->
    <g transform="translate(198.134375 45.954688) scale(0.1 -0.1)">
     <use xlink:href="#DejaVuSans-31"/>
     <use xlink:href="#DejaVuSans-35" transform="translate(63.623047 0)"/>
     <use xlink:href="#DejaVuSans-2e" transform="translate(127.246094 0)"/>
     <use xlink:href="#DejaVuSans-30" transform="translate(159.033203 0)"/>
    </g>
   </g>
   <g id="line2d_28">
    <path d="M 170.134375 57.132812 
L 180.134375 57.132812 
L 190.134375 57.132812 
" style="fill: none; stroke: #2ca02c; stroke-width: 1.5; stroke-linecap: square"/>
   </g>
   <g id="text_24">
    <!-- 30.0 -->
    <g transform="translate(198.134375 60.632812) scale(0.1 -0.1)">
     <use xlink:href="#DejaVuSans-33"/>
     <use xlink:href="#DejaVuSans-30" transform="translate(63.623047 0)"/>
     <use xlink:href="#DejaVuSans-2e" transform="translate(127.246094 0)"/>
     <use xlink:href="#DejaVuSans-30" transform="translate(159.033203 0)"/>
    </g>
   </g>
   <g id="line2d_29">
    <path d="M 170.134375 71.810938 
L 180.134375 71.810938 
L 190.134375 71.810938 
" style="fill: none; stroke: #d62728; stroke-width: 1.5; stroke-linecap: square"/>
   </g>
   <g id="text_25">
    <!-- 45.0 -->
    <g transform="translate(198.134375 75.310938) scale(0.1 -0.1)">
     <use xlink:href="#DejaVuSans-34"/>
     <use xlink:href="#DejaVuSans-35" transform="translate(63.623047 0)"/>
     <use xlink:href="#DejaVuSans-2e" transform="translate(127.246094 0)"/>
     <use xlink:href="#DejaVuSans-30" transform="translate(159.033203 0)"/>
    </g>
   </g>
   <g id="line2d_30">
    <path d="M 240.4 27.776563 
L 250.4 27.776563 
L 260.4 27.776563 
" style="fill: none; stroke: #9467bd; stroke-width: 1.5; stroke-linecap: square"/>
   </g>
   <g id="text_26">
    <!-- 60.0 -->
    <g transform="translate(268.4 31.276563) scale(0.1 -0.1)">
     <defs>
      <path id="DejaVuSans-36" d="M 2113 2584 
Q 1688 2584 1439 2293 
Q 1191 2003 1191 1497 
Q 1191 994 1439 701 
Q 1688 409 2113 409 
Q 2538 409 2786 701 
Q 3034 994 3034 1497 
Q 3034 2003 2786 2293 
Q 2538 2584 2113 2584 
z
M 3366 4563 
L 3366 3988 
Q 3128 4100 2886 4159 
Q 2644 4219 2406 4219 
Q 1781 4219 1451 3797 
Q 1122 3375 1075 2522 
Q 1259 2794 1537 2939 
Q 1816 3084 2150 3084 
Q 2853 3084 3261 2657 
Q 3669 2231 3669 1497 
Q 3669 778 3244 343 
Q 2819 -91 2113 -91 
Q 1303 -91 875 529 
Q 447 1150 447 2328 
Q 447 3434 972 4092 
Q 1497 4750 2381 4750 
Q 2619 4750 2861 4703 
Q 3103 4656 3366 4563 
z
" transform="scale(0.015625)"/>
     </defs>
     <use xlink:href="#DejaVuSans-36"/>
     <use xlink:href="#DejaVuSans-30" transform="translate(63.623047 0)"/>
     <use xlink:href="#DejaVuSans-2e" transform="translate(127.246094 0)"/>
     <use xlink:href="#DejaVuSans-30" transform="translate(159.033203 0)"/>
    </g>
   </g>
   <g id="line2d_31">
    <path d="M 240.4 42.454688 
L 250.4 42.454688 
L 260.4 42.454688 
" style="fill: none; stroke: #8c564b; stroke-width: 1.5; stroke-linecap: square"/>
   </g>
   <g id="text_27">
    <!-- 75.0 -->
    <g transform="translate(268.4 45.954688) scale(0.1 -0.1)">
     <use xlink:href="#DejaVuSans-37"/>
     <use xlink:href="#DejaVuSans-35" transform="translate(63.623047 0)"/>
     <use xlink:href="#DejaVuSans-2e" transform="translate(127.246094 0)"/>
     <use xlink:href="#DejaVuSans-30" transform="translate(159.033203 0)"/>
    </g>
   </g>
   <g id="line2d_32">
    <path d="M 240.4 57.132812 
L 250.4 57.132812 
L 260.4 57.132812 
" style="fill: none; stroke: #e377c2; stroke-width: 1.5; stroke-linecap: square"/>
   </g>
   <g id="text_28">
    <!-- 90.0 -->
    <g transform="translate(268.4 60.632812) scale(0.1 -0.1)">
     <defs>
      <path id="DejaVuSans-39" d="M 703 97 
L 703 672 
Q 941 559 1184 500 
Q 1428 441 1663 441 
Q 2288 441 2617 861 
Q 2947 1281 2994 2138 
Q 2813 1869 2534 1725 
Q 2256 1581 1919 1581 
Q 1219 1581 811 2004 
Q 403 2428 403 3163 
Q 403 3881 828 4315 
Q 1253 4750 1959 4750 
Q 2769 4750 3195 4129 
Q 3622 3509 3622 2328 
Q 3622 1225 3098 567 
Q 2575 -91 1691 -91 
Q 1453 -91 1209 -44 
Q 966 3 703 97 
z
M 1959 2075 
Q 2384 2075 2632 2365 
Q 2881 2656 2881 3163 
Q 2881 3666 2632 3958 
Q 2384 4250 1959 4250 
Q 1534 4250 1286 3958 
Q 1038 3666 1038 3163 
Q 1038 2656 1286 2365 
Q 1534 2075 1959 2075 
z
" transform="scale(0.015625)"/>
     </defs>
     <use xlink:href="#DejaVuSans-39"/>
     <use xlink:href="#DejaVuSans-30" transform="translate(63.623047 0)"/>
     <use xlink:href="#DejaVuSans-2e" transform="translate(127.246094 0)"/>
     <use xlink:href="#DejaVuSans-30" transform="translate(159.033203 0)"/>
    </g>
   </g>
  </g>
 </g>
 <defs>
  <clipPath id="p67ccf71b73">
   <rect x="54.02" y="11.157112" width="395.98" height="292.194888"/>
  </clipPath>
 </defs>
</svg>
