<?xml version="1.0" encoding="utf-8" standalone="no"?>
<!DOCTYPE svg PUBLIC "-//W3C//DTD SVG 1.1//EN"
  "http://www.w3.org/Graphics/SVG/1.1/DTD/svg11.dtd">
<svg xmlns:xlink="http://www.w3.org/1999/xlink" width="460.8pt" height="345.6pt" viewBox="0 0 460.8 345.6" xmlns="http://www.w3.org/2000/svg" version="1.1">
 <metadata>
  <rdf:RDF xmlns:dc="http://purl.org/dc/elements/1.1/" xmlns:cc="http://creativecommons.org/ns#" xmlns:rdf="http://www.w3.org/1999/02/22-rdf-syntax-ns#">
   <cc:Work>
    <dc:type rdf:resource="http://purl.org/dc/dcmitype/StillImage"/>
    <dc:date>2025-04-20T23:55:27.900506</dc:date>
    <dc:format>image/svg+xml</dc:format>
    <dc:creator>
     <cc:Agent>
      <dc:title>Matplotlib v3.10.1, https://matplotlib.org/</dc:title>
     </cc:Agent>
    </dc:creator>
   </cc:Work>
  </rdf:RDF>
 </metadata>
 <defs>
  <style type="text/css">*{stroke-linejoin: round; stroke-linecap: butt}</style>
 </defs>
 <g id="figure_1">
  <g id="patch_1">
   <path d="M 0 345.6 
L 460.8 345.6 
L 460.8 0 
L 0 0 
z
" style="fill: #ffffff"/>
  </g>
  <g id="axes_1">
   <g id="patch_2">
    <path d="M 47.72 302.2 
L 450 302.2 
L 450 10.8 
L 47.72 10.8 
z
" style="fill: #ffffff"/>
   </g>
   <g id="matplotlib.axis_1">
    <g id="xtick_1">
     <g id="line2d_1">
      <defs>
       <path id="m8de2dd37a1" d="M 0 0 
L 0 3.5 
" style="stroke: #000000; stroke-width: 0.8"/>
      </defs>
      <g>
       <use xlink:href="#m8de2dd37a1" x="66.005455" y="302.2" style="stroke: #000000; stroke-width: 0.8"/>
      </g>
     </g>
     <g id="text_1">
      <!-- 0 -->
      <g transform="translate(62.824205 316.798437) scale(0.1 -0.1)">
       <defs>
        <path id="DejaVuSans-30" d="M 2034 4250 
Q 1547 4250 1301 3770 
Q 1056 3291 1056 2328 
Q 1056 1369 1301 889 
Q 1547 409 2034 409 
Q 2525 409 2770 889 
Q 3016 1369 3016 2328 
Q 3016 3291 2770 3770 
Q 2525 4250 2034 4250 
z
M 2034 4750 
Q 2819 4750 3233 4129 
Q 3647 3509 3647 2328 
Q 3647 1150 3233 529 
Q 2819 -91 2034 -91 
Q 1250 -91 836 529 
Q 422 1150 422 2328 
Q 422 3509 836 4129 
Q 1250 4750 2034 4750 
z
" transform="scale(0.015625)"/>
       </defs>
       <use xlink:href="#DejaVuSans-30"/>
      </g>
     </g>
    </g>
    <g id="xtick_2">
     <g id="line2d_2">
      <g>
       <use xlink:href="#m8de2dd37a1" x="147.274141" y="302.2" style="stroke: #000000; stroke-width: 0.8"/>
      </g>
     </g>
     <g id="text_2">
      <!-- 20 -->
      <g transform="translate(140.911641 316.798437) scale(0.1 -0.1)">
       <defs>
        <path id="DejaVuSans-32" d="M 1228 531 
L 3431 531 
L 3431 0 
L 469 0 
L 469 531 
Q 828 903 1448 1529 
Q 2069 2156 2228 2338 
Q 2531 2678 2651 2914 
Q 2772 3150 2772 3378 
Q 2772 3750 2511 3984 
Q 2250 4219 1831 4219 
Q 1534 4219 1204 4116 
Q 875 4013 500 3803 
L 500 4441 
Q 881 4594 1212 4672 
Q 1544 4750 1819 4750 
Q 2544 4750 2975 4387 
Q 3406 4025 3406 3419 
Q 3406 3131 3298 2873 
Q 3191 2616 2906 2266 
Q 2828 2175 2409 1742 
Q 1991 1309 1228 531 
z
" transform="scale(0.015625)"/>
       </defs>
       <use xlink:href="#DejaVuSans-32"/>
       <use xlink:href="#DejaVuSans-30" transform="translate(63.623047 0)"/>
      </g>
     </g>
    </g>
    <g id="xtick_3">
     <g id="line2d_3">
      <g>
       <use xlink:href="#m8de2dd37a1" x="228.542828" y="302.2" style="stroke: #000000; stroke-width: 0.8"/>
      </g>
     </g>
     <g id="text_3">
      <!-- 40 -->
      <g transform="translate(222.180328 316.798437) scale(0.1 -0.1)">
       <defs>
        <path id="DejaVuSans-34" d="M 2419 4116 
L 825 1625 
L 2419 1625 
L 2419 4116 
z
M 2253 4666 
L 3047 4666 
L 3047 1625 
L 3713 1625 
L 3713 1100 
L 3047 1100 
L 3047 0 
L 2419 0 
L 2419 1100 
L 313 1100 
L 313 1709 
L 2253 4666 
z
" transform="scale(0.015625)"/>
       </defs>
       <use xlink:href="#DejaVuSans-34"/>
       <use xlink:href="#DejaVuSans-30" transform="translate(63.623047 0)"/>
      </g>
     </g>
    </g>
    <g id="xtick_4">
     <g id="line2d_4">
      <g>
       <use xlink:href="#m8de2dd37a1" x="309.811515" y="302.2" style="stroke: #000000; stroke-width: 0.8"/>
      </g>
     </g>
     <g id="text_4">
      <!-- 60 -->
      <g transform="translate(303.449015 316.798437) scale(0.1 -0.1)">
       <defs>
        <path id="DejaVuSans-36" d="M 2113 2584 
Q 1688 2584 1439 2293 
Q 1191 2003 1191 1497 
Q 1191 994 1439 701 
Q 1688 409 2113 409 
Q 2538 409 2786 701 
Q 3034 994 3034 1497 
Q 3034 2003 2786 2293 
Q 2538 2584 2113 2584 
z
M 3366 4563 
L 3366 3988 
Q 3128 4100 2886 4159 
Q 2644 4219 2406 4219 
Q 1781 4219 1451 3797 
Q 1122 3375 1075 2522 
Q 1259 2794 1537 2939 
Q 1816 3084 2150 3084 
Q 2853 3084 3261 2657 
Q 3669 2231 3669 1497 
Q 3669 778 3244 343 
Q 2819 -91 2113 -91 
Q 1303 -91 875 529 
Q 447 1150 447 2328 
Q 447 3434 972 4092 
Q 1497 4750 2381 4750 
Q 2619 4750 2861 4703 
Q 3103 4656 3366 4563 
z
" transform="scale(0.015625)"/>
       </defs>
       <use xlink:href="#DejaVuSans-36"/>
       <use xlink:href="#DejaVuSans-30" transform="translate(63.623047 0)"/>
      </g>
     </g>
    </g>
    <g id="xtick_5">
     <g id="line2d_5">
      <g>
       <use xlink:href="#m8de2dd37a1" x="391.080202" y="302.2" style="stroke: #000000; stroke-width: 0.8"/>
      </g>
     </g>
     <g id="text_5">
      <!-- 80 -->
      <g transform="translate(384.717702 316.798437) scale(0.1 -0.1)">
       <defs>
        <path id="DejaVuSans-38" d="M 2034 2216 
Q 1584 2216 1326 1975 
Q 1069 1734 1069 1313 
Q 1069 891 1326 650 
Q 1584 409 2034 409 
Q 2484 409 2743 651 
Q 3003 894 3003 1313 
Q 3003 1734 2745 1975 
Q 2488 2216 2034 2216 
z
M 1403 2484 
Q 997 2584 770 2862 
Q 544 3141 544 3541 
Q 544 4100 942 4425 
Q 1341 4750 2034 4750 
Q 2731 4750 3128 4425 
Q 3525 4100 3525 3541 
Q 3525 3141 3298 2862 
Q 3072 2584 2669 2484 
Q 3125 2378 3379 2068 
Q 3634 1759 3634 1313 
Q 3634 634 3220 271 
Q 2806 -91 2034 -91 
Q 1263 -91 848 271 
Q 434 634 434 1313 
Q 434 1759 690 2068 
Q 947 2378 1403 2484 
z
M 1172 3481 
Q 1172 3119 1398 2916 
Q 1625 2713 2034 2713 
Q 2441 2713 2670 2916 
Q 2900 3119 2900 3481 
Q 2900 3844 2670 4047 
Q 2441 4250 2034 4250 
Q 1625 4250 1398 4047 
Q 1172 3844 1172 3481 
z
" transform="scale(0.015625)"/>
       </defs>
       <use xlink:href="#DejaVuSans-38"/>
       <use xlink:href="#DejaVuSans-30" transform="translate(63.623047 0)"/>
      </g>
     </g>
    </g>
    <g id="text_6">
     <!-- $\theta$ (°) -->
     <g transform="translate(237.81 330.476562) scale(0.1 -0.1)">
      <defs>
       <path id="DejaVuSans-Oblique-3b8" d="M 2913 2219 
L 925 2219 
Q 791 1284 928 888 
Q 1100 400 1566 400 
Q 2034 400 2391 891 
Q 2703 1322 2913 2219 
z
M 3009 2750 
Q 3094 3638 2984 3950 
Q 2813 4444 2353 4444 
Q 1875 4444 1525 3956 
Q 1250 3563 1034 2750 
L 3009 2750 
z
M 2444 4913 
Q 3194 4913 3494 4250 
Q 3794 3591 3566 2422 
Q 3341 1256 2781 594 
Q 2225 -72 1475 -72 
Q 722 -72 425 594 
Q 128 1256 353 2422 
Q 581 3591 1134 4250 
Q 1691 4913 2444 4913 
z
" transform="scale(0.015625)"/>
       <path id="DejaVuSans-20" transform="scale(0.015625)"/>
       <path id="DejaVuSans-28" d="M 1984 4856 
Q 1566 4138 1362 3434 
Q 1159 2731 1159 2009 
Q 1159 1288 1364 580 
Q 1569 -128 1984 -844 
L 1484 -844 
Q 1016 -109 783 600 
Q 550 1309 550 2009 
Q 550 2706 781 3412 
Q 1013 4119 1484 4856 
L 1984 4856 
z
" transform="scale(0.015625)"/>
       <path id="DejaVuSans-b0" d="M 1600 4347 
Q 1350 4347 1178 4173 
Q 1006 4000 1006 3750 
Q 1006 3503 1178 3333 
Q 1350 3163 1600 3163 
Q 1850 3163 2022 3333 
Q 2194 3503 2194 3750 
Q 2194 3997 2020 4172 
Q 1847 4347 1600 4347 
z
M 1600 4750 
Q 1800 4750 1984 4673 
Q 2169 4597 2303 4453 
Q 2447 4313 2519 4134 
Q 2591 3956 2591 3750 
Q 2591 3338 2302 3052 
Q 2013 2766 1594 2766 
Q 1172 2766 890 3047 
Q 609 3328 609 3750 
Q 609 4169 896 4459 
Q 1184 4750 1600 4750 
z
" transform="scale(0.015625)"/>
       <path id="DejaVuSans-29" d="M 513 4856 
L 1013 4856 
Q 1481 4119 1714 3412 
Q 1947 2706 1947 2009 
Q 1947 1309 1714 600 
Q 1481 -109 1013 -844 
L 513 -844 
Q 928 -128 1133 580 
Q 1338 1288 1338 2009 
Q 1338 2731 1133 3434 
Q 928 4138 513 4856 
z
" transform="scale(0.015625)"/>
      </defs>
      <use xlink:href="#DejaVuSans-Oblique-3b8" transform="translate(0 0.234375)"/>
      <use xlink:href="#DejaVuSans-20" transform="translate(61.181641 0.234375)"/>
      <use xlink:href="#DejaVuSans-28" transform="translate(92.96875 0.234375)"/>
      <use xlink:href="#DejaVuSans-b0" transform="translate(131.982422 0.234375)"/>
      <use xlink:href="#DejaVuSans-29" transform="translate(181.982422 0.234375)"/>
     </g>
    </g>
   </g>
   <g id="matplotlib.axis_2">
    <g id="ytick_1">
     <g id="line2d_6">
      <defs>
       <path id="m95bcd35851" d="M 0 0 
L -3.5 0 
" style="stroke: #000000; stroke-width: 0.8"/>
      </defs>
      <g>
       <use xlink:href="#m95bcd35851" x="47.72" y="288.954545" style="stroke: #000000; stroke-width: 0.8"/>
      </g>
     </g>
     <g id="text_7">
      <!-- 0.0 -->
      <g transform="translate(24.816875 292.753764) scale(0.1 -0.1)">
       <defs>
        <path id="DejaVuSans-2e" d="M 684 794 
L 1344 794 
L 1344 0 
L 684 0 
L 684 794 
z
" transform="scale(0.015625)"/>
       </defs>
       <use xlink:href="#DejaVuSans-30"/>
       <use xlink:href="#DejaVuSans-2e" transform="translate(63.623047 0)"/>
       <use xlink:href="#DejaVuSans-30" transform="translate(95.410156 0)"/>
      </g>
     </g>
    </g>
    <g id="ytick_2">
     <g id="line2d_7">
      <g>
       <use xlink:href="#m95bcd35851" x="47.72" y="232.395367" style="stroke: #000000; stroke-width: 0.8"/>
      </g>
     </g>
     <g id="text_8">
      <!-- 0.2 -->
      <g transform="translate(24.816875 236.194585) scale(0.1 -0.1)">
       <use xlink:href="#DejaVuSans-30"/>
       <use xlink:href="#DejaVuSans-2e" transform="translate(63.623047 0)"/>
       <use xlink:href="#DejaVuSans-32" transform="translate(95.410156 0)"/>
      </g>
     </g>
    </g>
    <g id="ytick_3">
     <g id="line2d_8">
      <g>
       <use xlink:href="#m95bcd35851" x="47.72" y="175.836188" style="stroke: #000000; stroke-width: 0.8"/>
      </g>
     </g>
     <g id="text_9">
      <!-- 0.4 -->
      <g transform="translate(24.816875 179.635406) scale(0.1 -0.1)">
       <use xlink:href="#DejaVuSans-30"/>
       <use xlink:href="#DejaVuSans-2e" transform="translate(63.623047 0)"/>
       <use xlink:href="#DejaVuSans-34" transform="translate(95.410156 0)"/>
      </g>
     </g>
    </g>
    <g id="ytick_4">
     <g id="line2d_9">
      <g>
       <use xlink:href="#m95bcd35851" x="47.72" y="119.277009" style="stroke: #000000; stroke-width: 0.8"/>
      </g>
     </g>
     <g id="text_10">
      <!-- 0.6 -->
      <g transform="translate(24.816875 123.076228) scale(0.1 -0.1)">
       <use xlink:href="#DejaVuSans-30"/>
       <use xlink:href="#DejaVuSans-2e" transform="translate(63.623047 0)"/>
       <use xlink:href="#DejaVuSans-36" transform="translate(95.410156 0)"/>
      </g>
     </g>
    </g>
    <g id="ytick_5">
     <g id="line2d_10">
      <g>
       <use xlink:href="#m95bcd35851" x="47.72" y="62.71783" style="stroke: #000000; stroke-width: 0.8"/>
      </g>
     </g>
     <g id="text_11">
      <!-- 0.8 -->
      <g transform="translate(24.816875 66.517049) scale(0.1 -0.1)">
       <use xlink:href="#DejaVuSans-30"/>
       <use xlink:href="#DejaVuSans-2e" transform="translate(63.623047 0)"/>
       <use xlink:href="#DejaVuSans-38" transform="translate(95.410156 0)"/>
      </g>
     </g>
    </g>
    <g id="text_12">
     <!-- $R$ -->
     <g transform="translate(18.737188 160) rotate(-90) scale(0.1 -0.1)">
      <defs>
       <path id="DejaVuSans-Oblique-52" d="M 1613 4147 
L 1294 2491 
L 2106 2491 
Q 2584 2491 2879 2755 
Q 3175 3019 3175 3444 
Q 3175 3784 2976 3965 
Q 2778 4147 2406 4147 
L 1613 4147 
z
M 2772 2241 
Q 2972 2194 3105 2009 
Q 3238 1825 3413 1275 
L 3809 0 
L 3144 0 
L 2778 1197 
Q 2638 1659 2453 1815 
Q 2269 1972 1888 1972 
L 1191 1972 
L 806 0 
L 172 0 
L 1081 4666 
L 2503 4666 
Q 3150 4666 3495 4373 
Q 3841 4081 3841 3531 
Q 3841 3044 3547 2687 
Q 3253 2331 2772 2241 
z
" transform="scale(0.015625)"/>
      </defs>
      <use xlink:href="#DejaVuSans-Oblique-52" transform="translate(0 0.09375)"/>
     </g>
    </g>
   </g>
   <g id="line2d_11">
    <path d="M 66.005455 288.954545 
L 69.699486 288.954545 
L 73.393517 288.954545 
L 77.087548 288.954545 
L 80.781579 288.954545 
L 84.475611 288.954545 
L 88.169642 288.954545 
L 91.863673 288.954545 
L 95.557704 288.954545 
L 99.251736 288.954545 
L 102.945767 288.954545 
L 106.639798 288.954545 
L 110.333829 288.954545 
L 114.02786 288.954545 
L 117.721892 288.954545 
L 121.415923 288.954545 
L 125.109954 288.954545 
L 128.803985 288.954545 
L 132.498017 288.954545 
L 136.192048 288.954545 
L 139.886079 288.954545 
L 143.58011 288.954545 
L 147.274141 288.954545 
L 150.968173 288.954545 
L 154.662204 288.954545 
L 158.356235 288.954545 
L 162.050266 288.954545 
L 165.744298 288.954545 
L 169.438329 288.954545 
L 173.13236 288.954545 
L 176.826391 288.954545 
L 180.520422 288.954545 
L 184.214454 288.954545 
L 187.908485 288.954545 
L 191.602516 288.954545 
L 195.296547 288.954545 
L 198.990579 288.954545 
L 202.68461 288.954545 
L 206.378641 288.954545 
L 210.072672 288.954545 
L 213.766703 288.954545 
L 217.460735 288.954545 
L 221.154766 288.954545 
L 224.848797 288.954545 
L 228.542828 288.954545 
L 232.23686 288.954545 
L 235.930891 288.954545 
L 239.624922 288.954545 
L 243.318953 288.954545 
L 247.012984 288.954545 
L 250.707016 288.954545 
L 254.401047 288.954545 
L 258.095078 288.954545 
L 261.789109 288.954545 
L 265.48314 288.954545 
L 269.177172 288.954545 
L 272.871203 288.954545 
L 276.565234 288.954545 
L 280.259265 288.954545 
L 283.953297 288.954545 
L 287.647328 288.954545 
L 291.341359 288.954545 
L 295.03539 288.954545 
L 298.729421 288.954545 
L 302.423453 288.954545 
L 306.117484 288.954545 
L 309.811515 288.954545 
L 313.505546 288.954545 
L 317.199578 288.954545 
L 320.893609 288.954545 
L 324.58764 288.954545 
L 328.281671 288.954545 
L 331.975702 288.954545 
L 335.669734 288.954545 
L 339.363765 288.954545 
L 343.057796 288.954545 
L 346.751827 288.954545 
L 350.445859 288.954545 
L 354.13989 288.954545 
L 357.833921 288.954545 
L 361.527952 288.954545 
L 365.221983 288.954545 
L 368.916015 288.954545 
L 372.610046 288.954545 
L 376.304077 288.954545 
L 379.998108 288.954545 
L 383.69214 288.954545 
L 387.386171 288.954545 
L 391.080202 288.954545 
L 394.774233 288.954545 
L 398.468264 288.954545 
L 402.162296 288.954545 
L 405.856327 288.954545 
L 409.550358 288.954545 
L 413.244389 288.954545 
L 416.938421 288.954545 
L 420.632452 288.954545 
L 424.326483 288.954545 
L 428.020514 288.954545 
L 431.714545 288.954545 
" clip-path="url(#pba649e7401)" style="fill: none; stroke: #1f77b4; stroke-width: 1.5; stroke-linecap: square"/>
   </g>
   <g id="line2d_12">
    <path d="M 66.005455 288.954545 
L 69.699486 288.395149 
L 73.393517 287.837079 
L 77.087548 287.281619 
L 80.781579 286.729285 
L 84.475611 286.180606 
L 88.169642 285.636105 
L 91.863673 285.096298 
L 95.557704 284.561692 
L 99.251736 284.032887 
L 102.945767 283.510516 
L 106.639798 282.994784 
L 110.333829 282.486169 
L 114.02786 281.985173 
L 117.721892 281.492559 
L 121.415923 281.008396 
L 125.109954 280.53319 
L 128.803985 280.067623 
L 132.498017 279.611744 
L 136.192048 279.166329 
L 139.886079 278.731417 
L 143.58011 278.307749 
L 147.274141 277.895384 
L 150.968173 277.494861 
L 154.662204 277.106518 
L 158.356235 276.730606 
L 162.050266 276.367474 
L 165.744298 276.017457 
L 169.438329 275.680904 
L 173.13236 275.358029 
L 176.826391 275.049108 
L 180.520422 274.754415 
L 184.214454 274.474227 
L 187.908485 274.208729 
L 191.602516 273.958122 
L 195.296547 273.722615 
L 198.990579 273.502499 
L 202.68461 273.29779 
L 206.378641 273.108827 
L 210.072672 272.935604 
L 213.766703 272.778346 
L 217.460735 272.637176 
L 221.154766 272.512164 
L 224.848797 272.403417 
L 228.542828 272.311021 
L 232.23686 272.235042 
L 235.930891 272.175527 
L 239.624922 272.132501 
L 243.318953 272.106057 
L 247.012984 272.096133 
L 250.707016 272.102746 
L 254.401047 272.125882 
L 258.095078 272.165529 
L 261.789109 272.221604 
L 265.48314 272.294064 
L 269.177172 272.382844 
L 272.871203 272.48786 
L 276.565234 272.609004 
L 280.259265 272.746154 
L 283.953297 272.899167 
L 287.647328 273.067961 
L 291.341359 273.252301 
L 295.03539 273.452094 
L 298.729421 273.667099 
L 302.423453 273.897134 
L 306.117484 274.141997 
L 309.811515 274.401466 
L 313.505546 274.675298 
L 317.199578 274.963237 
L 320.893609 275.265019 
L 324.58764 275.580394 
L 328.281671 275.909034 
L 331.975702 276.250658 
L 335.669734 276.604959 
L 339.363765 276.971593 
L 343.057796 277.350223 
L 346.751827 277.740496 
L 350.445859 278.142059 
L 354.13989 278.554532 
L 357.833921 278.97751 
L 361.527952 279.410622 
L 365.221983 279.853438 
L 368.916015 280.305539 
L 372.610046 280.766496 
L 376.304077 281.235866 
L 379.998108 281.713192 
L 383.69214 282.198007 
L 387.386171 282.689855 
L 391.080202 283.188229 
L 394.774233 283.692656 
L 398.468264 284.202623 
L 402.162296 284.71762 
L 405.856327 285.237129 
L 409.550358 285.760621 
L 413.244389 286.28756 
L 416.938421 286.817402 
L 420.632452 287.349589 
L 424.326483 287.883562 
L 428.020514 288.418744 
L 431.714545 288.954545 
" clip-path="url(#pba649e7401)" style="fill: none; stroke: #ff7f0e; stroke-width: 1.5; stroke-linecap: square"/>
   </g>
   <g id="line2d_13">
    <path d="M 66.005455 288.954545 
L 69.699486 286.724411 
L 73.393517 284.518349 
L 77.087548 282.339327 
L 80.781579 280.188906 
L 84.475611 278.069511 
L 88.169642 275.981773 
L 91.863673 273.927209 
L 95.557704 271.907491 
L 99.251736 269.92369 
L 102.945767 267.97694 
L 106.639798 266.068943 
L 110.333829 264.200451 
L 114.02786 262.372611 
L 117.721892 260.5865 
L 121.415923 258.843116 
L 125.109954 257.143383 
L 128.803985 255.488268 
L 132.498017 253.878684 
L 136.192048 252.315201 
L 139.886079 250.798922 
L 143.58011 249.330282 
L 147.274141 247.910068 
L 150.968173 246.539039 
L 154.662204 245.217683 
L 158.356235 243.946577 
L 162.050266 242.726373 
L 165.744298 241.557458 
L 169.438329 240.440261 
L 173.13236 239.375393 
L 176.826391 238.363104 
L 180.520422 237.4038 
L 184.214454 236.49785 
L 187.908485 235.645565 
L 191.602516 234.847208 
L 195.296547 234.102991 
L 198.990579 233.413235 
L 202.68461 232.778013 
L 206.378641 232.197602 
L 210.072672 231.672085 
L 213.766703 231.201565 
L 217.460735 230.78615 
L 221.154766 230.425917 
L 224.848797 230.120815 
L 228.542828 229.870965 
L 232.23686 229.676269 
L 235.930891 229.536695 
L 239.624922 229.452169 
L 243.318953 229.422592 
L 247.012984 229.447887 
L 250.707016 229.527832 
L 254.401047 229.662279 
L 258.095078 229.851044 
L 261.789109 230.093897 
L 265.48314 230.390562 
L 269.177172 230.740733 
L 272.871203 231.144156 
L 276.565234 231.600455 
L 280.259265 232.109263 
L 283.953297 232.670177 
L 287.647328 233.282813 
L 291.341359 233.946653 
L 295.03539 234.661274 
L 298.729421 235.426115 
L 302.423453 236.240631 
L 306.117484 237.104271 
L 309.811515 238.016379 
L 313.505546 238.976345 
L 317.199578 239.983459 
L 320.893609 241.037007 
L 324.58764 242.136243 
L 328.281671 243.280376 
L 331.975702 244.468571 
L 335.669734 245.699957 
L 339.363765 246.973627 
L 343.057796 248.28863 
L 346.751827 249.643985 
L 350.445859 251.03865 
L 354.13989 252.471544 
L 357.833921 253.94154 
L 361.527952 255.447489 
L 365.221983 256.98815 
L 368.916015 258.562272 
L 372.610046 260.168544 
L 376.304077 261.805593 
L 379.998108 263.472001 
L 383.69214 265.166302 
L 387.386171 266.886976 
L 391.080202 268.632442 
L 394.774233 270.401053 
L 398.468264 272.191129 
L 402.162296 274.000901 
L 405.856327 275.828552 
L 409.550358 277.672201 
L 413.244389 279.529885 
L 416.938421 281.399576 
L 420.632452 283.279162 
L 424.326483 285.166432 
L 428.020514 287.059059 
L 431.714545 288.954545 
" clip-path="url(#pba649e7401)" style="fill: none; stroke: #2ca02c; stroke-width: 1.5; stroke-linecap: square"/>
   </g>
   <g id="line2d_14">
    <path d="M 66.005455 288.954545 
L 69.699486 283.968447 
L 73.393517 279.099551 
L 77.087548 274.350585 
L 80.781579 269.720575 
L 84.475611 265.209812 
L 88.169642 260.816943 
L 91.863673 256.541653 
L 95.557704 252.383734 
L 99.251736 248.34199 
L 102.945767 244.416515 
L 106.639798 240.606307 
L 110.333829 236.910923 
L 114.02786 233.329768 
L 117.721892 229.862181 
L 121.415923 226.507898 
L 125.109954 223.265973 
L 128.803985 220.13596 
L 132.498017 217.117328 
L 136.192048 214.209463 
L 139.886079 211.411708 
L 143.58011 208.723762 
L 147.274141 206.144854 
L 150.968173 203.674498 
L 154.662204 201.312155 
L 158.356235 199.057309 
L 162.050266 196.909487 
L 165.744298 194.868133 
L 169.438329 192.932734 
L 173.13236 191.102798 
L 176.826391 189.377838 
L 180.520422 187.757424 
L 184.214454 186.241024 
L 187.908485 184.828171 
L 191.602516 183.5184 
L 195.296547 182.311253 
L 198.990579 181.206307 
L 202.68461 180.203078 
L 206.378641 179.301106 
L 210.072672 178.499936 
L 213.766703 177.799176 
L 217.460735 177.198294 
L 221.154766 176.696916 
L 224.848797 176.294563 
L 228.542828 175.990806 
L 232.23686 175.785116 
L 235.930891 175.67713 
L 239.624922 175.666318 
L 243.318953 175.752212 
L 247.012984 175.93439 
L 250.707016 176.212289 
L 254.401047 176.585451 
L 258.095078 177.053374 
L 261.789109 177.615513 
L 265.48314 178.271346 
L 269.177172 179.020313 
L 272.871203 179.861858 
L 276.565234 180.795377 
L 280.259265 181.820282 
L 283.953297 182.935924 
L 287.647328 184.141663 
L 291.341359 185.436804 
L 295.03539 186.820658 
L 298.729421 188.292466 
L 302.423453 189.851466 
L 306.117484 191.496835 
L 309.811515 193.227761 
L 313.505546 195.043325 
L 317.199578 196.942603 
L 320.893609 198.924632 
L 324.58764 200.988366 
L 328.281671 203.132745 
L 331.975702 205.356628 
L 335.669734 207.658803 
L 339.363765 210.038024 
L 343.057796 212.49297 
L 346.751827 215.022223 
L 350.445859 217.624315 
L 354.13989 220.29768 
L 357.833921 223.04067 
L 361.527952 225.851565 
L 365.221983 228.728512 
L 368.916015 231.669575 
L 372.610046 234.672723 
L 376.304077 237.735779 
L 379.998108 240.856461 
L 383.69214 244.032367 
L 387.386171 247.26094 
L 391.080202 250.539493 
L 394.774233 253.865175 
L 398.468264 257.234991 
L 402.162296 260.645751 
L 405.856327 264.094099 
L 409.550358 267.576464 
L 413.244389 271.089073 
L 416.938421 274.627906 
L 420.632452 278.188684 
L 424.326483 281.766806 
L 428.020514 285.357285 
L 431.714545 288.954545 
" clip-path="url(#pba649e7401)" style="fill: none; stroke: #d62728; stroke-width: 1.5; stroke-linecap: square"/>
   </g>
   <g id="line2d_15">
    <path d="M 66.005455 288.954545 
L 69.699486 280.169087 
L 73.393517 271.739828 
L 77.087548 263.653578 
L 80.781579 255.892445 
L 84.475611 248.4417 
L 88.169642 241.287464 
L 91.863673 234.417168 
L 95.557704 227.820007 
L 99.251736 221.484943 
L 102.945767 215.402421 
L 106.639798 209.564089 
L 110.333829 203.961338 
L 114.02786 198.586766 
L 117.721892 193.433591 
L 121.415923 188.49523 
L 125.109954 183.765873 
L 128.803985 179.239894 
L 132.498017 174.912266 
L 136.192048 170.778147 
L 139.886079 166.833095 
L 143.58011 163.073068 
L 147.274141 159.494105 
L 150.968173 156.092665 
L 154.662204 152.865307 
L 158.356235 149.808988 
L 162.050266 146.920654 
L 165.744298 144.19754 
L 169.438329 141.63712 
L 173.13236 139.236861 
L 176.826391 136.994527 
L 180.520422 134.907921 
L 184.214454 132.975016 
L 187.908485 131.193882 
L 191.602516 129.562726 
L 195.296547 128.079784 
L 198.990579 126.743513 
L 202.68461 125.552311 
L 206.378641 124.50472 
L 210.072672 123.599424 
L 213.766703 122.835034 
L 217.460735 122.210339 
L 221.154766 121.724126 
L 224.848797 121.375277 
L 228.542828 121.162683 
L 232.23686 121.085316 
L 235.930891 121.142141 
L 239.624922 121.332256 
L 243.318953 121.654675 
L 247.012984 122.108498 
L 250.707016 122.692908 
L 254.401047 123.406997 
L 258.095078 124.249954 
L 261.789109 125.220957 
L 265.48314 126.319245 
L 269.177172 127.543997 
L 272.871203 128.894443 
L 276.565234 130.369819 
L 280.259265 131.969337 
L 283.953297 133.692215 
L 287.647328 135.537692 
L 291.341359 137.504952 
L 295.03539 139.593209 
L 298.729421 141.801626 
L 302.423453 144.129364 
L 306.117484 146.575547 
L 309.811515 149.139268 
L 313.505546 151.819615 
L 317.199578 154.615587 
L 320.893609 157.526159 
L 324.58764 160.550289 
L 328.281671 163.686815 
L 331.975702 166.934548 
L 335.669734 170.292239 
L 339.363765 173.758531 
L 343.057796 177.332006 
L 346.751827 181.011131 
L 350.445859 184.7943 
L 354.13989 188.679769 
L 357.833921 192.665681 
L 361.527952 196.750047 
L 365.221983 200.930738 
L 368.916015 205.205466 
L 372.610046 209.571775 
L 376.304077 214.027022 
L 379.998108 218.568373 
L 383.69214 223.19277 
L 387.386171 227.896943 
L 391.080202 232.677352 
L 394.774233 237.530192 
L 398.468264 242.45137 
L 402.162296 247.436476 
L 405.856327 252.480743 
L 409.550358 257.579036 
L 413.244389 262.725798 
L 416.938421 267.915005 
L 420.632452 273.140101 
L 424.326483 278.393904 
L 428.020514 283.668435 
L 431.714545 288.954545 
" clip-path="url(#pba649e7401)" style="fill: none; stroke: #9467bd; stroke-width: 1.5; stroke-linecap: square"/>
   </g>
   <g id="line2d_16">
    <path d="M 66.005455 288.954545 
L 69.699486 275.381944 
L 73.393517 262.641211 
L 77.087548 250.659115 
L 80.781579 239.366538 
L 84.475611 228.705527 
L 88.169642 218.626036 
L 91.863673 209.085257 
L 95.557704 200.044492 
L 99.251736 191.470643 
L 102.945767 183.334126 
L 106.639798 175.608627 
L 110.333829 168.271218 
L 114.02786 161.300744 
L 117.721892 154.67877 
L 121.415923 148.388512 
L 125.109954 142.414892 
L 128.803985 136.744297 
L 132.498017 131.3643 
L 136.192048 126.263795 
L 139.886079 121.432464 
L 143.58011 116.860961 
L 147.274141 112.540922 
L 150.968173 108.464372 
L 154.662204 104.624316 
L 158.356235 101.014028 
L 162.050266 97.62749 
L 165.744298 94.45916 
L 169.438329 91.503841 
L 173.13236 88.756771 
L 176.826391 86.213558 
L 180.520422 83.870088 
L 184.214454 81.722558 
L 187.908485 79.767472 
L 191.602516 78.001513 
L 195.296547 76.421623 
L 198.990579 75.024984 
L 202.68461 73.8089 
L 206.378641 72.77089 
L 210.072672 71.908645 
L 213.766703 71.219968 
L 217.460735 70.702832 
L 221.154766 70.355298 
L 224.848797 70.175587 
L 228.542828 70.162028 
L 232.23686 70.312985 
L 235.930891 70.62698 
L 239.624922 71.102576 
L 243.318953 71.738448 
L 247.012984 72.533306 
L 250.707016 73.485976 
L 254.401047 74.595291 
L 258.095078 75.860147 
L 261.789109 77.27951 
L 265.48314 78.852364 
L 269.177172 80.577771 
L 272.871203 82.454774 
L 276.565234 84.482467 
L 280.259265 86.660005 
L 283.953297 88.986494 
L 287.647328 91.461104 
L 291.341359 94.082981 
L 295.03539 96.851317 
L 298.729421 99.76527 
L 302.423453 102.823983 
L 306.117484 106.026617 
L 309.811515 109.372285 
L 313.505546 112.860118 
L 317.199578 116.489171 
L 320.893609 120.258482 
L 324.58764 124.167037 
L 328.281671 128.213769 
L 331.975702 132.397554 
L 335.669734 136.717189 
L 339.363765 141.171402 
L 343.057796 145.7588 
L 346.751827 150.477907 
L 350.445859 155.327138 
L 354.13989 160.304748 
L 357.833921 165.408876 
L 361.527952 170.637477 
L 365.221983 175.988335 
L 368.916015 181.459045 
L 372.610046 187.046965 
L 376.304077 192.749233 
L 379.998108 198.562702 
L 383.69214 204.483956 
L 387.386171 210.509237 
L 391.080202 216.634455 
L 394.774233 222.855128 
L 398.468264 229.166353 
L 402.162296 235.562763 
L 405.856327 242.03848 
L 409.550358 248.587058 
L 413.244389 255.201424 
L 416.938421 261.873782 
L 420.632452 268.595528 
L 424.326483 275.357078 
L 428.020514 282.147625 
L 431.714545 288.954545 
" clip-path="url(#pba649e7401)" style="fill: none; stroke: #8c564b; stroke-width: 1.5; stroke-linecap: square"/>
   </g>
   <g id="line2d_17">
    <path d="M 66.005455 288.954545 
L 69.699486 269.673857 
L 73.393517 252.034017 
L 77.087548 235.809198 
L 80.781579 220.817834 
L 84.475611 206.912715 
L 88.169642 193.972671 
L 91.863673 181.89696 
L 95.557704 170.6018 
L 99.251736 160.015558 
L 102.945767 150.077555 
L 106.639798 140.735624 
L 110.333829 131.944672 
L 114.02786 123.665619 
L 117.721892 115.863979 
L 121.415923 108.509939 
L 125.109954 101.576878 
L 128.803985 95.041249 
L 132.498017 88.882143 
L 136.192048 83.08101 
L 139.886079 77.621193 
L 143.58011 72.487544 
L 147.274141 67.666596 
L 150.968173 63.146193 
L 154.662204 58.915288 
L 158.356235 54.963782 
L 162.050266 51.282569 
L 165.744298 47.863346 
L 169.438329 44.698481 
L 173.13236 41.780998 
L 176.826391 39.104551 
L 180.520422 36.663296 
L 184.214454 34.451751 
L 187.908485 32.465029 
L 191.602516 30.698513 
L 195.296547 29.147956 
L 198.990579 27.809442 
L 202.68461 26.679346 
L 206.378641 25.754304 
L 210.072672 25.031211 
L 213.766703 24.507116 
L 217.460735 24.179368 
L 221.154766 24.045455 
L 224.848797 24.102984 
L 228.542828 24.349822 
L 232.23686 24.78392 
L 235.930891 25.403347 
L 239.624922 26.206347 
L 243.318953 27.191238 
L 247.012984 28.356464 
L 250.707016 29.700548 
L 254.401047 31.222103 
L 258.095078 32.919854 
L 261.789109 34.792559 
L 265.48314 36.839078 
L 269.177172 39.058288 
L 272.871203 41.449158 
L 276.565234 44.010699 
L 280.259265 46.741959 
L 283.953297 49.642031 
L 287.647328 52.710025 
L 291.341359 55.945095 
L 295.03539 59.346398 
L 298.729421 62.913124 
L 302.423453 66.644445 
L 306.117484 70.539563 
L 309.811515 74.597647 
L 313.505546 78.817867 
L 317.199578 83.199375 
L 320.893609 87.741278 
L 324.58764 92.442662 
L 328.281671 97.302554 
L 331.975702 102.319924 
L 335.669734 107.49368 
L 339.363765 112.822632 
L 343.057796 118.305523 
L 346.751827 123.940951 
L 350.445859 129.727421 
L 354.13989 135.663273 
L 357.833921 141.746693 
L 361.527952 147.975697 
L 365.221983 154.348084 
L 368.916015 160.861423 
L 372.610046 167.51303 
L 376.304077 174.299947 
L 379.998108 181.218888 
L 383.69214 188.266209 
L 387.386171 195.437885 
L 391.080202 202.729452 
L 394.774233 210.135961 
L 398.468264 217.651935 
L 402.162296 225.271298 
L 405.856327 232.98731 
L 409.550358 240.792497 
L 413.244389 248.678556 
L 416.938421 256.636239 
L 420.632452 264.655211 
L 424.326483 272.723839 
L 428.020514 280.82885 
L 431.714545 288.954545 
" clip-path="url(#pba649e7401)" style="fill: none; stroke: #e377c2; stroke-width: 1.5; stroke-linecap: square"/>
   </g>
   <g id="patch_3">
    <path d="M 47.72 302.2 
L 47.72 10.8 
" style="fill: none; stroke: #000000; stroke-width: 0.8; stroke-linejoin: miter; stroke-linecap: square"/>
   </g>
   <g id="patch_4">
    <path d="M 450 302.2 
L 450 10.8 
" style="fill: none; stroke: #000000; stroke-width: 0.8; stroke-linejoin: miter; stroke-linecap: square"/>
   </g>
   <g id="patch_5">
    <path d="M 47.72 302.2 
L 450 302.2 
" style="fill: none; stroke: #000000; stroke-width: 0.8; stroke-linejoin: miter; stroke-linecap: square"/>
   </g>
   <g id="patch_6">
    <path d="M 47.72 10.8 
L 450 10.8 
" style="fill: none; stroke: #000000; stroke-width: 0.8; stroke-linejoin: miter; stroke-linecap: square"/>
   </g>
  </g>
  <g id="legend_1">
   <g id="patch_7">
    <path d="M 399.534375 125.425 
L 453.8 125.425 
Q 455.8 125.425 455.8 123.425 
L 455.8 7 
Q 455.8 5 453.8 5 
L 399.534375 5 
Q 397.534375 5 397.534375 7 
L 397.534375 123.425 
Q 397.534375 125.425 399.534375 125.425 
z
" style="fill: #ffffff; opacity: 0.8; stroke: #cccccc; stroke-linejoin: miter"/>
   </g>
   <g id="text_13">
    <!-- $v_0$ -->
    <g transform="translate(421.317187 16.598437) scale(0.1 -0.1)">
     <defs>
      <path id="DejaVuSans-Oblique-76" d="M 459 3500 
L 1069 3500 
L 1581 525 
L 3256 3500 
L 3866 3500 
L 1875 0 
L 1100 0 
L 459 3500 
z
" transform="scale(0.015625)"/>
     </defs>
     <use xlink:href="#DejaVuSans-Oblique-76" transform="translate(0 0.3125)"/>
     <use xlink:href="#DejaVuSans-30" transform="translate(59.179688 -16.09375) scale(0.7)"/>
    </g>
   </g>
   <g id="line2d_18">
    <path d="M 401.534375 27.776563 
L 411.534375 27.776563 
L 421.534375 27.776563 
" style="fill: none; stroke: #1f77b4; stroke-width: 1.5; stroke-linecap: square"/>
   </g>
   <g id="text_14">
    <!-- 0.0 -->
    <g transform="translate(429.534375 31.276563) scale(0.1 -0.1)">
     <use xlink:href="#DejaVuSans-30"/>
     <use xlink:href="#DejaVuSans-2e" transform="translate(63.623047 0)"/>
     <use xlink:href="#DejaVuSans-30" transform="translate(95.410156 0)"/>
    </g>
   </g>
   <g id="line2d_19">
    <path d="M 401.534375 42.454688 
L 411.534375 42.454688 
L 421.534375 42.454688 
" style="fill: none; stroke: #ff7f0e; stroke-width: 1.5; stroke-linecap: square"/>
   </g>
   <g id="text_15">
    <!-- 0.25 -->
    <g transform="translate(429.534375 45.954688) scale(0.1 -0.1)">
     <defs>
      <path id="DejaVuSans-35" d="M 691 4666 
L 3169 4666 
L 3169 4134 
L 1269 4134 
L 1269 2991 
Q 1406 3038 1543 3061 
Q 1681 3084 1819 3084 
Q 2600 3084 3056 2656 
Q 3513 2228 3513 1497 
Q 3513 744 3044 326 
Q 2575 -91 1722 -91 
Q 1428 -91 1123 -41 
Q 819 9 494 109 
L 494 744 
Q 775 591 1075 516 
Q 1375 441 1709 441 
Q 2250 441 2565 725 
Q 2881 1009 2881 1497 
Q 2881 1984 2565 2268 
Q 2250 2553 1709 2553 
Q 1456 2553 1204 2497 
Q 953 2441 691 2322 
L 691 4666 
z
" transform="scale(0.015625)"/>
     </defs>
     <use xlink:href="#DejaVuSans-30"/>
     <use xlink:href="#DejaVuSans-2e" transform="translate(63.623047 0)"/>
     <use xlink:href="#DejaVuSans-32" transform="translate(95.410156 0)"/>
     <use xlink:href="#DejaVuSans-35" transform="translate(159.033203 0)"/>
    </g>
   </g>
   <g id="line2d_20">
    <path d="M 401.534375 57.132812 
L 411.534375 57.132812 
L 421.534375 57.132812 
" style="fill: none; stroke: #2ca02c; stroke-width: 1.5; stroke-linecap: square"/>
   </g>
   <g id="text_16">
    <!-- 0.5 -->
    <g transform="translate(429.534375 60.632812) scale(0.1 -0.1)">
     <use xlink:href="#DejaVuSans-30"/>
     <use xlink:href="#DejaVuSans-2e" transform="translate(63.623047 0)"/>
     <use xlink:href="#DejaVuSans-35" transform="translate(95.410156 0)"/>
    </g>
   </g>
   <g id="line2d_21">
    <path d="M 401.534375 71.810938 
L 411.534375 71.810938 
L 421.534375 71.810938 
" style="fill: none; stroke: #d62728; stroke-width: 1.5; stroke-linecap: square"/>
   </g>
   <g id="text_17">
    <!-- 0.75 -->
    <g transform="translate(429.534375 75.310938) scale(0.1 -0.1)">
     <defs>
      <path id="DejaVuSans-37" d="M 525 4666 
L 3525 4666 
L 3525 4397 
L 1831 0 
L 1172 0 
L 2766 4134 
L 525 4134 
L 525 4666 
z
" transform="scale(0.015625)"/>
     </defs>
     <use xlink:href="#DejaVuSans-30"/>
     <use xlink:href="#DejaVuSans-2e" transform="translate(63.623047 0)"/>
     <use xlink:href="#DejaVuSans-37" transform="translate(95.410156 0)"/>
     <use xlink:href="#DejaVuSans-35" transform="translate(159.033203 0)"/>
    </g>
   </g>
   <g id="line2d_22">
    <path d="M 401.534375 86.489063 
L 411.534375 86.489063 
L 421.534375 86.489063 
" style="fill: none; stroke: #9467bd; stroke-width: 1.5; stroke-linecap: square"/>
   </g>
   <g id="text_18">
    <!-- 1.0 -->
    <g transform="translate(429.534375 89.989063) scale(0.1 -0.1)">
     <defs>
      <path id="DejaVuSans-31" d="M 794 531 
L 1825 531 
L 1825 4091 
L 703 3866 
L 703 4441 
L 1819 4666 
L 2450 4666 
L 2450 531 
L 3481 531 
L 3481 0 
L 794 0 
L 794 531 
z
" transform="scale(0.015625)"/>
     </defs>
     <use xlink:href="#DejaVuSans-31"/>
     <use xlink:href="#DejaVuSans-2e" transform="translate(63.623047 0)"/>
     <use xlink:href="#DejaVuSans-30" transform="translate(95.410156 0)"/>
    </g>
   </g>
   <g id="line2d_23">
    <path d="M 401.534375 101.167188 
L 411.534375 101.167188 
L 421.534375 101.167188 
" style="fill: none; stroke: #8c564b; stroke-width: 1.5; stroke-linecap: square"/>
   </g>
   <g id="text_19">
    <!-- 1.25 -->
    <g transform="translate(429.534375 104.667188) scale(0.1 -0.1)">
     <use xlink:href="#DejaVuSans-31"/>
     <use xlink:href="#DejaVuSans-2e" transform="translate(63.623047 0)"/>
     <use xlink:href="#DejaVuSans-32" transform="translate(95.410156 0)"/>
     <use xlink:href="#DejaVuSans-35" transform="translate(159.033203 0)"/>
    </g>
   </g>
   <g id="line2d_24">
    <path d="M 401.534375 115.845313 
L 411.534375 115.845313 
L 421.534375 115.845313 
" style="fill: none; stroke: #e377c2; stroke-width: 1.5; stroke-linecap: square"/>
   </g>
   <g id="text_20">
    <!-- 1.5 -->
    <g transform="translate(429.534375 119.345313) scale(0.1 -0.1)">
     <use xlink:href="#DejaVuSans-31"/>
     <use xlink:href="#DejaVuSans-2e" transform="translate(63.623047 0)"/>
     <use xlink:href="#DejaVuSans-35" transform="translate(95.410156 0)"/>
    </g>
   </g>
  </g>
 </g>
 <defs>
  <clipPath id="pba649e7401">
   <rect x="47.72" y="10.8" width="402.28" height="291.4"/>
  </clipPath>
 </defs>
</svg>
