<?xml version="1.0" encoding="utf-8" standalone="no"?>
<!DOCTYPE svg PUBLIC "-//W3C//DTD SVG 1.1//EN"
  "http://www.w3.org/Graphics/SVG/1.1/DTD/svg11.dtd">
<svg xmlns:xlink="http://www.w3.org/1999/xlink" width="460.8pt" height="345.6pt" viewBox="0 0 460.8 345.6" xmlns="http://www.w3.org/2000/svg" version="1.1">
 <metadata>
  <rdf:RDF xmlns:dc="http://purl.org/dc/elements/1.1/" xmlns:cc="http://creativecommons.org/ns#" xmlns:rdf="http://www.w3.org/1999/02/22-rdf-syntax-ns#">
   <cc:Work>
    <dc:type rdf:resource="http://purl.org/dc/dcmitype/StillImage"/>
    <dc:date>2025-05-16T17:20:54.334046</dc:date>
    <dc:format>image/svg+xml</dc:format>
    <dc:creator>
     <cc:Agent>
      <dc:title>Matplotlib v3.10.1, https://matplotlib.org/</dc:title>
     </cc:Agent>
    </dc:creator>
   </cc:Work>
  </rdf:RDF>
 </metadata>
 <defs>
  <style type="text/css">*{stroke-linejoin: round; stroke-linecap: butt}</style>
 </defs>
 <g id="figure_1">
  <g id="patch_1">
   <path d="M 0 345.6 
L 460.8 345.6 
L 460.8 0 
L 0 0 
z
" style="fill: #ffffff"/>
  </g>
  <g id="axes_1">
   <g id="patch_2">
    <path d="M 25.6 320.72 
L 450 320.72 
L 450 10.8 
L 25.6 10.8 
z
" style="fill: #ffffff"/>
   </g>
   <g id="matplotlib.axis_1">
    <g id="xtick_1"/>
    <g id="xtick_2"/>
    <g id="xtick_3"/>
    <g id="xtick_4"/>
    <g id="xtick_5"/>
    <g id="xtick_6"/>
    <g id="xtick_7"/>
    <g id="text_1">
     <!-- $x$ -->
     <g transform="translate(234.8 332.318437) scale(0.1 -0.1)">
      <defs>
       <path id="DejaVuSans-Oblique-78" d="M 3841 3500 
L 2234 1784 
L 3219 0 
L 2559 0 
L 1819 1388 
L 531 0 
L -166 0 
L 1556 1844 
L 641 3500 
L 1300 3500 
L 1972 2234 
L 3144 3500 
L 3841 3500 
z
" transform="scale(0.015625)"/>
      </defs>
      <use xlink:href="#DejaVuSans-Oblique-78" transform="translate(0 0.3125)"/>
     </g>
    </g>
   </g>
   <g id="matplotlib.axis_2">
    <g id="ytick_1"/>
    <g id="ytick_2"/>
    <g id="ytick_3"/>
    <g id="ytick_4"/>
    <g id="ytick_5"/>
    <g id="ytick_6"/>
    <g id="text_2">
     <!-- $y$ -->
     <g transform="translate(19.5 168.76) rotate(-90) scale(0.1 -0.1)">
      <defs>
       <path id="DejaVuSans-Oblique-79" d="M 1588 -325 
Q 1188 -997 936 -1164 
Q 684 -1331 294 -1331 
L -159 -1331 
L -63 -850 
L 269 -850 
Q 509 -850 678 -719 
Q 847 -588 1056 -206 
L 1234 128 
L 459 3500 
L 1069 3500 
L 1650 819 
L 3256 3500 
L 3859 3500 
L 1588 -325 
z
" transform="scale(0.015625)"/>
      </defs>
      <use xlink:href="#DejaVuSans-Oblique-79" transform="translate(0 0.3125)"/>
     </g>
    </g>
   </g>
   <g id="line2d_1">
    <path d="M 44.890909 306.432255 
L 48.788062 295.170456 
L 52.685216 284.138489 
L 56.582369 273.336355 
L 60.479522 262.764054 
L 64.376676 252.421585 
L 68.273829 242.308949 
L 72.170983 232.426145 
L 76.068136 222.773175 
L 79.965289 213.350036 
L 83.862443 204.156731 
L 87.759596 195.193258 
L 91.656749 186.459618 
L 95.553903 177.95581 
L 99.451056 169.681835 
L 103.348209 161.637693 
L 107.245363 153.823383 
L 111.142516 146.238906 
L 115.039669 138.884261 
L 118.936823 131.75945 
L 122.833976 124.864471 
L 126.731129 118.199324 
L 130.628283 111.76401 
L 134.525436 105.558529 
L 138.42259 99.58288 
L 142.319743 93.837064 
L 146.216896 88.321081 
L 150.11405 83.03493 
L 154.011203 77.978612 
L 157.908356 73.152127 
L 161.80551 68.555474 
L 165.702663 64.188654 
L 169.599816 60.051666 
L 173.49697 56.144512 
L 177.394123 52.467189 
L 181.291276 49.0197 
L 185.18843 45.802043 
L 189.085583 42.814219 
L 192.982736 40.056227 
L 196.87989 37.528068 
L 200.777043 35.229741 
L 204.674197 33.161248 
L 208.57135 31.322587 
L 212.468503 29.713758 
L 216.365657 28.334762 
L 220.26281 27.185599 
L 224.159963 26.266269 
L 228.057117 25.576771 
L 231.95427 25.117105 
L 235.851423 24.887273 
L 239.748577 24.887273 
L 243.64573 25.117105 
L 247.542883 25.576771 
L 251.440037 26.266269 
L 255.33719 27.185599 
L 259.234343 28.334762 
L 263.131497 29.713758 
L 267.02865 31.322587 
L 270.925803 33.161248 
L 274.822957 35.229741 
L 278.72011 37.528068 
L 282.617264 40.056227 
L 286.514417 42.814219 
L 290.41157 45.802043 
L 294.308724 49.0197 
L 298.205877 52.467189 
L 302.10303 56.144512 
L 306.000184 60.051666 
L 309.897337 64.188654 
L 313.79449 68.555474 
L 317.691644 73.152127 
L 321.588797 77.978612 
L 325.48595 83.03493 
L 329.383104 88.321081 
L 333.280257 93.837064 
L 337.17741 99.58288 
L 341.074564 105.558529 
L 344.971717 111.76401 
L 348.868871 118.199324 
L 352.766024 124.864471 
L 356.663177 131.75945 
L 360.560331 138.884261 
L 364.457484 146.238906 
L 368.354637 153.823383 
L 372.251791 161.637693 
L 376.148944 169.681835 
L 380.046097 177.95581 
L 383.943251 186.459618 
L 387.840404 195.193258 
L 391.737557 204.156731 
L 395.634711 213.350036 
L 399.531864 222.773175 
L 403.429017 232.426145 
L 407.326171 242.308949 
L 411.223324 252.421585 
L 415.120478 262.764054 
L 419.017631 273.336355 
L 422.914784 284.138489 
L 426.811938 295.170456 
L 430.709091 306.432255 
" clip-path="url(#p58dba68dcb)" style="fill: none; stroke: #1f77b4; stroke-width: 1.5; stroke-linecap: square"/>
   </g>
   <g id="line2d_2">
    <path d="M 44.890909 306.432255 
L 51.399572 287.764311 
L 57.575763 270.709619 
L 63.232185 255.713512 
L 68.637935 241.993956 
L 73.815253 229.466765 
L 78.588609 218.494205 
L 82.996322 208.893554 
L 87.252833 200.142836 
L 91.192549 192.531063 
L 95.011922 185.629004 
L 98.552348 179.676616 
L 101.995939 174.322537 
L 105.190502 169.760867 
L 108.152483 165.897846 
L 111.046951 162.480191 
L 113.729668 159.642382 
L 116.357126 157.184073 
L 118.789974 155.202808 
L 121.177445 153.545142 
L 123.384566 152.274684 
L 125.554365 151.279844 
L 127.555789 150.593122 
L 129.526522 150.140466 
L 131.467503 149.918208 
L 133.379624 149.922843 
L 135.26373 150.151023 
L 137.120624 150.599543 
L 138.951067 151.265333 
L 140.875202 152.211669 
L 142.7709 153.398424 
L 144.754805 154.919093 
L 146.708397 156.703655 
L 148.744809 158.876766 
L 150.749138 161.337465 
L 152.831005 164.242426 
L 154.985998 167.636603 
L 157.20968 171.566218 
L 159.4976 176.078636 
L 161.845303 181.222237 
L 164.248334 187.046282 
L 166.702244 193.600771 
L 169.202591 200.936288 
L 171.744944 209.103844 
L 174.32488 218.154695 
L 176.937983 228.140157 
L 179.579844 239.111399 
L 182.331005 251.517758 
L 185.097914 265.055468 
L 187.876148 279.774272 
L 190.66129 295.722608 
L 192.451168 306.632727 
L 192.451168 306.632727 
" clip-path="url(#p58dba68dcb)" style="fill: none; stroke: #ff7f0e; stroke-width: 1.5; stroke-linecap: square"/>
   </g>
   <g id="patch_3">
    <path d="M 25.6 320.72 
L 25.6 10.8 
" style="fill: none; stroke: #000000; stroke-width: 0.8; stroke-linejoin: miter; stroke-linecap: square"/>
   </g>
   <g id="patch_4">
    <path d="M 25.6 320.72 
L 450 320.72 
" style="fill: none; stroke: #000000; stroke-width: 0.8; stroke-linejoin: miter; stroke-linecap: square"/>
   </g>
  </g>
  <g id="legend_1">
   <g id="patch_5">
    <path d="M 345.2125 37.35625 
L 453.8 37.35625 
Q 455.8 37.35625 455.8 35.35625 
L 455.8 7 
Q 455.8 5 453.8 5 
L 345.2125 5 
Q 343.2125 5 343.2125 7 
L 343.2125 35.35625 
Q 343.2125 37.35625 345.2125 37.35625 
z
" style="fill: #ffffff; opacity: 0.8; stroke: #cccccc; stroke-linejoin: miter"/>
   </g>
   <g id="line2d_3">
    <path d="M 347.2125 13.098437 
L 357.2125 13.098437 
L 367.2125 13.098437 
" style="fill: none; stroke: #1f77b4; stroke-width: 1.5; stroke-linecap: square"/>
   </g>
   <g id="text_3">
    <!-- No Drag -->
    <g transform="translate(375.2125 16.598437) scale(0.1 -0.1)">
     <defs>
      <path id="DejaVuSans-4e" d="M 628 4666 
L 1478 4666 
L 3547 763 
L 3547 4666 
L 4159 4666 
L 4159 0 
L 3309 0 
L 1241 3903 
L 1241 0 
L 628 0 
L 628 4666 
z
" transform="scale(0.015625)"/>
      <path id="DejaVuSans-6f" d="M 1959 3097 
Q 1497 3097 1228 2736 
Q 959 2375 959 1747 
Q 959 1119 1226 758 
Q 1494 397 1959 397 
Q 2419 397 2687 759 
Q 2956 1122 2956 1747 
Q 2956 2369 2687 2733 
Q 2419 3097 1959 3097 
z
M 1959 3584 
Q 2709 3584 3137 3096 
Q 3566 2609 3566 1747 
Q 3566 888 3137 398 
Q 2709 -91 1959 -91 
Q 1206 -91 779 398 
Q 353 888 353 1747 
Q 353 2609 779 3096 
Q 1206 3584 1959 3584 
z
" transform="scale(0.015625)"/>
      <path id="DejaVuSans-20" transform="scale(0.015625)"/>
      <path id="DejaVuSans-44" d="M 1259 4147 
L 1259 519 
L 2022 519 
Q 2988 519 3436 956 
Q 3884 1394 3884 2338 
Q 3884 3275 3436 3711 
Q 2988 4147 2022 4147 
L 1259 4147 
z
M 628 4666 
L 1925 4666 
Q 3281 4666 3915 4102 
Q 4550 3538 4550 2338 
Q 4550 1131 3912 565 
Q 3275 0 1925 0 
L 628 0 
L 628 4666 
z
" transform="scale(0.015625)"/>
      <path id="DejaVuSans-72" d="M 2631 2963 
Q 2534 3019 2420 3045 
Q 2306 3072 2169 3072 
Q 1681 3072 1420 2755 
Q 1159 2438 1159 1844 
L 1159 0 
L 581 0 
L 581 3500 
L 1159 3500 
L 1159 2956 
Q 1341 3275 1631 3429 
Q 1922 3584 2338 3584 
Q 2397 3584 2469 3576 
Q 2541 3569 2628 3553 
L 2631 2963 
z
" transform="scale(0.015625)"/>
      <path id="DejaVuSans-61" d="M 2194 1759 
Q 1497 1759 1228 1600 
Q 959 1441 959 1056 
Q 959 750 1161 570 
Q 1363 391 1709 391 
Q 2188 391 2477 730 
Q 2766 1069 2766 1631 
L 2766 1759 
L 2194 1759 
z
M 3341 1997 
L 3341 0 
L 2766 0 
L 2766 531 
Q 2569 213 2275 61 
Q 1981 -91 1556 -91 
Q 1019 -91 701 211 
Q 384 513 384 1019 
Q 384 1609 779 1909 
Q 1175 2209 1959 2209 
L 2766 2209 
L 2766 2266 
Q 2766 2663 2505 2880 
Q 2244 3097 1772 3097 
Q 1472 3097 1187 3025 
Q 903 2953 641 2809 
L 641 3341 
Q 956 3463 1253 3523 
Q 1550 3584 1831 3584 
Q 2591 3584 2966 3190 
Q 3341 2797 3341 1997 
z
" transform="scale(0.015625)"/>
      <path id="DejaVuSans-67" d="M 2906 1791 
Q 2906 2416 2648 2759 
Q 2391 3103 1925 3103 
Q 1463 3103 1205 2759 
Q 947 2416 947 1791 
Q 947 1169 1205 825 
Q 1463 481 1925 481 
Q 2391 481 2648 825 
Q 2906 1169 2906 1791 
z
M 3481 434 
Q 3481 -459 3084 -895 
Q 2688 -1331 1869 -1331 
Q 1566 -1331 1297 -1286 
Q 1028 -1241 775 -1147 
L 775 -588 
Q 1028 -725 1275 -790 
Q 1522 -856 1778 -856 
Q 2344 -856 2625 -561 
Q 2906 -266 2906 331 
L 2906 616 
Q 2728 306 2450 153 
Q 2172 0 1784 0 
Q 1141 0 747 490 
Q 353 981 353 1791 
Q 353 2603 747 3093 
Q 1141 3584 1784 3584 
Q 2172 3584 2450 3431 
Q 2728 3278 2906 2969 
L 2906 3500 
L 3481 3500 
L 3481 434 
z
" transform="scale(0.015625)"/>
     </defs>
     <use xlink:href="#DejaVuSans-4e"/>
     <use xlink:href="#DejaVuSans-6f" transform="translate(74.804688 0)"/>
     <use xlink:href="#DejaVuSans-20" transform="translate(135.986328 0)"/>
     <use xlink:href="#DejaVuSans-44" transform="translate(167.773438 0)"/>
     <use xlink:href="#DejaVuSans-72" transform="translate(244.775391 0)"/>
     <use xlink:href="#DejaVuSans-61" transform="translate(285.888672 0)"/>
     <use xlink:href="#DejaVuSans-67" transform="translate(347.167969 0)"/>
    </g>
   </g>
   <g id="line2d_4">
    <path d="M 347.2125 27.776563 
L 357.2125 27.776563 
L 367.2125 27.776563 
" style="fill: none; stroke: #ff7f0e; stroke-width: 1.5; stroke-linecap: square"/>
   </g>
   <g id="text_4">
    <!-- Quadratic Drag -->
    <g transform="translate(375.2125 31.276563) scale(0.1 -0.1)">
     <defs>
      <path id="DejaVuSans-51" d="M 2522 4238 
Q 1834 4238 1429 3725 
Q 1025 3213 1025 2328 
Q 1025 1447 1429 934 
Q 1834 422 2522 422 
Q 3209 422 3611 934 
Q 4013 1447 4013 2328 
Q 4013 3213 3611 3725 
Q 3209 4238 2522 4238 
z
M 3406 84 
L 4238 -825 
L 3475 -825 
L 2784 -78 
Q 2681 -84 2626 -87 
Q 2572 -91 2522 -91 
Q 1538 -91 948 567 
Q 359 1225 359 2328 
Q 359 3434 948 4092 
Q 1538 4750 2522 4750 
Q 3503 4750 4090 4092 
Q 4678 3434 4678 2328 
Q 4678 1516 4351 937 
Q 4025 359 3406 84 
z
" transform="scale(0.015625)"/>
      <path id="DejaVuSans-75" d="M 544 1381 
L 544 3500 
L 1119 3500 
L 1119 1403 
Q 1119 906 1312 657 
Q 1506 409 1894 409 
Q 2359 409 2629 706 
Q 2900 1003 2900 1516 
L 2900 3500 
L 3475 3500 
L 3475 0 
L 2900 0 
L 2900 538 
Q 2691 219 2414 64 
Q 2138 -91 1772 -91 
Q 1169 -91 856 284 
Q 544 659 544 1381 
z
M 1991 3584 
L 1991 3584 
z
" transform="scale(0.015625)"/>
      <path id="DejaVuSans-64" d="M 2906 2969 
L 2906 4863 
L 3481 4863 
L 3481 0 
L 2906 0 
L 2906 525 
Q 2725 213 2448 61 
Q 2172 -91 1784 -91 
Q 1150 -91 751 415 
Q 353 922 353 1747 
Q 353 2572 751 3078 
Q 1150 3584 1784 3584 
Q 2172 3584 2448 3432 
Q 2725 3281 2906 2969 
z
M 947 1747 
Q 947 1113 1208 752 
Q 1469 391 1925 391 
Q 2381 391 2643 752 
Q 2906 1113 2906 1747 
Q 2906 2381 2643 2742 
Q 2381 3103 1925 3103 
Q 1469 3103 1208 2742 
Q 947 2381 947 1747 
z
" transform="scale(0.015625)"/>
      <path id="DejaVuSans-74" d="M 1172 4494 
L 1172 3500 
L 2356 3500 
L 2356 3053 
L 1172 3053 
L 1172 1153 
Q 1172 725 1289 603 
Q 1406 481 1766 481 
L 2356 481 
L 2356 0 
L 1766 0 
Q 1100 0 847 248 
Q 594 497 594 1153 
L 594 3053 
L 172 3053 
L 172 3500 
L 594 3500 
L 594 4494 
L 1172 4494 
z
" transform="scale(0.015625)"/>
      <path id="DejaVuSans-69" d="M 603 3500 
L 1178 3500 
L 1178 0 
L 603 0 
L 603 3500 
z
M 603 4863 
L 1178 4863 
L 1178 4134 
L 603 4134 
L 603 4863 
z
" transform="scale(0.015625)"/>
      <path id="DejaVuSans-63" d="M 3122 3366 
L 3122 2828 
Q 2878 2963 2633 3030 
Q 2388 3097 2138 3097 
Q 1578 3097 1268 2742 
Q 959 2388 959 1747 
Q 959 1106 1268 751 
Q 1578 397 2138 397 
Q 2388 397 2633 464 
Q 2878 531 3122 666 
L 3122 134 
Q 2881 22 2623 -34 
Q 2366 -91 2075 -91 
Q 1284 -91 818 406 
Q 353 903 353 1747 
Q 353 2603 823 3093 
Q 1294 3584 2113 3584 
Q 2378 3584 2631 3529 
Q 2884 3475 3122 3366 
z
" transform="scale(0.015625)"/>
     </defs>
     <use xlink:href="#DejaVuSans-51"/>
     <use xlink:href="#DejaVuSans-75" transform="translate(78.710938 0)"/>
     <use xlink:href="#DejaVuSans-61" transform="translate(142.089844 0)"/>
     <use xlink:href="#DejaVuSans-64" transform="translate(203.369141 0)"/>
     <use xlink:href="#DejaVuSans-72" transform="translate(266.845703 0)"/>
     <use xlink:href="#DejaVuSans-61" transform="translate(307.958984 0)"/>
     <use xlink:href="#DejaVuSans-74" transform="translate(369.238281 0)"/>
     <use xlink:href="#DejaVuSans-69" transform="translate(408.447266 0)"/>
     <use xlink:href="#DejaVuSans-63" transform="translate(436.230469 0)"/>
     <use xlink:href="#DejaVuSans-20" transform="translate(491.210938 0)"/>
     <use xlink:href="#DejaVuSans-44" transform="translate(522.998047 0)"/>
     <use xlink:href="#DejaVuSans-72" transform="translate(600 0)"/>
     <use xlink:href="#DejaVuSans-61" transform="translate(641.113281 0)"/>
     <use xlink:href="#DejaVuSans-67" transform="translate(702.392578 0)"/>
    </g>
   </g>
  </g>
 </g>
 <defs>
  <clipPath id="p58dba68dcb">
   <rect x="25.6" y="10.8" width="424.4" height="309.92"/>
  </clipPath>
 </defs>
</svg>
