<?xml version="1.0" encoding="utf-8" standalone="no"?>
<!DOCTYPE svg PUBLIC "-//W3C//DTD SVG 1.1//EN"
  "http://www.w3.org/Graphics/SVG/1.1/DTD/svg11.dtd">
<svg xmlns:xlink="http://www.w3.org/1999/xlink" width="460.8pt" height="345.6pt" viewBox="0 0 460.8 345.6" xmlns="http://www.w3.org/2000/svg" version="1.1">
 <metadata>
  <rdf:RDF xmlns:dc="http://purl.org/dc/elements/1.1/" xmlns:cc="http://creativecommons.org/ns#" xmlns:rdf="http://www.w3.org/1999/02/22-rdf-syntax-ns#">
   <cc:Work>
    <dc:type rdf:resource="http://purl.org/dc/dcmitype/StillImage"/>
    <dc:date>2025-05-17T18:31:23.580675</dc:date>
    <dc:format>image/svg+xml</dc:format>
    <dc:creator>
     <cc:Agent>
      <dc:title>Matplotlib v3.10.1, https://matplotlib.org/</dc:title>
     </cc:Agent>
    </dc:creator>
   </cc:Work>
  </rdf:RDF>
 </metadata>
 <defs>
  <style type="text/css">*{stroke-linejoin: round; stroke-linecap: butt}</style>
 </defs>
 <g id="figure_1">
  <g id="patch_1">
   <path d="M 0 345.6 
L 460.8 345.6 
L 460.8 0 
L 0 0 
z
" style="fill: #ffffff"/>
  </g>
  <g id="axes_1">
   <g id="patch_2">
    <path d="M 48.44 303.64 
L 450 303.64 
L 450 26.88 
L 48.44 26.88 
z
" style="fill: #ffffff"/>
   </g>
   <g id="matplotlib.axis_1">
    <g id="xtick_1">
     <g id="line2d_1">
      <defs>
       <path id="m8550ffea9d" d="M 0 0 
L 0 3.5 
" style="stroke: #000000; stroke-width: 0.8"/>
      </defs>
      <g>
       <use xlink:href="#m8550ffea9d" x="66.692727" y="303.64" style="stroke: #000000; stroke-width: 0.8"/>
      </g>
     </g>
     <g id="text_1">
      <!-- 0.0 -->
      <g transform="translate(58.741165 318.238437) scale(0.1 -0.1)">
       <defs>
        <path id="DejaVuSans-30" d="M 2034 4250 
Q 1547 4250 1301 3770 
Q 1056 3291 1056 2328 
Q 1056 1369 1301 889 
Q 1547 409 2034 409 
Q 2525 409 2770 889 
Q 3016 1369 3016 2328 
Q 3016 3291 2770 3770 
Q 2525 4250 2034 4250 
z
M 2034 4750 
Q 2819 4750 3233 4129 
Q 3647 3509 3647 2328 
Q 3647 1150 3233 529 
Q 2819 -91 2034 -91 
Q 1250 -91 836 529 
Q 422 1150 422 2328 
Q 422 3509 836 4129 
Q 1250 4750 2034 4750 
z
" transform="scale(0.015625)"/>
        <path id="DejaVuSans-2e" d="M 684 794 
L 1344 794 
L 1344 0 
L 684 0 
L 684 794 
z
" transform="scale(0.015625)"/>
       </defs>
       <use xlink:href="#DejaVuSans-30"/>
       <use xlink:href="#DejaVuSans-2e" transform="translate(63.623047 0)"/>
       <use xlink:href="#DejaVuSans-30" transform="translate(95.410156 0)"/>
      </g>
     </g>
    </g>
    <g id="xtick_2">
     <g id="line2d_2">
      <g>
       <use xlink:href="#m8550ffea9d" x="128.668618" y="303.64" style="stroke: #000000; stroke-width: 0.8"/>
      </g>
     </g>
     <g id="text_2">
      <!-- 0.2 -->
      <g transform="translate(120.717055 318.238437) scale(0.1 -0.1)">
       <defs>
        <path id="DejaVuSans-32" d="M 1228 531 
L 3431 531 
L 3431 0 
L 469 0 
L 469 531 
Q 828 903 1448 1529 
Q 2069 2156 2228 2338 
Q 2531 2678 2651 2914 
Q 2772 3150 2772 3378 
Q 2772 3750 2511 3984 
Q 2250 4219 1831 4219 
Q 1534 4219 1204 4116 
Q 875 4013 500 3803 
L 500 4441 
Q 881 4594 1212 4672 
Q 1544 4750 1819 4750 
Q 2544 4750 2975 4387 
Q 3406 4025 3406 3419 
Q 3406 3131 3298 2873 
Q 3191 2616 2906 2266 
Q 2828 2175 2409 1742 
Q 1991 1309 1228 531 
z
" transform="scale(0.015625)"/>
       </defs>
       <use xlink:href="#DejaVuSans-30"/>
       <use xlink:href="#DejaVuSans-2e" transform="translate(63.623047 0)"/>
       <use xlink:href="#DejaVuSans-32" transform="translate(95.410156 0)"/>
      </g>
     </g>
    </g>
    <g id="xtick_3">
     <g id="line2d_3">
      <g>
       <use xlink:href="#m8550ffea9d" x="190.644508" y="303.64" style="stroke: #000000; stroke-width: 0.8"/>
      </g>
     </g>
     <g id="text_3">
      <!-- 0.4 -->
      <g transform="translate(182.692945 318.238437) scale(0.1 -0.1)">
       <defs>
        <path id="DejaVuSans-34" d="M 2419 4116 
L 825 1625 
L 2419 1625 
L 2419 4116 
z
M 2253 4666 
L 3047 4666 
L 3047 1625 
L 3713 1625 
L 3713 1100 
L 3047 1100 
L 3047 0 
L 2419 0 
L 2419 1100 
L 313 1100 
L 313 1709 
L 2253 4666 
z
" transform="scale(0.015625)"/>
       </defs>
       <use xlink:href="#DejaVuSans-30"/>
       <use xlink:href="#DejaVuSans-2e" transform="translate(63.623047 0)"/>
       <use xlink:href="#DejaVuSans-34" transform="translate(95.410156 0)"/>
      </g>
     </g>
    </g>
    <g id="xtick_4">
     <g id="line2d_4">
      <g>
       <use xlink:href="#m8550ffea9d" x="252.620398" y="303.64" style="stroke: #000000; stroke-width: 0.8"/>
      </g>
     </g>
     <g id="text_4">
      <!-- 0.6 -->
      <g transform="translate(244.668836 318.238437) scale(0.1 -0.1)">
       <defs>
        <path id="DejaVuSans-36" d="M 2113 2584 
Q 1688 2584 1439 2293 
Q 1191 2003 1191 1497 
Q 1191 994 1439 701 
Q 1688 409 2113 409 
Q 2538 409 2786 701 
Q 3034 994 3034 1497 
Q 3034 2003 2786 2293 
Q 2538 2584 2113 2584 
z
M 3366 4563 
L 3366 3988 
Q 3128 4100 2886 4159 
Q 2644 4219 2406 4219 
Q 1781 4219 1451 3797 
Q 1122 3375 1075 2522 
Q 1259 2794 1537 2939 
Q 1816 3084 2150 3084 
Q 2853 3084 3261 2657 
Q 3669 2231 3669 1497 
Q 3669 778 3244 343 
Q 2819 -91 2113 -91 
Q 1303 -91 875 529 
Q 447 1150 447 2328 
Q 447 3434 972 4092 
Q 1497 4750 2381 4750 
Q 2619 4750 2861 4703 
Q 3103 4656 3366 4563 
z
" transform="scale(0.015625)"/>
       </defs>
       <use xlink:href="#DejaVuSans-30"/>
       <use xlink:href="#DejaVuSans-2e" transform="translate(63.623047 0)"/>
       <use xlink:href="#DejaVuSans-36" transform="translate(95.410156 0)"/>
      </g>
     </g>
    </g>
    <g id="xtick_5">
     <g id="line2d_5">
      <g>
       <use xlink:href="#m8550ffea9d" x="314.596289" y="303.64" style="stroke: #000000; stroke-width: 0.8"/>
      </g>
     </g>
     <g id="text_5">
      <!-- 0.8 -->
      <g transform="translate(306.644726 318.238437) scale(0.1 -0.1)">
       <defs>
        <path id="DejaVuSans-38" d="M 2034 2216 
Q 1584 2216 1326 1975 
Q 1069 1734 1069 1313 
Q 1069 891 1326 650 
Q 1584 409 2034 409 
Q 2484 409 2743 651 
Q 3003 894 3003 1313 
Q 3003 1734 2745 1975 
Q 2488 2216 2034 2216 
z
M 1403 2484 
Q 997 2584 770 2862 
Q 544 3141 544 3541 
Q 544 4100 942 4425 
Q 1341 4750 2034 4750 
Q 2731 4750 3128 4425 
Q 3525 4100 3525 3541 
Q 3525 3141 3298 2862 
Q 3072 2584 2669 2484 
Q 3125 2378 3379 2068 
Q 3634 1759 3634 1313 
Q 3634 634 3220 271 
Q 2806 -91 2034 -91 
Q 1263 -91 848 271 
Q 434 634 434 1313 
Q 434 1759 690 2068 
Q 947 2378 1403 2484 
z
M 1172 3481 
Q 1172 3119 1398 2916 
Q 1625 2713 2034 2713 
Q 2441 2713 2670 2916 
Q 2900 3119 2900 3481 
Q 2900 3844 2670 4047 
Q 2441 4250 2034 4250 
Q 1625 4250 1398 4047 
Q 1172 3844 1172 3481 
z
" transform="scale(0.015625)"/>
       </defs>
       <use xlink:href="#DejaVuSans-30"/>
       <use xlink:href="#DejaVuSans-2e" transform="translate(63.623047 0)"/>
       <use xlink:href="#DejaVuSans-38" transform="translate(95.410156 0)"/>
      </g>
     </g>
    </g>
    <g id="xtick_6">
     <g id="line2d_6">
      <g>
       <use xlink:href="#m8550ffea9d" x="376.572179" y="303.64" style="stroke: #000000; stroke-width: 0.8"/>
      </g>
     </g>
     <g id="text_6">
      <!-- 1.0 -->
      <g transform="translate(368.620616 318.238437) scale(0.1 -0.1)">
       <defs>
        <path id="DejaVuSans-31" d="M 794 531 
L 1825 531 
L 1825 4091 
L 703 3866 
L 703 4441 
L 1819 4666 
L 2450 4666 
L 2450 531 
L 3481 531 
L 3481 0 
L 794 0 
L 794 531 
z
" transform="scale(0.015625)"/>
       </defs>
       <use xlink:href="#DejaVuSans-31"/>
       <use xlink:href="#DejaVuSans-2e" transform="translate(63.623047 0)"/>
       <use xlink:href="#DejaVuSans-30" transform="translate(95.410156 0)"/>
      </g>
     </g>
    </g>
    <g id="xtick_7">
     <g id="line2d_7">
      <g>
       <use xlink:href="#m8550ffea9d" x="438.548069" y="303.64" style="stroke: #000000; stroke-width: 0.8"/>
      </g>
     </g>
     <g id="text_7">
      <!-- 1.2 -->
      <g transform="translate(430.596507 318.238437) scale(0.1 -0.1)">
       <use xlink:href="#DejaVuSans-31"/>
       <use xlink:href="#DejaVuSans-2e" transform="translate(63.623047 0)"/>
       <use xlink:href="#DejaVuSans-32" transform="translate(95.410156 0)"/>
      </g>
     </g>
    </g>
    <g id="text_8">
     <!-- $x$ -->
     <g transform="translate(246.22 331.916562) scale(0.1 -0.1)">
      <defs>
       <path id="DejaVuSans-Oblique-78" d="M 3841 3500 
L 2234 1784 
L 3219 0 
L 2559 0 
L 1819 1388 
L 531 0 
L -166 0 
L 1556 1844 
L 641 3500 
L 1300 3500 
L 1972 2234 
L 3144 3500 
L 3841 3500 
z
" transform="scale(0.015625)"/>
      </defs>
      <use xlink:href="#DejaVuSans-Oblique-78" transform="translate(0 0.3125)"/>
     </g>
    </g>
   </g>
   <g id="matplotlib.axis_2">
    <g id="ytick_1">
     <g id="line2d_8">
      <defs>
       <path id="m202d349cb7" d="M 0 0 
L -3.5 0 
" style="stroke: #000000; stroke-width: 0.8"/>
      </defs>
      <g>
       <use xlink:href="#m202d349cb7" x="48.44" y="290.678812" style="stroke: #000000; stroke-width: 0.8"/>
      </g>
     </g>
     <g id="text_9">
      <!-- 0.0 -->
      <g transform="translate(25.536875 294.47803) scale(0.1 -0.1)">
       <use xlink:href="#DejaVuSans-30"/>
       <use xlink:href="#DejaVuSans-2e" transform="translate(63.623047 0)"/>
       <use xlink:href="#DejaVuSans-30" transform="translate(95.410156 0)"/>
      </g>
     </g>
    </g>
    <g id="ytick_2">
     <g id="line2d_9">
      <g>
       <use xlink:href="#m202d349cb7" x="48.44" y="234.95948" style="stroke: #000000; stroke-width: 0.8"/>
      </g>
     </g>
     <g id="text_10">
      <!-- 0.1 -->
      <g transform="translate(25.536875 238.758699) scale(0.1 -0.1)">
       <use xlink:href="#DejaVuSans-30"/>
       <use xlink:href="#DejaVuSans-2e" transform="translate(63.623047 0)"/>
       <use xlink:href="#DejaVuSans-31" transform="translate(95.410156 0)"/>
      </g>
     </g>
    </g>
    <g id="ytick_3">
     <g id="line2d_10">
      <g>
       <use xlink:href="#m202d349cb7" x="48.44" y="179.240149" style="stroke: #000000; stroke-width: 0.8"/>
      </g>
     </g>
     <g id="text_11">
      <!-- 0.2 -->
      <g transform="translate(25.536875 183.039368) scale(0.1 -0.1)">
       <use xlink:href="#DejaVuSans-30"/>
       <use xlink:href="#DejaVuSans-2e" transform="translate(63.623047 0)"/>
       <use xlink:href="#DejaVuSans-32" transform="translate(95.410156 0)"/>
      </g>
     </g>
    </g>
    <g id="ytick_4">
     <g id="line2d_11">
      <g>
       <use xlink:href="#m202d349cb7" x="48.44" y="123.520817" style="stroke: #000000; stroke-width: 0.8"/>
      </g>
     </g>
     <g id="text_12">
      <!-- 0.3 -->
      <g transform="translate(25.536875 127.320036) scale(0.1 -0.1)">
       <defs>
        <path id="DejaVuSans-33" d="M 2597 2516 
Q 3050 2419 3304 2112 
Q 3559 1806 3559 1356 
Q 3559 666 3084 287 
Q 2609 -91 1734 -91 
Q 1441 -91 1130 -33 
Q 819 25 488 141 
L 488 750 
Q 750 597 1062 519 
Q 1375 441 1716 441 
Q 2309 441 2620 675 
Q 2931 909 2931 1356 
Q 2931 1769 2642 2001 
Q 2353 2234 1838 2234 
L 1294 2234 
L 1294 2753 
L 1863 2753 
Q 2328 2753 2575 2939 
Q 2822 3125 2822 3475 
Q 2822 3834 2567 4026 
Q 2313 4219 1838 4219 
Q 1578 4219 1281 4162 
Q 984 4106 628 3988 
L 628 4550 
Q 988 4650 1302 4700 
Q 1616 4750 1894 4750 
Q 2613 4750 3031 4423 
Q 3450 4097 3450 3541 
Q 3450 3153 3228 2886 
Q 3006 2619 2597 2516 
z
" transform="scale(0.015625)"/>
       </defs>
       <use xlink:href="#DejaVuSans-30"/>
       <use xlink:href="#DejaVuSans-2e" transform="translate(63.623047 0)"/>
       <use xlink:href="#DejaVuSans-33" transform="translate(95.410156 0)"/>
      </g>
     </g>
    </g>
    <g id="ytick_5">
     <g id="line2d_12">
      <g>
       <use xlink:href="#m202d349cb7" x="48.44" y="67.801486" style="stroke: #000000; stroke-width: 0.8"/>
      </g>
     </g>
     <g id="text_13">
      <!-- 0.4 -->
      <g transform="translate(25.536875 71.600705) scale(0.1 -0.1)">
       <use xlink:href="#DejaVuSans-30"/>
       <use xlink:href="#DejaVuSans-2e" transform="translate(63.623047 0)"/>
       <use xlink:href="#DejaVuSans-34" transform="translate(95.410156 0)"/>
      </g>
     </g>
    </g>
    <g id="text_14">
     <!-- $y$ -->
     <g transform="translate(19.436875 168.26) rotate(-90) scale(0.1 -0.1)">
      <defs>
       <path id="DejaVuSans-Oblique-79" d="M 1588 -325 
Q 1188 -997 936 -1164 
Q 684 -1331 294 -1331 
L -159 -1331 
L -63 -850 
L 269 -850 
Q 509 -850 678 -719 
Q 847 -588 1056 -206 
L 1234 128 
L 459 3500 
L 1069 3500 
L 1650 819 
L 3256 3500 
L 3859 3500 
L 1588 -325 
z
" transform="scale(0.015625)"/>
      </defs>
      <use xlink:href="#DejaVuSans-Oblique-79" transform="translate(0 0.3125)"/>
     </g>
    </g>
   </g>
   <g id="line2d_13">
    <path d="M 66.692727 290.678812 
L 66.692727 290.67909 
" clip-path="url(#p7b1d80f782)" style="fill: none; stroke: #1f77b4; stroke-width: 1.5; stroke-linecap: square"/>
   </g>
   <g id="line2d_14">
    <path d="M 66.692727 290.678812 
L 68.275753 288.066136 
L 69.740168 286.069163 
L 71.088662 284.591485 
L 72.376968 283.506621 
L 73.552858 282.797776 
L 74.670994 282.374846 
L 75.732102 282.201535 
L 76.789582 282.251314 
L 77.84345 282.523418 
L 78.946083 283.047554 
L 80.096805 283.857586 
L 81.294822 284.988645 
L 82.539202 286.476992 
L 83.880292 288.442214 
L 85.213641 290.77164 
L 85.213641 290.77164 
" clip-path="url(#p7b1d80f782)" style="fill: none; stroke: #ff7f0e; stroke-width: 1.5; stroke-linecap: square"/>
   </g>
   <g id="line2d_15">
    <path d="M 66.692727 290.678812 
L 69.847428 285.239556 
L 72.852513 280.499988 
L 75.714704 276.39702 
L 78.43987 272.872271 
L 81.033141 269.871526 
L 83.499016 267.344298 
L 85.942841 265.159193 
L 88.265082 263.382716 
L 90.469 261.971504 
L 92.55748 260.884885 
L 94.631524 260.050654 
L 96.691527 259.466967 
L 98.640681 259.142403 
L 100.577625 259.042053 
L 102.502533 259.164512 
L 104.415527 259.5084 
L 106.316678 260.072346 
L 108.300165 260.899814 
L 110.270595 261.966745 
L 112.320768 263.339494 
L 114.356384 264.971215 
L 116.468759 266.951726 
L 118.655506 269.314957 
L 120.914019 272.095551 
L 123.241458 275.328707 
L 125.63473 279.049995 
L 128.090477 283.295157 
L 130.605065 288.099888 
L 131.893919 290.745675 
L 131.893919 290.745675 
" clip-path="url(#p7b1d80f782)" style="fill: none; stroke: #2ca02c; stroke-width: 1.5; stroke-linecap: square"/>
   </g>
   <g id="line2d_16">
    <path d="M 66.692727 290.678812 
L 71.407909 282.433109 
L 75.868677 275.07255 
L 80.245086 268.283952 
L 84.390254 262.264158 
L 88.316477 256.943142 
L 92.18214 252.07799 
L 95.845079 247.820649 
L 99.314195 244.114048 
L 102.739199 240.773501 
L 105.981977 237.910065 
L 109.187741 235.3724 
L 112.220878 233.245725 
L 115.222729 231.409286 
L 118.059957 229.923912 
L 120.870544 228.69706 
L 123.655274 227.726092 
L 126.283999 227.036973 
L 128.890446 226.575631 
L 131.475088 226.340096 
L 134.038338 226.328466 
L 136.580551 226.538896 
L 139.102022 226.969577 
L 141.602994 227.618728 
L 144.083657 228.484578 
L 146.666648 229.625007 
L 149.227513 231.000334 
L 151.886655 232.690817 
L 154.521589 234.634358 
L 157.250368 236.934093 
L 159.952549 239.504722 
L 162.743708 242.472642 
L 165.619983 245.870493 
L 168.464167 249.57672 
L 171.387742 253.753639 
L 174.386262 258.433802 
L 177.455009 263.649751 
L 180.588989 269.433829 
L 183.677263 275.598695 
L 186.823338 282.368237 
L 190.021637 289.772639 
L 190.430392 290.757813 
L 190.430392 290.757813 
" clip-path="url(#p7b1d80f782)" style="fill: none; stroke: #d62728; stroke-width: 1.5; stroke-linecap: square"/>
   </g>
   <g id="line2d_17">
    <path d="M 66.692727 290.678812 
L 72.957354 279.64651 
L 78.843879 269.718849 
L 84.582469 260.472095 
L 89.985474 252.174992 
L 95.268578 244.463752 
L 100.249722 237.573214 
L 105.132824 231.191295 
L 109.740922 225.520756 
L 114.268224 220.294862 
L 118.718993 215.502641 
L 122.923374 211.30076 
L 127.064046 207.481082 
L 130.975147 204.17221 
L 134.83286 201.201264 
L 138.474937 198.670432 
L 142.071991 196.438911 
L 145.625676 194.502362 
L 148.97877 192.925265 
L 152.294948 191.609909 
L 155.575321 190.553156 
L 158.667126 189.78443 
L 161.728174 189.245123 
L 164.759185 188.932895 
L 167.760813 188.845493 
L 170.73364 188.980739 
L 173.678184 189.336517 
L 176.594901 189.910757 
L 179.484187 190.701425 
L 182.346382 191.706512 
L 185.322846 192.990434 
L 188.270034 194.50624 
L 191.188167 196.251609 
L 194.214279 198.323765 
L 197.208829 200.642577 
L 200.305844 203.327512 
L 203.368513 206.275783 
L 206.527728 209.629427 
L 209.649513 213.262366 
L 212.861485 217.33942 
L 216.158632 221.891578 
L 219.535677 226.949948 
L 222.864709 232.339683 
L 226.266079 238.272356 
L 229.733948 244.777888 
L 233.262223 251.885725 
L 236.730019 259.368857 
L 240.249578 267.485748 
L 243.814346 276.263183 
L 247.417569 285.726874 
L 249.244808 290.761169 
L 249.244808 290.761169 
" clip-path="url(#p7b1d80f782)" style="fill: none; stroke: #9467bd; stroke-width: 1.5; stroke-linecap: square"/>
   </g>
   <g id="line2d_18">
    <path d="M 66.692727 290.678812 
L 74.49592 276.87948 
L 81.779217 264.436908 
L 88.835624 252.812058 
L 95.682368 241.96303 
L 102.100491 232.201219 
L 108.350518 223.096007 
L 114.220753 214.92334 
L 119.954781 207.312638 
L 125.560979 200.244107 
L 130.83814 193.941975 
L 136.010439 188.109887 
L 140.882523 182.940909 
L 145.667935 178.181997 
L 150.370991 173.823189 
L 154.804499 170.012941 
L 159.169276 166.554247 
L 163.282738 163.568505 
L 167.338497 160.89245 
L 171.338806 158.52083 
L 175.107474 156.536495 
L 178.829198 154.821077 
L 182.505531 153.370813 
L 186.137905 152.182149 
L 189.557647 151.290222 
L 192.939762 150.629764 
L 196.285211 150.198139 
L 199.594874 149.99282 
L 202.869553 150.011373 
L 206.109976 150.251444 
L 209.316799 150.71075 
L 212.490613 151.387058 
L 215.631943 152.278181 
L 218.895889 153.442696 
L 222.125009 154.839195 
L 225.319713 156.46522 
L 228.48035 158.318316 
L 231.755277 160.500516 
L 234.993422 162.92637 
L 238.339675 165.719876 
L 241.64618 168.773197 
L 245.054232 172.2326 
L 248.419293 175.967273 
L 251.878935 180.145946 
L 255.292061 184.614326 
L 258.792382 189.563676 
L 262.374077 195.023796 
L 265.901471 200.804228 
L 269.502092 207.130284 
L 273.169603 214.030513 
L 276.897427 221.532974 
L 280.557909 229.396806 
L 284.269612 237.892498 
L 288.02556 247.045497 
L 291.818604 256.880197 
L 295.641445 267.41978 
L 299.486668 278.686063 
L 303.346771 290.699355 
L 303.346771 290.699355 
" clip-path="url(#p7b1d80f782)" style="fill: none; stroke: #8c564b; stroke-width: 1.5; stroke-linecap: square"/>
   </g>
   <g id="line2d_19">
    <path d="M 66.692727 290.678812 
L 76.023757 274.131747 
L 84.978656 258.710953 
L 93.299764 244.818005 
L 101.328769 231.842012 
L 109.089413 219.729343 
L 116.338498 208.822449 
L 123.374588 198.636314 
L 129.962971 189.477013 
L 136.380202 180.927469 
L 142.637401 172.963142 
L 148.512446 165.836331 
L 154.257097 159.21211 
L 159.878873 153.074133 
L 165.166581 147.625263 
L 170.353015 142.598649 
L 175.233102 138.167411 
L 180.029134 134.104733 
L 184.745002 130.40227 
L 189.184145 127.190717 
L 193.556159 124.295384 
L 197.863756 121.710418 
L 201.917769 119.527455 
L 205.917402 117.617856 
L 209.864536 115.97744 
L 213.760913 114.602269 
L 217.608143 113.488622 
L 221.227842 112.667921 
L 224.805498 112.07834 
L 228.342206 111.717113 
L 231.838968 111.581587 
L 235.296708 111.669209 
L 238.716267 111.977513 
L 242.098412 112.504102 
L 245.44384 113.246643 
L 248.753177 114.202849 
L 252.189756 115.434361 
L 255.587751 116.896388 
L 258.947678 118.58638 
L 262.26999 120.501797 
L 265.710594 122.747438 
L 269.110742 125.234765 
L 272.622548 128.090363 
L 276.090823 131.203486 
L 279.515835 134.570684 
L 283.043871 138.351383 
L 286.669284 142.57538 
L 290.244235 147.086391 
L 293.908801 152.077216 
L 297.519056 157.367925 
L 301.210777 163.173599 
L 304.97755 169.522838 
L 308.681597 176.199518 
L 312.451875 183.452083 
L 316.281515 191.307422 
L 320.163439 199.791742 
L 323.968893 208.639071 
L 327.817082 218.141599 
L 331.700636 228.32256 
L 335.612062 239.204003 
L 339.543771 250.806648 
L 343.488112 263.149753 
L 347.437408 276.251 
L 351.383997 290.126392 
L 351.58866 290.868118 
L 351.58866 290.868118 
" clip-path="url(#p7b1d80f782)" style="fill: none; stroke: #e377c2; stroke-width: 1.5; stroke-linecap: square"/>
   </g>
   <g id="line2d_20">
    <path d="M 66.692727 290.678812 
L 77.541014 271.403043 
L 87.883253 253.484246 
L 97.43624 237.368072 
L 106.604086 222.329774 
L 115.421126 208.295486 
L 123.619248 195.652789 
L 131.543049 183.832601 
L 139.213751 172.789741 
L 146.378851 162.852998 
L 153.342038 153.567678 
L 160.117034 144.904929 
L 166.465556 137.138244 
L 172.661615 129.90218 
L 178.714375 123.177721 
L 184.397994 117.187472 
L 189.964073 111.638754 
L 195.418869 106.518734 
L 200.547291 102.003407 
L 205.583482 97.861409 
L 210.53177 94.083907 
L 215.186356 90.80417 
L 219.767429 87.843797 
L 224.278001 85.196602 
L 228.520349 82.956575 
L 232.703262 80.991941 
L 236.828835 79.298284 
L 240.899013 77.871448 
L 244.915599 76.707511 
L 248.69262 75.840019 
L 252.423877 75.20457 
L 256.110602 74.798257 
L 259.753933 74.618294 
L 263.354921 74.662008 
L 266.914526 74.926818 
L 270.433634 75.410227 
L 273.913049 76.109804 
L 277.353505 77.023179 
L 280.75567 78.148024 
L 284.287389 79.554202 
L 287.77818 81.188382 
L 291.228604 83.047963 
L 294.800575 85.23503 
L 298.329288 87.663655 
L 301.815183 90.330851 
L 305.41416 93.371104 
L 308.96713 96.665357 
L 312.625876 100.369852 
L 316.235189 104.343061 
L 319.942607 108.763144 
L 323.596919 113.465651 
L 327.341293 118.650711 
L 331.028653 124.130595 
L 334.79767 130.127332 
L 338.641712 136.668884 
L 342.553917 143.782899 
L 346.395966 151.233706 
L 350.296873 159.287139 
L 354.249382 167.968732 
L 358.246059 177.303172 
L 362.158409 187.005153 
L 366.1051 197.383276 
L 370.078508 208.458947 
L 374.070933 220.252268 
L 378.074622 232.781914 
L 382.081816 246.06502 
L 386.084778 260.117087 
L 390.075843 274.951899 
L 394.047452 290.581471 
L 394.145177 290.977411 
L 394.145177 290.977411 
" clip-path="url(#p7b1d80f782)" style="fill: none; stroke: #7f7f7f; stroke-width: 1.5; stroke-linecap: square"/>
   </g>
   <g id="line2d_21">
    <path d="M 66.692727 290.678812 
L 79.047836 268.693107 
L 90.749844 248.325956 
L 101.496042 230.056344 
L 111.755297 213.041641 
L 121.574829 197.183791 
L 130.995521 182.398106 
L 139.73541 169.08694 
L 148.16565 156.646454 
L 156.311073 145.025673 
L 163.906249 134.567831 
L 171.275423 124.792285 
L 178.434447 115.666856 
L 185.133268 107.478551 
L 191.662544 99.841366 
L 198.032765 92.734267 
L 204.007424 86.392402 
L 209.852066 80.506026 
L 215.573803 75.061027 
L 220.947864 70.245094 
L 226.220368 65.812162 
L 231.39622 61.752563 
L 236.260781 58.210562 
L 241.044741 54.994711 
L 245.751511 52.098267 
L 250.384256 49.514949 
L 254.740069 47.335765 
L 259.03348 45.431771 
L 263.266694 43.79848 
L 267.441756 42.431668 
L 271.365678 41.374037 
L 275.240096 40.551225 
L 279.06642 39.960126 
L 282.845957 39.597773 
L 286.579916 39.461326 
L 290.269413 39.548057 
L 293.915475 39.855334 
L 297.519045 40.380611 
L 301.080991 41.121411 
L 304.6021 42.075319 
L 308.083096 43.239967 
L 311.695683 44.687109 
L 315.26545 46.361362 
L 318.793011 48.260088 
L 322.278919 50.380663 
L 325.886679 52.837308 
L 329.449763 55.531538 
L 333.127514 58.598971 
L 336.757357 61.919276 
L 340.494356 65.649731 
L 344.179988 69.647634 
L 347.964915 74.092087 
L 351.694776 78.817577 
L 355.515715 84.025073 
L 359.277662 89.525908 
L 363.122118 95.542846 
L 367.042296 102.103702 
L 370.894844 108.984414 
L 374.813942 116.440349 
L 378.792386 124.497632 
L 382.822785 133.181721 
L 386.771546 142.219902 
L 390.762457 151.910253 
L 394.787878 162.275344 
L 398.840059 173.336594 
L 402.911172 185.114132 
L 406.993345 197.626678 
L 411.078696 210.891427 
L 415.053471 224.549514 
L 419.021899 238.96857 
L 422.97642 254.161391 
L 427.006356 270.543478 
L 431.001397 287.739013 
L 431.747273 291.06 
L 431.747273 291.06 
" clip-path="url(#p7b1d80f782)" style="fill: none; stroke: #bcbd22; stroke-width: 1.5; stroke-linecap: square"/>
   </g>
   <g id="patch_3">
    <path d="M 48.44 303.64 
L 48.44 26.88 
" style="fill: none; stroke: #000000; stroke-width: 0.8; stroke-linejoin: miter; stroke-linecap: square"/>
   </g>
   <g id="patch_4">
    <path d="M 450 303.64 
L 450 26.88 
" style="fill: none; stroke: #000000; stroke-width: 0.8; stroke-linejoin: miter; stroke-linecap: square"/>
   </g>
   <g id="patch_5">
    <path d="M 48.44 303.64 
L 450 303.64 
" style="fill: none; stroke: #000000; stroke-width: 0.8; stroke-linejoin: miter; stroke-linecap: square"/>
   </g>
   <g id="patch_6">
    <path d="M 48.44 26.88 
L 450 26.88 
" style="fill: none; stroke: #000000; stroke-width: 0.8; stroke-linejoin: miter; stroke-linecap: square"/>
   </g>
   <g id="text_15">
    <!-- $\theta$ = 45° -->
    <g transform="translate(226.06 20.88) scale(0.12 -0.12)">
     <defs>
      <path id="DejaVuSans-Oblique-3b8" d="M 2913 2219 
L 925 2219 
Q 791 1284 928 888 
Q 1100 400 1566 400 
Q 2034 400 2391 891 
Q 2703 1322 2913 2219 
z
M 3009 2750 
Q 3094 3638 2984 3950 
Q 2813 4444 2353 4444 
Q 1875 4444 1525 3956 
Q 1250 3563 1034 2750 
L 3009 2750 
z
M 2444 4913 
Q 3194 4913 3494 4250 
Q 3794 3591 3566 2422 
Q 3341 1256 2781 594 
Q 2225 -72 1475 -72 
Q 722 -72 425 594 
Q 128 1256 353 2422 
Q 581 3591 1134 4250 
Q 1691 4913 2444 4913 
z
" transform="scale(0.015625)"/>
      <path id="DejaVuSans-20" transform="scale(0.015625)"/>
      <path id="DejaVuSans-3d" d="M 678 2906 
L 4684 2906 
L 4684 2381 
L 678 2381 
L 678 2906 
z
M 678 1631 
L 4684 1631 
L 4684 1100 
L 678 1100 
L 678 1631 
z
" transform="scale(0.015625)"/>
      <path id="DejaVuSans-35" d="M 691 4666 
L 3169 4666 
L 3169 4134 
L 1269 4134 
L 1269 2991 
Q 1406 3038 1543 3061 
Q 1681 3084 1819 3084 
Q 2600 3084 3056 2656 
Q 3513 2228 3513 1497 
Q 3513 744 3044 326 
Q 2575 -91 1722 -91 
Q 1428 -91 1123 -41 
Q 819 9 494 109 
L 494 744 
Q 775 591 1075 516 
Q 1375 441 1709 441 
Q 2250 441 2565 725 
Q 2881 1009 2881 1497 
Q 2881 1984 2565 2268 
Q 2250 2553 1709 2553 
Q 1456 2553 1204 2497 
Q 953 2441 691 2322 
L 691 4666 
z
" transform="scale(0.015625)"/>
      <path id="DejaVuSans-b0" d="M 1600 4347 
Q 1350 4347 1178 4173 
Q 1006 4000 1006 3750 
Q 1006 3503 1178 3333 
Q 1350 3163 1600 3163 
Q 1850 3163 2022 3333 
Q 2194 3503 2194 3750 
Q 2194 3997 2020 4172 
Q 1847 4347 1600 4347 
z
M 1600 4750 
Q 1800 4750 1984 4673 
Q 2169 4597 2303 4453 
Q 2447 4313 2519 4134 
Q 2591 3956 2591 3750 
Q 2591 3338 2302 3052 
Q 2013 2766 1594 2766 
Q 1172 2766 890 3047 
Q 609 3328 609 3750 
Q 609 4169 896 4459 
Q 1184 4750 1600 4750 
z
" transform="scale(0.015625)"/>
     </defs>
     <use xlink:href="#DejaVuSans-Oblique-3b8" transform="translate(0 0.234375)"/>
     <use xlink:href="#DejaVuSans-20" transform="translate(61.181641 0.234375)"/>
     <use xlink:href="#DejaVuSans-3d" transform="translate(92.96875 0.234375)"/>
     <use xlink:href="#DejaVuSans-20" transform="translate(176.757812 0.234375)"/>
     <use xlink:href="#DejaVuSans-34" transform="translate(208.544922 0.234375)"/>
     <use xlink:href="#DejaVuSans-35" transform="translate(272.167969 0.234375)"/>
     <use xlink:href="#DejaVuSans-b0" transform="translate(335.791016 0.234375)"/>
    </g>
   </g>
  </g>
  <g id="legend_1">
   <g id="patch_7">
    <path d="M 399.534375 154.78125 
L 453.8 154.78125 
Q 455.8 154.78125 455.8 152.78125 
L 455.8 7 
Q 455.8 5 453.8 5 
L 399.534375 5 
Q 397.534375 5 397.534375 7 
L 397.534375 152.78125 
Q 397.534375 154.78125 399.534375 154.78125 
z
" style="fill: #ffffff; opacity: 0.8; stroke: #cccccc; stroke-linejoin: miter"/>
   </g>
   <g id="text_16">
    <!-- $v_0$ -->
    <g transform="translate(421.317187 16.598437) scale(0.1 -0.1)">
     <defs>
      <path id="DejaVuSans-Oblique-76" d="M 459 3500 
L 1069 3500 
L 1581 525 
L 3256 3500 
L 3866 3500 
L 1875 0 
L 1100 0 
L 459 3500 
z
" transform="scale(0.015625)"/>
     </defs>
     <use xlink:href="#DejaVuSans-Oblique-76" transform="translate(0 0.3125)"/>
     <use xlink:href="#DejaVuSans-30" transform="translate(59.179688 -16.09375) scale(0.7)"/>
    </g>
   </g>
   <g id="line2d_22">
    <path d="M 401.534375 27.776563 
L 411.534375 27.776563 
L 421.534375 27.776563 
" style="fill: none; stroke: #1f77b4; stroke-width: 1.5; stroke-linecap: square"/>
   </g>
   <g id="text_17">
    <!-- 0.0 -->
    <g transform="translate(429.534375 31.276563) scale(0.1 -0.1)">
     <use xlink:href="#DejaVuSans-30"/>
     <use xlink:href="#DejaVuSans-2e" transform="translate(63.623047 0)"/>
     <use xlink:href="#DejaVuSans-30" transform="translate(95.410156 0)"/>
    </g>
   </g>
   <g id="line2d_23">
    <path d="M 401.534375 42.454688 
L 411.534375 42.454688 
L 421.534375 42.454688 
" style="fill: none; stroke: #ff7f0e; stroke-width: 1.5; stroke-linecap: square"/>
   </g>
   <g id="text_18">
    <!-- 0.25 -->
    <g transform="translate(429.534375 45.954688) scale(0.1 -0.1)">
     <use xlink:href="#DejaVuSans-30"/>
     <use xlink:href="#DejaVuSans-2e" transform="translate(63.623047 0)"/>
     <use xlink:href="#DejaVuSans-32" transform="translate(95.410156 0)"/>
     <use xlink:href="#DejaVuSans-35" transform="translate(159.033203 0)"/>
    </g>
   </g>
   <g id="line2d_24">
    <path d="M 401.534375 57.132812 
L 411.534375 57.132812 
L 421.534375 57.132812 
" style="fill: none; stroke: #2ca02c; stroke-width: 1.5; stroke-linecap: square"/>
   </g>
   <g id="text_19">
    <!-- 0.5 -->
    <g transform="translate(429.534375 60.632812) scale(0.1 -0.1)">
     <use xlink:href="#DejaVuSans-30"/>
     <use xlink:href="#DejaVuSans-2e" transform="translate(63.623047 0)"/>
     <use xlink:href="#DejaVuSans-35" transform="translate(95.410156 0)"/>
    </g>
   </g>
   <g id="line2d_25">
    <path d="M 401.534375 71.810938 
L 411.534375 71.810938 
L 421.534375 71.810938 
" style="fill: none; stroke: #d62728; stroke-width: 1.5; stroke-linecap: square"/>
   </g>
   <g id="text_20">
    <!-- 0.75 -->
    <g transform="translate(429.534375 75.310938) scale(0.1 -0.1)">
     <defs>
      <path id="DejaVuSans-37" d="M 525 4666 
L 3525 4666 
L 3525 4397 
L 1831 0 
L 1172 0 
L 2766 4134 
L 525 4134 
L 525 4666 
z
" transform="scale(0.015625)"/>
     </defs>
     <use xlink:href="#DejaVuSans-30"/>
     <use xlink:href="#DejaVuSans-2e" transform="translate(63.623047 0)"/>
     <use xlink:href="#DejaVuSans-37" transform="translate(95.410156 0)"/>
     <use xlink:href="#DejaVuSans-35" transform="translate(159.033203 0)"/>
    </g>
   </g>
   <g id="line2d_26">
    <path d="M 401.534375 86.489063 
L 411.534375 86.489063 
L 421.534375 86.489063 
" style="fill: none; stroke: #9467bd; stroke-width: 1.5; stroke-linecap: square"/>
   </g>
   <g id="text_21">
    <!-- 1.0 -->
    <g transform="translate(429.534375 89.989063) scale(0.1 -0.1)">
     <use xlink:href="#DejaVuSans-31"/>
     <use xlink:href="#DejaVuSans-2e" transform="translate(63.623047 0)"/>
     <use xlink:href="#DejaVuSans-30" transform="translate(95.410156 0)"/>
    </g>
   </g>
   <g id="line2d_27">
    <path d="M 401.534375 101.167188 
L 411.534375 101.167188 
L 421.534375 101.167188 
" style="fill: none; stroke: #8c564b; stroke-width: 1.5; stroke-linecap: square"/>
   </g>
   <g id="text_22">
    <!-- 1.25 -->
    <g transform="translate(429.534375 104.667188) scale(0.1 -0.1)">
     <use xlink:href="#DejaVuSans-31"/>
     <use xlink:href="#DejaVuSans-2e" transform="translate(63.623047 0)"/>
     <use xlink:href="#DejaVuSans-32" transform="translate(95.410156 0)"/>
     <use xlink:href="#DejaVuSans-35" transform="translate(159.033203 0)"/>
    </g>
   </g>
   <g id="line2d_28">
    <path d="M 401.534375 115.845313 
L 411.534375 115.845313 
L 421.534375 115.845313 
" style="fill: none; stroke: #e377c2; stroke-width: 1.5; stroke-linecap: square"/>
   </g>
   <g id="text_23">
    <!-- 1.5 -->
    <g transform="translate(429.534375 119.345313) scale(0.1 -0.1)">
     <use xlink:href="#DejaVuSans-31"/>
     <use xlink:href="#DejaVuSans-2e" transform="translate(63.623047 0)"/>
     <use xlink:href="#DejaVuSans-35" transform="translate(95.410156 0)"/>
    </g>
   </g>
   <g id="line2d_29">
    <path d="M 401.534375 130.523438 
L 411.534375 130.523438 
L 421.534375 130.523438 
" style="fill: none; stroke: #7f7f7f; stroke-width: 1.5; stroke-linecap: square"/>
   </g>
   <g id="text_24">
    <!-- 1.75 -->
    <g transform="translate(429.534375 134.023438) scale(0.1 -0.1)">
     <use xlink:href="#DejaVuSans-31"/>
     <use xlink:href="#DejaVuSans-2e" transform="translate(63.623047 0)"/>
     <use xlink:href="#DejaVuSans-37" transform="translate(95.410156 0)"/>
     <use xlink:href="#DejaVuSans-35" transform="translate(159.033203 0)"/>
    </g>
   </g>
   <g id="line2d_30">
    <path d="M 401.534375 145.201562 
L 411.534375 145.201562 
L 421.534375 145.201562 
" style="fill: none; stroke: #bcbd22; stroke-width: 1.5; stroke-linecap: square"/>
   </g>
   <g id="text_25">
    <!-- 2.0 -->
    <g transform="translate(429.534375 148.701562) scale(0.1 -0.1)">
     <use xlink:href="#DejaVuSans-32"/>
     <use xlink:href="#DejaVuSans-2e" transform="translate(63.623047 0)"/>
     <use xlink:href="#DejaVuSans-30" transform="translate(95.410156 0)"/>
    </g>
   </g>
  </g>
 </g>
 <defs>
  <clipPath id="p7b1d80f782">
   <rect x="48.44" y="26.88" width="401.56" height="276.76"/>
  </clipPath>
 </defs>
</svg>
