<?xml version="1.0" encoding="utf-8" standalone="no"?>
<!DOCTYPE svg PUBLIC "-//W3C//DTD SVG 1.1//EN"
  "http://www.w3.org/Graphics/SVG/1.1/DTD/svg11.dtd">
<svg xmlns:xlink="http://www.w3.org/1999/xlink" width="460.8pt" height="345.6pt" viewBox="0 0 460.8 345.6" xmlns="http://www.w3.org/2000/svg" version="1.1">
 <metadata>
  <rdf:RDF xmlns:dc="http://purl.org/dc/elements/1.1/" xmlns:cc="http://creativecommons.org/ns#" xmlns:rdf="http://www.w3.org/1999/02/22-rdf-syntax-ns#">
   <cc:Work>
    <dc:type rdf:resource="http://purl.org/dc/dcmitype/StillImage"/>
    <dc:date>2025-04-20T23:39:19.576575</dc:date>
    <dc:format>image/svg+xml</dc:format>
    <dc:creator>
     <cc:Agent>
      <dc:title>Matplotlib v3.10.1, https://matplotlib.org/</dc:title>
     </cc:Agent>
    </dc:creator>
   </cc:Work>
  </rdf:RDF>
 </metadata>
 <defs>
  <style type="text/css">*{stroke-linejoin: round; stroke-linecap: butt}</style>
 </defs>
 <g id="figure_1">
  <g id="patch_1">
   <path d="M 0 345.6 
L 460.8 345.6 
L 460.8 0 
L 0 0 
z
" style="fill: #ffffff"/>
  </g>
  <g id="axes_1">
   <g id="patch_2">
    <path d="M 54.74 303.64 
L 450 303.64 
L 450 27.744 
L 54.74 27.744 
z
" style="fill: #ffffff"/>
   </g>
   <g id="matplotlib.axis_1">
    <g id="xtick_1">
     <g id="line2d_1">
      <defs>
       <path id="m7224355527" d="M 0 0 
L 0 3.5 
" style="stroke: #000000; stroke-width: 0.8"/>
      </defs>
      <g>
       <use xlink:href="#m7224355527" x="72.706364" y="303.64" style="stroke: #000000; stroke-width: 0.8"/>
      </g>
     </g>
     <g id="text_1">
      <!-- 0.0 -->
      <g transform="translate(64.754801 318.238437) scale(0.1 -0.1)">
       <defs>
        <path id="DejaVuSans-30" d="M 2034 4250 
Q 1547 4250 1301 3770 
Q 1056 3291 1056 2328 
Q 1056 1369 1301 889 
Q 1547 409 2034 409 
Q 2525 409 2770 889 
Q 3016 1369 3016 2328 
Q 3016 3291 2770 3770 
Q 2525 4250 2034 4250 
z
M 2034 4750 
Q 2819 4750 3233 4129 
Q 3647 3509 3647 2328 
Q 3647 1150 3233 529 
Q 2819 -91 2034 -91 
Q 1250 -91 836 529 
Q 422 1150 422 2328 
Q 422 3509 836 4129 
Q 1250 4750 2034 4750 
z
" transform="scale(0.015625)"/>
        <path id="DejaVuSans-2e" d="M 684 794 
L 1344 794 
L 1344 0 
L 684 0 
L 684 794 
z
" transform="scale(0.015625)"/>
       </defs>
       <use xlink:href="#DejaVuSans-30"/>
       <use xlink:href="#DejaVuSans-2e" transform="translate(63.623047 0)"/>
       <use xlink:href="#DejaVuSans-30" transform="translate(95.410156 0)"/>
      </g>
     </g>
    </g>
    <g id="xtick_2">
     <g id="line2d_2">
      <g>
       <use xlink:href="#m7224355527" x="148.754464" y="303.64" style="stroke: #000000; stroke-width: 0.8"/>
      </g>
     </g>
     <g id="text_2">
      <!-- 0.2 -->
      <g transform="translate(140.802901 318.238437) scale(0.1 -0.1)">
       <defs>
        <path id="DejaVuSans-32" d="M 1228 531 
L 3431 531 
L 3431 0 
L 469 0 
L 469 531 
Q 828 903 1448 1529 
Q 2069 2156 2228 2338 
Q 2531 2678 2651 2914 
Q 2772 3150 2772 3378 
Q 2772 3750 2511 3984 
Q 2250 4219 1831 4219 
Q 1534 4219 1204 4116 
Q 875 4013 500 3803 
L 500 4441 
Q 881 4594 1212 4672 
Q 1544 4750 1819 4750 
Q 2544 4750 2975 4387 
Q 3406 4025 3406 3419 
Q 3406 3131 3298 2873 
Q 3191 2616 2906 2266 
Q 2828 2175 2409 1742 
Q 1991 1309 1228 531 
z
" transform="scale(0.015625)"/>
       </defs>
       <use xlink:href="#DejaVuSans-30"/>
       <use xlink:href="#DejaVuSans-2e" transform="translate(63.623047 0)"/>
       <use xlink:href="#DejaVuSans-32" transform="translate(95.410156 0)"/>
      </g>
     </g>
    </g>
    <g id="xtick_3">
     <g id="line2d_3">
      <g>
       <use xlink:href="#m7224355527" x="224.802564" y="303.64" style="stroke: #000000; stroke-width: 0.8"/>
      </g>
     </g>
     <g id="text_3">
      <!-- 0.4 -->
      <g transform="translate(216.851001 318.238437) scale(0.1 -0.1)">
       <defs>
        <path id="DejaVuSans-34" d="M 2419 4116 
L 825 1625 
L 2419 1625 
L 2419 4116 
z
M 2253 4666 
L 3047 4666 
L 3047 1625 
L 3713 1625 
L 3713 1100 
L 3047 1100 
L 3047 0 
L 2419 0 
L 2419 1100 
L 313 1100 
L 313 1709 
L 2253 4666 
z
" transform="scale(0.015625)"/>
       </defs>
       <use xlink:href="#DejaVuSans-30"/>
       <use xlink:href="#DejaVuSans-2e" transform="translate(63.623047 0)"/>
       <use xlink:href="#DejaVuSans-34" transform="translate(95.410156 0)"/>
      </g>
     </g>
    </g>
    <g id="xtick_4">
     <g id="line2d_4">
      <g>
       <use xlink:href="#m7224355527" x="300.850664" y="303.64" style="stroke: #000000; stroke-width: 0.8"/>
      </g>
     </g>
     <g id="text_4">
      <!-- 0.6 -->
      <g transform="translate(292.899101 318.238437) scale(0.1 -0.1)">
       <defs>
        <path id="DejaVuSans-36" d="M 2113 2584 
Q 1688 2584 1439 2293 
Q 1191 2003 1191 1497 
Q 1191 994 1439 701 
Q 1688 409 2113 409 
Q 2538 409 2786 701 
Q 3034 994 3034 1497 
Q 3034 2003 2786 2293 
Q 2538 2584 2113 2584 
z
M 3366 4563 
L 3366 3988 
Q 3128 4100 2886 4159 
Q 2644 4219 2406 4219 
Q 1781 4219 1451 3797 
Q 1122 3375 1075 2522 
Q 1259 2794 1537 2939 
Q 1816 3084 2150 3084 
Q 2853 3084 3261 2657 
Q 3669 2231 3669 1497 
Q 3669 778 3244 343 
Q 2819 -91 2113 -91 
Q 1303 -91 875 529 
Q 447 1150 447 2328 
Q 447 3434 972 4092 
Q 1497 4750 2381 4750 
Q 2619 4750 2861 4703 
Q 3103 4656 3366 4563 
z
" transform="scale(0.015625)"/>
       </defs>
       <use xlink:href="#DejaVuSans-30"/>
       <use xlink:href="#DejaVuSans-2e" transform="translate(63.623047 0)"/>
       <use xlink:href="#DejaVuSans-36" transform="translate(95.410156 0)"/>
      </g>
     </g>
    </g>
    <g id="xtick_5">
     <g id="line2d_5">
      <g>
       <use xlink:href="#m7224355527" x="376.898764" y="303.64" style="stroke: #000000; stroke-width: 0.8"/>
      </g>
     </g>
     <g id="text_5">
      <!-- 0.8 -->
      <g transform="translate(368.947201 318.238437) scale(0.1 -0.1)">
       <defs>
        <path id="DejaVuSans-38" d="M 2034 2216 
Q 1584 2216 1326 1975 
Q 1069 1734 1069 1313 
Q 1069 891 1326 650 
Q 1584 409 2034 409 
Q 2484 409 2743 651 
Q 3003 894 3003 1313 
Q 3003 1734 2745 1975 
Q 2488 2216 2034 2216 
z
M 1403 2484 
Q 997 2584 770 2862 
Q 544 3141 544 3541 
Q 544 4100 942 4425 
Q 1341 4750 2034 4750 
Q 2731 4750 3128 4425 
Q 3525 4100 3525 3541 
Q 3525 3141 3298 2862 
Q 3072 2584 2669 2484 
Q 3125 2378 3379 2068 
Q 3634 1759 3634 1313 
Q 3634 634 3220 271 
Q 2806 -91 2034 -91 
Q 1263 -91 848 271 
Q 434 634 434 1313 
Q 434 1759 690 2068 
Q 947 2378 1403 2484 
z
M 1172 3481 
Q 1172 3119 1398 2916 
Q 1625 2713 2034 2713 
Q 2441 2713 2670 2916 
Q 2900 3119 2900 3481 
Q 2900 3844 2670 4047 
Q 2441 4250 2034 4250 
Q 1625 4250 1398 4047 
Q 1172 3844 1172 3481 
z
" transform="scale(0.015625)"/>
       </defs>
       <use xlink:href="#DejaVuSans-30"/>
       <use xlink:href="#DejaVuSans-2e" transform="translate(63.623047 0)"/>
       <use xlink:href="#DejaVuSans-38" transform="translate(95.410156 0)"/>
      </g>
     </g>
    </g>
    <g id="text_6">
     <!-- $t$ -->
     <g transform="translate(250.37 331.916562) scale(0.1 -0.1)">
      <defs>
       <path id="DejaVuSans-Oblique-74" d="M 2706 3500 
L 2619 3053 
L 1472 3053 
L 1100 1153 
Q 1081 1047 1072 975 
Q 1063 903 1063 863 
Q 1063 663 1183 572 
Q 1303 481 1569 481 
L 2150 481 
L 2053 0 
L 1503 0 
Q 991 0 739 200 
Q 488 400 488 806 
Q 488 878 497 964 
Q 506 1050 525 1153 
L 897 3053 
L 409 3053 
L 500 3500 
L 978 3500 
L 1172 4494 
L 1747 4494 
L 1556 3500 
L 2706 3500 
z
" transform="scale(0.015625)"/>
      </defs>
      <use xlink:href="#DejaVuSans-Oblique-74" transform="translate(0 0.78125)"/>
     </g>
    </g>
   </g>
   <g id="matplotlib.axis_2">
    <g id="ytick_1">
     <g id="line2d_6">
      <defs>
       <path id="m8ae35411f0" d="M 0 0 
L -3.5 0 
" style="stroke: #000000; stroke-width: 0.8"/>
      </defs>
      <g>
       <use xlink:href="#m8ae35411f0" x="54.74" y="290.491374" style="stroke: #000000; stroke-width: 0.8"/>
      </g>
     </g>
     <g id="text_7">
      <!-- 0.00 -->
      <g transform="translate(25.474375 294.290592) scale(0.1 -0.1)">
       <use xlink:href="#DejaVuSans-30"/>
       <use xlink:href="#DejaVuSans-2e" transform="translate(63.623047 0)"/>
       <use xlink:href="#DejaVuSans-30" transform="translate(95.410156 0)"/>
       <use xlink:href="#DejaVuSans-30" transform="translate(159.033203 0)"/>
      </g>
     </g>
    </g>
    <g id="ytick_2">
     <g id="line2d_7">
      <g>
       <use xlink:href="#m8ae35411f0" x="54.74" y="245.640105" style="stroke: #000000; stroke-width: 0.8"/>
      </g>
     </g>
     <g id="text_8">
      <!-- 0.02 -->
      <g transform="translate(25.474375 249.439323) scale(0.1 -0.1)">
       <use xlink:href="#DejaVuSans-30"/>
       <use xlink:href="#DejaVuSans-2e" transform="translate(63.623047 0)"/>
       <use xlink:href="#DejaVuSans-30" transform="translate(95.410156 0)"/>
       <use xlink:href="#DejaVuSans-32" transform="translate(159.033203 0)"/>
      </g>
     </g>
    </g>
    <g id="ytick_3">
     <g id="line2d_8">
      <g>
       <use xlink:href="#m8ae35411f0" x="54.74" y="200.788836" style="stroke: #000000; stroke-width: 0.8"/>
      </g>
     </g>
     <g id="text_9">
      <!-- 0.04 -->
      <g transform="translate(25.474375 204.588055) scale(0.1 -0.1)">
       <use xlink:href="#DejaVuSans-30"/>
       <use xlink:href="#DejaVuSans-2e" transform="translate(63.623047 0)"/>
       <use xlink:href="#DejaVuSans-30" transform="translate(95.410156 0)"/>
       <use xlink:href="#DejaVuSans-34" transform="translate(159.033203 0)"/>
      </g>
     </g>
    </g>
    <g id="ytick_4">
     <g id="line2d_9">
      <g>
       <use xlink:href="#m8ae35411f0" x="54.74" y="155.937567" style="stroke: #000000; stroke-width: 0.8"/>
      </g>
     </g>
     <g id="text_10">
      <!-- 0.06 -->
      <g transform="translate(25.474375 159.736786) scale(0.1 -0.1)">
       <use xlink:href="#DejaVuSans-30"/>
       <use xlink:href="#DejaVuSans-2e" transform="translate(63.623047 0)"/>
       <use xlink:href="#DejaVuSans-30" transform="translate(95.410156 0)"/>
       <use xlink:href="#DejaVuSans-36" transform="translate(159.033203 0)"/>
      </g>
     </g>
    </g>
    <g id="ytick_5">
     <g id="line2d_10">
      <g>
       <use xlink:href="#m8ae35411f0" x="54.74" y="111.086298" style="stroke: #000000; stroke-width: 0.8"/>
      </g>
     </g>
     <g id="text_11">
      <!-- 0.08 -->
      <g transform="translate(25.474375 114.885517) scale(0.1 -0.1)">
       <use xlink:href="#DejaVuSans-30"/>
       <use xlink:href="#DejaVuSans-2e" transform="translate(63.623047 0)"/>
       <use xlink:href="#DejaVuSans-30" transform="translate(95.410156 0)"/>
       <use xlink:href="#DejaVuSans-38" transform="translate(159.033203 0)"/>
      </g>
     </g>
    </g>
    <g id="ytick_6">
     <g id="line2d_11">
      <g>
       <use xlink:href="#m8ae35411f0" x="54.74" y="66.235029" style="stroke: #000000; stroke-width: 0.8"/>
      </g>
     </g>
     <g id="text_12">
      <!-- 0.10 -->
      <g transform="translate(25.474375 70.034248) scale(0.1 -0.1)">
       <defs>
        <path id="DejaVuSans-31" d="M 794 531 
L 1825 531 
L 1825 4091 
L 703 3866 
L 703 4441 
L 1819 4666 
L 2450 4666 
L 2450 531 
L 3481 531 
L 3481 0 
L 794 0 
L 794 531 
z
" transform="scale(0.015625)"/>
       </defs>
       <use xlink:href="#DejaVuSans-30"/>
       <use xlink:href="#DejaVuSans-2e" transform="translate(63.623047 0)"/>
       <use xlink:href="#DejaVuSans-31" transform="translate(95.410156 0)"/>
       <use xlink:href="#DejaVuSans-30" transform="translate(159.033203 0)"/>
      </g>
     </g>
    </g>
    <g id="text_13">
     <!-- $y$ -->
     <g transform="translate(19.374375 168.692) rotate(-90) scale(0.1 -0.1)">
      <defs>
       <path id="DejaVuSans-Oblique-79" d="M 1588 -325 
Q 1188 -997 936 -1164 
Q 684 -1331 294 -1331 
L -159 -1331 
L -63 -850 
L 269 -850 
Q 509 -850 678 -719 
Q 847 -588 1056 -206 
L 1234 128 
L 459 3500 
L 1069 3500 
L 1650 819 
L 3256 3500 
L 3859 3500 
L 1588 -325 
z
" transform="scale(0.015625)"/>
      </defs>
      <use xlink:href="#DejaVuSans-Oblique-79" transform="translate(0 0.3125)"/>
     </g>
    </g>
   </g>
   <g id="line2d_12">
    <path d="M 72.706364 290.491374 
L 78.790212 272.907789 
L 84.87406 256.03071 
L 90.577667 240.840704 
L 96.281275 226.254135 
L 101.984882 212.263204 
L 107.68849 198.860523 
L 113.392097 186.039102 
L 119.095705 173.792333 
L 124.419072 162.874964 
L 129.742439 152.44794 
L 135.065806 142.506722 
L 140.389173 133.047021 
L 145.71254 124.064791 
L 150.655666 116.148347 
L 155.598793 108.63744 
L 160.541919 101.529361 
L 165.485046 94.821565 
L 170.428172 88.511664 
L 174.991058 83.038369 
L 179.553944 77.900562 
L 184.11683 73.09671 
L 188.679716 68.625385 
L 193.242602 64.485265 
L 197.425248 60.980063 
L 201.607893 57.751272 
L 205.790539 54.798098 
L 209.973184 52.119814 
L 214.15583 49.715766 
L 218.338475 47.585365 
L 222.14088 45.885662 
L 225.943285 44.411341 
L 229.74569 43.162108 
L 233.548095 42.137712 
L 237.3505 41.337946 
L 241.152905 40.762651 
L 244.95531 40.411712 
L 248.757715 40.285058 
L 252.56012 40.382662 
L 256.362525 40.704499 
L 260.16493 41.250504 
L 263.967335 42.020569 
L 267.76974 43.014539 
L 271.572145 44.232217 
L 275.37455 45.67336 
L 279.176955 47.33768 
L 283.359601 49.425805 
L 287.542246 51.783072 
L 291.724892 54.408916 
L 295.907537 57.302708 
L 300.090183 60.463758 
L 304.272828 63.891313 
L 308.835714 67.933456 
L 313.3986 72.290654 
L 317.961486 76.961688 
L 322.524372 81.945252 
L 327.087258 87.23996 
L 332.030385 93.32531 
L 336.973511 99.772134 
L 341.916638 106.57836 
L 347.240005 114.307579 
L 352.563372 122.448251 
L 357.886739 130.997398 
L 363.210106 139.951918 
L 368.913713 149.992221 
L 374.617321 160.490059 
L 380.320928 171.441168 
L 386.404776 183.61699 
L 392.488624 196.298006 
L 398.572472 209.478534 
L 405.036561 224.023631 
L 411.500649 239.118858 
L 418.344978 255.693486 
L 425.189307 272.867692 
L 432.033636 290.632366 
L 432.033636 290.632366 
" clip-path="url(#p54223a8c4a)" style="fill: none; stroke: #1f77b4; stroke-width: 1.5; stroke-linecap: square"/>
   </g>
   <g id="line2d_13">
    <path d="M 72.706364 290.491374 
L 78.790212 272.916156 
L 84.493819 257.096089 
L 90.197427 241.902142 
L 95.901034 227.325614 
L 101.604642 213.358262 
L 107.308249 199.992283 
L 113.011857 187.220292 
L 118.335224 175.829513 
L 123.658591 164.944703 
L 128.981958 154.560772 
L 134.305325 144.672894 
L 139.628692 135.276509 
L 144.571818 126.987607 
L 149.514945 119.115504 
L 154.458071 111.657107 
L 159.401198 104.609491 
L 164.344324 97.969892 
L 168.90721 92.200917 
L 173.470096 86.775439 
L 178.032982 81.691624 
L 182.595868 76.947739 
L 187.158754 72.54215 
L 191.3414 68.799559 
L 195.524045 65.33881 
L 199.706691 62.158843 
L 203.889336 59.25865 
L 208.071982 56.63728 
L 212.254627 54.293831 
L 216.057032 52.403871 
L 219.859437 50.742278 
L 223.661842 49.308464 
L 227.464247 48.101868 
L 231.266652 47.12195 
L 235.069057 46.368185 
L 238.871462 45.840068 
L 242.673867 45.537102 
L 246.476272 45.4588 
L 250.278677 45.604683 
L 254.081082 45.974273 
L 257.883487 46.567089 
L 261.685892 47.382651 
L 265.488297 48.420469 
L 269.290702 49.680046 
L 273.093107 51.16087 
L 276.895512 52.862416 
L 281.078158 54.988404 
L 285.260803 57.380062 
L 289.443449 60.036611 
L 293.626094 62.957237 
L 297.80874 66.141092 
L 301.991385 69.587288 
L 306.554271 73.644884 
L 311.117157 78.012327 
L 315.680043 82.688296 
L 320.242929 87.671412 
L 325.186056 93.414723 
L 330.129182 99.514897 
L 335.072309 105.969935 
L 340.015435 112.777749 
L 345.338802 120.501273 
L 350.662169 128.628594 
L 355.985536 137.156778 
L 361.689144 146.735497 
L 367.392751 156.767024 
L 373.096359 167.247346 
L 379.180207 178.916359 
L 385.264055 191.0861 
L 391.347903 203.751228 
L 397.811991 217.744579 
L 404.27608 232.284212 
L 410.740168 247.363199 
L 417.584497 263.909182 
L 424.428826 281.043296 
L 428.231231 290.81316 
L 428.231231 290.81316 
" clip-path="url(#p54223a8c4a)" style="fill: none; stroke: #ff7f0e; stroke-width: 1.5; stroke-linecap: square"/>
   </g>
   <g id="line2d_14">
    <path d="M 72.706364 290.491374 
L 78.409971 274.011691 
L 84.113579 258.203528 
L 89.817186 243.055981 
L 95.520794 228.558708 
L 100.844161 215.605957 
L 106.167528 203.203551 
L 111.490895 191.344285 
L 116.814262 180.0213 
L 122.137629 169.22807 
L 127.460996 158.95838 
L 132.404122 149.885849 
L 137.347249 141.255121 
L 142.290375 133.061883 
L 147.233502 125.302014 
L 152.176628 117.971575 
L 156.739514 111.58291 
L 161.3024 105.554106 
L 165.865286 99.882445 
L 170.428172 94.565314 
L 174.991058 89.600209 
L 179.553944 84.984719 
L 183.73659 81.059003 
L 187.919235 77.423397 
L 192.101881 74.076242 
L 196.284526 71.015935 
L 200.467172 68.240924 
L 204.649817 65.749706 
L 208.452222 63.730004 
L 212.254627 61.942574 
L 216.057032 60.386378 
L 219.859437 59.060406 
L 223.661842 57.963667 
L 227.464247 57.095194 
L 231.266652 56.454037 
L 235.069057 56.039265 
L 238.871462 55.849961 
L 242.673867 55.885222 
L 246.476272 56.144153 
L 250.278677 56.625874 
L 254.081082 57.329509 
L 257.883487 58.254187 
L 261.685892 59.399045 
L 265.488297 60.76322 
L 269.290702 62.345849 
L 273.473348 64.338026 
L 277.655993 66.592338 
L 281.838639 69.107629 
L 286.021284 71.882732 
L 290.20393 74.916473 
L 294.386575 78.207666 
L 298.949461 82.09027 
L 303.512347 86.276255 
L 308.075233 90.764017 
L 312.638119 95.551926 
L 317.581246 101.075611 
L 322.524372 106.947458 
L 327.467499 113.165275 
L 332.410625 119.726826 
L 337.733992 127.174904 
L 343.057359 135.016068 
L 348.380726 143.247339 
L 354.084334 152.495993 
L 359.787941 162.185143 
L 365.491549 172.310868 
L 371.575397 183.588325 
L 377.659245 195.352973 
L 383.743093 207.599728 
L 390.207181 221.134346 
L 396.67127 235.201006 
L 403.135358 249.793229 
L 409.979687 265.809325 
L 416.824016 282.399258 
L 420.246181 290.906883 
L 420.246181 290.906883 
" clip-path="url(#p54223a8c4a)" style="fill: none; stroke: #2ca02c; stroke-width: 1.5; stroke-linecap: square"/>
   </g>
   <g id="line2d_15">
    <path d="M 72.706364 290.491374 
L 78.409971 274.035664 
L 83.733338 259.324529 
L 89.056705 245.227008 
L 94.380072 231.732357 
L 99.703439 218.830356 
L 105.026806 206.511288 
L 110.350173 194.765899 
L 115.67354 183.585382 
L 120.616667 173.701921 
L 125.559793 164.291863 
L 130.50292 155.34907 
L 135.446046 146.867667 
L 140.389173 138.84203 
L 145.332299 131.266768 
L 149.895185 124.66949 
L 154.458071 118.447657 
L 159.020957 112.597513 
L 163.583843 107.11544 
L 168.146729 101.997952 
L 172.329375 97.624327 
L 176.51202 93.551727 
L 180.694666 89.777733 
L 184.877311 86.299996 
L 189.059957 83.116244 
L 193.242602 80.22427 
L 197.425248 77.621932 
L 201.227653 75.505756 
L 205.030058 73.625706 
L 208.832463 71.980297 
L 212.634868 70.56808 
L 216.437273 69.387638 
L 220.239678 68.437585 
L 224.042083 67.716566 
L 227.844488 67.223252 
L 231.646893 66.95634 
L 235.449298 66.91455 
L 239.251703 67.096626 
L 243.054108 67.501332 
L 246.856513 68.127449 
L 250.658918 68.973777 
L 254.461323 70.039131 
L 258.263728 71.322342 
L 262.066133 72.82225 
L 266.248778 74.721068 
L 270.431424 76.879192 
L 274.614069 79.295121 
L 278.796715 81.967366 
L 282.97936 84.894446 
L 287.162006 88.074886 
L 291.724892 91.831686 
L 296.287778 95.886351 
L 300.850664 100.23698 
L 305.41355 104.881667 
L 310.356676 110.243038 
L 315.299803 115.944852 
L 320.242929 121.984668 
L 325.186056 128.360035 
L 330.509423 135.598245 
L 335.83279 143.219649 
L 341.156157 151.22112 
L 346.859764 160.212297 
L 352.563372 169.632232 
L 358.266979 179.476965 
L 364.350827 190.441725 
L 370.434675 201.88034 
L 376.518523 213.787837 
L 382.982612 226.947676 
L 389.4467 240.625043 
L 395.910789 254.81375 
L 402.755118 270.387468 
L 409.599447 286.519907 
L 411.500649 291.099273 
L 411.500649 291.099273 
" clip-path="url(#p54223a8c4a)" style="fill: none; stroke: #d62728; stroke-width: 1.5; stroke-linecap: square"/>
   </g>
   <g id="line2d_16">
    <path d="M 72.706364 290.491374 
L 78.029731 275.133435 
L 83.353098 260.445313 
L 88.676465 246.412332 
L 93.999832 233.020601 
L 99.323199 220.25696 
L 104.266325 208.956488 
L 109.209452 198.177323 
L 114.152578 187.910418 
L 119.095705 178.147143 
L 124.038831 168.879266 
L 128.981958 160.098929 
L 133.925084 151.798622 
L 138.48797 144.556652 
L 143.050856 137.712177 
L 147.613742 131.260003 
L 152.176628 125.195141 
L 156.739514 119.512795 
L 161.3024 114.208351 
L 165.485046 109.674125 
L 169.667691 105.450411 
L 173.850337 101.534019 
L 178.032982 97.921866 
L 182.215628 94.610968 
L 186.398273 91.598436 
L 190.580919 88.881471 
L 194.383324 86.665701 
L 198.185729 84.689978 
L 201.988134 82.952374 
L 205.790539 81.451012 
L 209.592944 80.184062 
L 213.395349 79.149742 
L 217.197754 78.34631 
L 221.000159 77.772067 
L 224.802564 77.425354 
L 228.604969 77.304547 
L 232.407374 77.408057 
L 236.209779 77.734331 
L 240.012184 78.281843 
L 243.814589 79.049099 
L 247.616994 80.034632 
L 251.419399 81.237001 
L 255.221804 82.65479 
L 259.404449 84.461504 
L 263.587095 86.525364 
L 267.76974 88.844574 
L 271.952386 91.417362 
L 276.135031 94.241983 
L 280.697917 97.608577 
L 285.260803 101.270611 
L 289.823689 105.2259 
L 294.386575 109.472281 
L 298.949461 114.007612 
L 303.892588 119.244495 
L 308.835714 124.815317 
L 313.778841 130.717414 
L 318.721967 136.948135 
L 324.045334 144.02263 
L 329.368701 151.471904 
L 334.692068 159.292678 
L 340.395676 168.080611 
L 346.099283 177.287224 
L 351.802891 186.908487 
L 357.886739 197.623657 
L 363.970587 208.801101 
L 370.054435 220.435893 
L 376.518523 233.293441 
L 382.982612 246.655743 
L 389.4467 260.516804 
L 396.291029 275.730154 
L 402.755118 290.599055 
L 402.755118 290.599055 
" clip-path="url(#p54223a8c4a)" style="fill: none; stroke: #9467bd; stroke-width: 1.5; stroke-linecap: square"/>
   </g>
   <g id="line2d_17">
    <path d="M 72.706364 290.491374 
L 78.029731 275.157762 
L 83.353098 260.53972 
L 88.296224 247.590137 
L 93.239351 235.227204 
L 98.182477 223.437527 
L 103.125604 212.208423 
L 108.06873 201.527875 
L 113.011857 191.384485 
L 117.954983 181.767437 
L 122.89811 172.666455 
L 127.460996 164.715139 
L 132.023882 157.187894 
L 136.586768 150.077722 
L 141.149654 143.37793 
L 145.71254 137.082111 
L 150.275426 131.184133 
L 154.458071 126.12212 
L 158.640717 121.385115 
L 162.823362 116.968932 
L 167.006008 112.86954 
L 171.188653 109.083052 
L 175.371299 105.605722 
L 179.553944 102.433934 
L 183.73659 99.564198 
L 187.538995 97.214618 
L 191.3414 95.109428 
L 195.143805 93.246246 
L 198.94621 91.622766 
L 202.748615 90.236743 
L 206.55102 89.085998 
L 210.353425 88.168414 
L 214.15583 87.481928 
L 217.958235 87.024536 
L 221.76064 86.794282 
L 225.563045 86.789264 
L 229.36545 87.007625 
L 233.167855 87.447552 
L 236.97026 88.107277 
L 240.772665 88.985071 
L 244.57507 90.079244 
L 248.377475 91.388142 
L 252.56012 93.074007 
L 256.742766 95.015623 
L 260.925411 97.210923 
L 265.108057 99.657888 
L 269.290702 102.354533 
L 273.473348 105.298913 
L 278.036234 108.791261 
L 282.59912 112.573723 
L 287.162006 116.643904 
L 291.724892 120.999449 
L 296.668018 126.03729 
L 301.611145 131.404408 
L 306.554271 137.097937 
L 311.497398 143.115049 
L 316.820765 149.953688 
L 322.144132 157.160912 
L 327.467499 164.733305 
L 333.171106 173.247963 
L 338.874714 182.1738 
L 344.578321 191.506714 
L 350.662169 201.905918 
L 356.746017 212.758721 
L 362.829865 224.060216 
L 369.293954 236.554219 
L 375.758042 249.543377 
L 382.222131 263.021841 
L 389.06646 277.819985 
L 394.770067 290.560797 
L 394.770067 290.560797 
" clip-path="url(#p54223a8c4a)" style="fill: none; stroke: #8c564b; stroke-width: 1.5; stroke-linecap: square"/>
   </g>
   <g id="line2d_18">
    <path d="M 72.706364 290.491374 
L 77.64949 276.250593 
L 82.592617 262.668316 
L 87.535743 249.725583 
L 92.47887 237.404602 
L 97.421996 225.688655 
L 102.365123 214.562012 
L 107.308249 204.00986 
L 111.871135 194.767224 
L 116.434021 185.991796 
L 120.996907 177.673717 
L 125.559793 169.803624 
L 130.122679 162.372617 
L 134.685565 155.37223 
L 139.248451 148.794404 
L 143.811337 142.63146 
L 147.993983 137.340297 
L 152.176628 132.386203 
L 156.359274 127.76401 
L 160.541919 123.468759 
L 164.724565 119.495695 
L 168.90721 115.840246 
L 173.089856 112.498023 
L 176.892261 109.727889 
L 180.694666 107.210071 
L 184.497071 104.941614 
L 188.299476 102.919664 
L 192.101881 101.141459 
L 195.904286 99.604328 
L 199.706691 98.305685 
L 203.509096 97.243024 
L 207.311501 96.413917 
L 211.113906 95.81601 
L 214.916311 95.447017 
L 218.718716 95.304721 
L 222.521121 95.386966 
L 226.323526 95.691659 
L 230.125931 96.216761 
L 233.928336 96.960292 
L 237.730741 97.920319 
L 241.533146 99.094962 
L 245.715791 100.632763 
L 249.898437 102.42565 
L 254.081082 104.471307 
L 258.263728 106.767474 
L 262.446373 109.311946 
L 266.629019 112.10257 
L 271.191905 115.425152 
L 275.754791 119.035502 
L 280.317677 122.931012 
L 284.880563 127.109129 
L 289.823689 131.95144 
L 294.766816 137.119378 
L 299.709942 142.609892 
L 304.653069 148.419991 
L 309.976436 155.031056 
L 315.299803 162.005749 
L 320.62317 169.340521 
L 326.326777 177.594816 
L 332.030385 186.254223 
L 337.733992 195.314564 
L 343.81784 205.416197 
L 349.901688 215.964356 
L 355.985536 226.954138 
L 362.449625 239.109236 
L 368.913713 251.751617 
L 375.377802 264.875537 
L 382.222131 279.289965 
L 387.545498 290.865672 
L 387.545498 290.865672 
" clip-path="url(#p54223a8c4a)" style="fill: none; stroke: #e377c2; stroke-width: 1.5; stroke-linecap: square"/>
   </g>
   <g id="patch_3">
    <path d="M 54.74 303.64 
L 54.74 27.744 
" style="fill: none; stroke: #000000; stroke-width: 0.8; stroke-linejoin: miter; stroke-linecap: square"/>
   </g>
   <g id="patch_4">
    <path d="M 450 303.64 
L 450 27.744 
" style="fill: none; stroke: #000000; stroke-width: 0.8; stroke-linejoin: miter; stroke-linecap: square"/>
   </g>
   <g id="patch_5">
    <path d="M 54.74 303.64 
L 450 303.64 
" style="fill: none; stroke: #000000; stroke-width: 0.8; stroke-linejoin: miter; stroke-linecap: square"/>
   </g>
   <g id="patch_6">
    <path d="M 54.74 27.744 
L 450 27.744 
" style="fill: none; stroke: #000000; stroke-width: 0.8; stroke-linejoin: miter; stroke-linecap: square"/>
   </g>
   <g id="text_14">
    <!-- $v_y$ = 0.50 -->
    <g transform="translate(223.93 21.744) scale(0.12 -0.12)">
     <defs>
      <path id="DejaVuSans-Oblique-76" d="M 459 3500 
L 1069 3500 
L 1581 525 
L 3256 3500 
L 3866 3500 
L 1875 0 
L 1100 0 
L 459 3500 
z
" transform="scale(0.015625)"/>
      <path id="DejaVuSans-20" transform="scale(0.015625)"/>
      <path id="DejaVuSans-3d" d="M 678 2906 
L 4684 2906 
L 4684 2381 
L 678 2381 
L 678 2906 
z
M 678 1631 
L 4684 1631 
L 4684 1100 
L 678 1100 
L 678 1631 
z
" transform="scale(0.015625)"/>
      <path id="DejaVuSans-35" d="M 691 4666 
L 3169 4666 
L 3169 4134 
L 1269 4134 
L 1269 2991 
Q 1406 3038 1543 3061 
Q 1681 3084 1819 3084 
Q 2600 3084 3056 2656 
Q 3513 2228 3513 1497 
Q 3513 744 3044 326 
Q 2575 -91 1722 -91 
Q 1428 -91 1123 -41 
Q 819 9 494 109 
L 494 744 
Q 775 591 1075 516 
Q 1375 441 1709 441 
Q 2250 441 2565 725 
Q 2881 1009 2881 1497 
Q 2881 1984 2565 2268 
Q 2250 2553 1709 2553 
Q 1456 2553 1204 2497 
Q 953 2441 691 2322 
L 691 4666 
z
" transform="scale(0.015625)"/>
     </defs>
     <use xlink:href="#DejaVuSans-Oblique-76" transform="translate(0 0.78125)"/>
     <use xlink:href="#DejaVuSans-Oblique-79" transform="translate(59.179688 -15.625) scale(0.7)"/>
     <use xlink:href="#DejaVuSans-20" transform="translate(103.339844 0.78125)"/>
     <use xlink:href="#DejaVuSans-3d" transform="translate(135.126953 0.78125)"/>
     <use xlink:href="#DejaVuSans-20" transform="translate(218.916016 0.78125)"/>
     <use xlink:href="#DejaVuSans-30" transform="translate(250.703125 0.78125)"/>
     <use xlink:href="#DejaVuSans-2e" transform="translate(314.326172 0.78125)"/>
     <use xlink:href="#DejaVuSans-35" transform="translate(346.113281 0.78125)"/>
     <use xlink:href="#DejaVuSans-30" transform="translate(409.736328 0.78125)"/>
    </g>
   </g>
  </g>
  <g id="legend_1">
   <g id="patch_7">
    <path d="M 399.534375 125.425 
L 453.8 125.425 
Q 455.8 125.425 455.8 123.425 
L 455.8 7 
Q 455.8 5 453.8 5 
L 399.534375 5 
Q 397.534375 5 397.534375 7 
L 397.534375 123.425 
Q 397.534375 125.425 399.534375 125.425 
z
" style="fill: #ffffff; opacity: 0.8; stroke: #cccccc; stroke-linejoin: miter"/>
   </g>
   <g id="text_15">
    <!-- $v_x$ -->
    <g transform="translate(421.467188 16.598437) scale(0.1 -0.1)">
     <defs>
      <path id="DejaVuSans-Oblique-78" d="M 3841 3500 
L 2234 1784 
L 3219 0 
L 2559 0 
L 1819 1388 
L 531 0 
L -166 0 
L 1556 1844 
L 641 3500 
L 1300 3500 
L 1972 2234 
L 3144 3500 
L 3841 3500 
z
" transform="scale(0.015625)"/>
     </defs>
     <use xlink:href="#DejaVuSans-Oblique-76" transform="translate(0 0.3125)"/>
     <use xlink:href="#DejaVuSans-Oblique-78" transform="translate(59.179688 -16.09375) scale(0.7)"/>
    </g>
   </g>
   <g id="line2d_19">
    <path d="M 401.534375 27.776563 
L 411.534375 27.776563 
L 421.534375 27.776563 
" style="fill: none; stroke: #1f77b4; stroke-width: 1.5; stroke-linecap: square"/>
   </g>
   <g id="text_16">
    <!-- 0.0 -->
    <g transform="translate(429.534375 31.276563) scale(0.1 -0.1)">
     <use xlink:href="#DejaVuSans-30"/>
     <use xlink:href="#DejaVuSans-2e" transform="translate(63.623047 0)"/>
     <use xlink:href="#DejaVuSans-30" transform="translate(95.410156 0)"/>
    </g>
   </g>
   <g id="line2d_20">
    <path d="M 401.534375 42.454688 
L 411.534375 42.454688 
L 421.534375 42.454688 
" style="fill: none; stroke: #ff7f0e; stroke-width: 1.5; stroke-linecap: square"/>
   </g>
   <g id="text_17">
    <!-- 0.25 -->
    <g transform="translate(429.534375 45.954688) scale(0.1 -0.1)">
     <use xlink:href="#DejaVuSans-30"/>
     <use xlink:href="#DejaVuSans-2e" transform="translate(63.623047 0)"/>
     <use xlink:href="#DejaVuSans-32" transform="translate(95.410156 0)"/>
     <use xlink:href="#DejaVuSans-35" transform="translate(159.033203 0)"/>
    </g>
   </g>
   <g id="line2d_21">
    <path d="M 401.534375 57.132812 
L 411.534375 57.132812 
L 421.534375 57.132812 
" style="fill: none; stroke: #2ca02c; stroke-width: 1.5; stroke-linecap: square"/>
   </g>
   <g id="text_18">
    <!-- 0.5 -->
    <g transform="translate(429.534375 60.632812) scale(0.1 -0.1)">
     <use xlink:href="#DejaVuSans-30"/>
     <use xlink:href="#DejaVuSans-2e" transform="translate(63.623047 0)"/>
     <use xlink:href="#DejaVuSans-35" transform="translate(95.410156 0)"/>
    </g>
   </g>
   <g id="line2d_22">
    <path d="M 401.534375 71.810938 
L 411.534375 71.810938 
L 421.534375 71.810938 
" style="fill: none; stroke: #d62728; stroke-width: 1.5; stroke-linecap: square"/>
   </g>
   <g id="text_19">
    <!-- 0.75 -->
    <g transform="translate(429.534375 75.310938) scale(0.1 -0.1)">
     <defs>
      <path id="DejaVuSans-37" d="M 525 4666 
L 3525 4666 
L 3525 4397 
L 1831 0 
L 1172 0 
L 2766 4134 
L 525 4134 
L 525 4666 
z
" transform="scale(0.015625)"/>
     </defs>
     <use xlink:href="#DejaVuSans-30"/>
     <use xlink:href="#DejaVuSans-2e" transform="translate(63.623047 0)"/>
     <use xlink:href="#DejaVuSans-37" transform="translate(95.410156 0)"/>
     <use xlink:href="#DejaVuSans-35" transform="translate(159.033203 0)"/>
    </g>
   </g>
   <g id="line2d_23">
    <path d="M 401.534375 86.489063 
L 411.534375 86.489063 
L 421.534375 86.489063 
" style="fill: none; stroke: #9467bd; stroke-width: 1.5; stroke-linecap: square"/>
   </g>
   <g id="text_20">
    <!-- 1.0 -->
    <g transform="translate(429.534375 89.989063) scale(0.1 -0.1)">
     <use xlink:href="#DejaVuSans-31"/>
     <use xlink:href="#DejaVuSans-2e" transform="translate(63.623047 0)"/>
     <use xlink:href="#DejaVuSans-30" transform="translate(95.410156 0)"/>
    </g>
   </g>
   <g id="line2d_24">
    <path d="M 401.534375 101.167188 
L 411.534375 101.167188 
L 421.534375 101.167188 
" style="fill: none; stroke: #8c564b; stroke-width: 1.5; stroke-linecap: square"/>
   </g>
   <g id="text_21">
    <!-- 1.25 -->
    <g transform="translate(429.534375 104.667188) scale(0.1 -0.1)">
     <use xlink:href="#DejaVuSans-31"/>
     <use xlink:href="#DejaVuSans-2e" transform="translate(63.623047 0)"/>
     <use xlink:href="#DejaVuSans-32" transform="translate(95.410156 0)"/>
     <use xlink:href="#DejaVuSans-35" transform="translate(159.033203 0)"/>
    </g>
   </g>
   <g id="line2d_25">
    <path d="M 401.534375 115.845313 
L 411.534375 115.845313 
L 421.534375 115.845313 
" style="fill: none; stroke: #e377c2; stroke-width: 1.5; stroke-linecap: square"/>
   </g>
   <g id="text_22">
    <!-- 1.5 -->
    <g transform="translate(429.534375 119.345313) scale(0.1 -0.1)">
     <use xlink:href="#DejaVuSans-31"/>
     <use xlink:href="#DejaVuSans-2e" transform="translate(63.623047 0)"/>
     <use xlink:href="#DejaVuSans-35" transform="translate(95.410156 0)"/>
    </g>
   </g>
  </g>
 </g>
 <defs>
  <clipPath id="p54223a8c4a">
   <rect x="54.74" y="27.744" width="395.26" height="275.896"/>
  </clipPath>
 </defs>
</svg>
